G04 MADE WITH FRITZING*
G04 WWW.FRITZING.ORG*
G04 DOUBLE SIDED*
G04 HOLES PLATED*
G04 CONTOUR ON CENTER OF CONTOUR VECTOR*
%ASAXBY*%
%FSLAX23Y23*%
%MOIN*%
%OFA0B0*%
%SFA1.0B1.0*%
%ADD10C,0.078000*%
%ADD11C,0.085000*%
%ADD12C,0.075000*%
%ADD13C,0.024000*%
%LNCOPPER1*%
G90*
G70*
G54D10*
X198Y416D03*
X198Y316D03*
X198Y216D03*
G54D11*
X6098Y1208D03*
X5901Y1208D03*
X5901Y716D03*
X6098Y716D03*
X6098Y1208D03*
X5901Y1208D03*
X5901Y716D03*
X6098Y716D03*
X5398Y1208D03*
X5201Y1208D03*
X5201Y716D03*
X5398Y716D03*
X5398Y1208D03*
X5201Y1208D03*
X5201Y716D03*
X5398Y716D03*
X3298Y1208D03*
X3101Y1208D03*
X3101Y716D03*
X3298Y716D03*
X3298Y1208D03*
X3101Y1208D03*
X3101Y716D03*
X3298Y716D03*
X3998Y1208D03*
X3801Y1208D03*
X3801Y716D03*
X3998Y716D03*
X3998Y1208D03*
X3801Y1208D03*
X3801Y716D03*
X3998Y716D03*
X4698Y1208D03*
X4501Y1208D03*
X4501Y716D03*
X4698Y716D03*
X4698Y1208D03*
X4501Y1208D03*
X4501Y716D03*
X4698Y716D03*
X2598Y1208D03*
X2401Y1208D03*
X2401Y716D03*
X2598Y716D03*
X2598Y1208D03*
X2401Y1208D03*
X2401Y716D03*
X2598Y716D03*
X1198Y1208D03*
X1001Y1208D03*
X1001Y716D03*
X1198Y716D03*
X1198Y1208D03*
X1001Y1208D03*
X1001Y716D03*
X1198Y716D03*
X1898Y1208D03*
X1701Y1208D03*
X1701Y716D03*
X1898Y716D03*
X1898Y1208D03*
X1701Y1208D03*
X1701Y716D03*
X1898Y716D03*
X495Y1208D03*
X298Y1208D03*
X298Y716D03*
X495Y716D03*
X495Y1208D03*
X298Y1208D03*
X298Y716D03*
X495Y716D03*
G54D12*
X498Y616D03*
X498Y216D03*
X6098Y616D03*
X6098Y216D03*
X5398Y616D03*
X5398Y216D03*
X4698Y616D03*
X4698Y216D03*
X3998Y616D03*
X3998Y216D03*
X3298Y616D03*
X3298Y216D03*
X1898Y616D03*
X1898Y216D03*
X2598Y616D03*
X2598Y216D03*
X1198Y616D03*
X1198Y216D03*
G54D13*
X399Y315D02*
X228Y316D01*
D02*
X399Y615D02*
X399Y315D01*
D02*
X198Y717D02*
X198Y446D01*
D02*
X264Y716D02*
X198Y717D01*
D02*
X470Y616D02*
X399Y615D01*
D02*
X470Y216D02*
X228Y216D01*
D02*
X5198Y1016D02*
X5201Y751D01*
D02*
X5898Y1016D02*
X5901Y751D01*
D02*
X4498Y1016D02*
X4501Y751D01*
D02*
X5198Y1016D02*
X5898Y1016D01*
D02*
X6398Y216D02*
X6127Y216D01*
D02*
X5898Y1016D02*
X6398Y1016D01*
D02*
X6398Y1016D02*
X6398Y216D01*
D02*
X4498Y1016D02*
X5198Y1016D01*
D02*
X3798Y1016D02*
X4498Y1016D01*
D02*
X3098Y1016D02*
X3798Y1016D01*
D02*
X2398Y1016D02*
X3098Y1016D01*
D02*
X1698Y1016D02*
X2398Y1016D01*
D02*
X998Y1016D02*
X1001Y751D01*
D02*
X998Y1016D02*
X1698Y1016D01*
D02*
X299Y1016D02*
X998Y1016D01*
D02*
X298Y751D02*
X299Y1016D01*
D02*
X4723Y230D02*
X5373Y602D01*
D02*
X2623Y230D02*
X3273Y602D01*
D02*
X1923Y230D02*
X2573Y602D01*
D02*
X1873Y602D02*
X1223Y230D01*
D02*
X3798Y1016D02*
X3801Y751D01*
D02*
X3098Y1016D02*
X3101Y751D01*
D02*
X2398Y1016D02*
X2401Y751D01*
D02*
X1698Y1016D02*
X1701Y751D01*
D02*
X3973Y602D02*
X3323Y230D01*
D02*
X4673Y602D02*
X4023Y230D01*
D02*
X3298Y644D02*
X3298Y681D01*
D02*
X2598Y644D02*
X2598Y681D01*
D02*
X1898Y644D02*
X1898Y681D01*
D02*
X6073Y602D02*
X5423Y230D01*
D02*
X1198Y644D02*
X1198Y681D01*
D02*
X1173Y602D02*
X523Y230D01*
D02*
X496Y681D02*
X497Y644D01*
D02*
X6098Y644D02*
X6098Y681D01*
D02*
X5398Y644D02*
X5398Y681D01*
D02*
X4698Y644D02*
X4698Y681D01*
D02*
X3998Y644D02*
X3998Y681D01*
G04 End of Copper1*
M02*