; NON-PLATED HOLES START AT T1
; THROUGH (PLATED) HOLES START AT T100
M48
INCH
T100C0.047244
T101C0.038000
T102C0.035000
%
T100
X010014Y012079
X032982Y007158
X052014Y007158
X004951Y012079
X039982Y012079
X059014Y007158
X046982Y012079
X053982Y007158
X038014Y007158
X025982Y007158
X004951Y007158
X024014Y007158
X002982Y007158
X018982Y012079
X011982Y007158
X031014Y012079
X039982Y007158
X002982Y012079
X018982Y007158
X010014Y007158
X060982Y007158
X060982Y012079
X017014Y007158
X017014Y012079
X031014Y007158
X032982Y012079
X045014Y007158
X011982Y012079
X052014Y012079
X024014Y012079
X038014Y012079
X053982Y012079
X059014Y012079
X025982Y012079
X046982Y007158
X045014Y012079
T101
X001982Y004158
X001982Y002158
X001982Y003158
T102
X060982Y002158
X039982Y002158
X046982Y006158
X018982Y006158
X032982Y006158
X053982Y006158
X025982Y002158
X004982Y002158
X004982Y006158
X046982Y002158
X018982Y002158
X032982Y002158
X039982Y006158
X053982Y002158
X060982Y006158
X025982Y006158
X011982Y006158
X011982Y002158
T00
M30
