; NON-PLATED HOLES START AT T1
; THROUGH (PLATED) HOLES START AT T100
M48
INCH
T1C0.086614
T100C0.038000
T101C0.039370
%
T1
X000962Y012853
X000962Y000890
X019666Y012853
X019666Y000890
T100
X003000Y008298
X005000Y010298
X003000Y010298
X005000Y009298
X003000Y011298
X010000Y011298
X007000Y011298
X010000Y005298
X004000Y010298
X007000Y009298
X004000Y008298
X007000Y008298
X008000Y011298
X006000Y008298
X006000Y009298
X010000Y009298
X010000Y010298
X010000Y007298
X004000Y009298
X006000Y011298
X005000Y008298
X008000Y010298
X010000Y002297
X008000Y008298
X003000Y009298
X008000Y009298
X004000Y011298
X005000Y011298
X008000Y007298
X010000Y006298
X010000Y008298
X007000Y010298
X010000Y003297
X006000Y010298
X010000Y004298
T101
X013000Y009298
X013000Y004298
X013000Y006298
X013000Y007298
X013000Y010298
X013000Y003297
X013000Y008298
X013000Y011298
X013000Y005298
X013000Y002297
T00
M30
