G04 MADE WITH FRITZING*
G04 WWW.FRITZING.ORG*
G04 DOUBLE SIDED*
G04 HOLES PLATED*
G04 CONTOUR ON CENTER OF CONTOUR VECTOR*
%ASAXBY*%
%FSLAX23Y23*%
%MOIN*%
%OFA0B0*%
%SFA1.0B1.0*%
%ADD10C,0.080000*%
%ADD11C,0.088000*%
%ADD12C,0.096614*%
%LNMASK1*%
G90*
G70*
G54D10*
X1300Y230D03*
X1300Y330D03*
X1300Y430D03*
X1300Y530D03*
X1300Y630D03*
X1300Y730D03*
X1300Y830D03*
X1300Y930D03*
X1300Y1030D03*
X1300Y1130D03*
G54D11*
X1000Y1130D03*
X1000Y1030D03*
X1000Y930D03*
X1000Y830D03*
X1000Y730D03*
X1000Y630D03*
X1000Y530D03*
X1000Y430D03*
X1000Y330D03*
X1000Y230D03*
X800Y730D03*
G54D12*
X1967Y89D03*
X96Y89D03*
X1967Y1285D03*
X96Y1285D03*
G54D11*
X300Y1130D03*
X400Y1130D03*
X500Y1130D03*
X600Y1130D03*
X700Y1130D03*
X800Y1130D03*
X300Y1030D03*
X400Y1030D03*
X500Y1030D03*
X600Y1030D03*
X700Y1030D03*
X800Y1030D03*
X300Y930D03*
X400Y930D03*
X500Y930D03*
X600Y930D03*
X700Y930D03*
X800Y930D03*
X300Y830D03*
X400Y830D03*
X500Y830D03*
X600Y830D03*
X700Y830D03*
X800Y830D03*
G04 End of Mask1*
M02*