G04 MADE WITH FRITZING*
G04 WWW.FRITZING.ORG*
G04 DOUBLE SIDED*
G04 HOLES PLATED*
G04 CONTOUR ON CENTER OF CONTOUR VECTOR*
%ASAXBY*%
%FSLAX23Y23*%
%MOIN*%
%OFA0B0*%
%SFA1.0B1.0*%
%ADD10C,0.085000*%
%ADD11C,0.088000*%
%ADD12C,0.225000*%
%ADD13R,0.001000X0.001000*%
%LNMASK1*%
G90*
G70*
G54D10*
X6750Y1008D03*
X6854Y621D03*
X6150Y1008D03*
X6254Y621D03*
X5550Y1008D03*
X5654Y621D03*
X4961Y1011D03*
X5064Y625D03*
X4207Y1021D03*
X4554Y821D03*
X6421Y1704D03*
X6704Y1421D03*
X5821Y1704D03*
X6104Y1421D03*
X5197Y1728D03*
X5454Y1421D03*
X4507Y1721D03*
X4854Y1521D03*
X2107Y921D03*
X2454Y721D03*
X1507Y921D03*
X1854Y721D03*
X907Y921D03*
X1254Y721D03*
X207Y921D03*
X554Y721D03*
X2007Y1621D03*
X2354Y1421D03*
X1407Y1621D03*
X1754Y1421D03*
X807Y1621D03*
X1154Y1421D03*
X107Y1621D03*
X454Y1421D03*
X6671Y2538D03*
X6954Y2821D03*
X6071Y2538D03*
X6354Y2821D03*
X5471Y2538D03*
X5754Y2821D03*
X4871Y2538D03*
X5154Y2821D03*
X371Y2538D03*
X654Y2821D03*
X971Y2538D03*
X1254Y2821D03*
X1571Y2538D03*
X1854Y2821D03*
X2171Y2538D03*
X2454Y2821D03*
X2771Y2538D03*
X3054Y2821D03*
G54D11*
X4454Y2721D03*
X4554Y2721D03*
X4654Y2721D03*
X4754Y2721D03*
X2854Y221D03*
X2954Y221D03*
X3054Y221D03*
X3154Y221D03*
G54D12*
X5954Y921D03*
X5954Y921D03*
X654Y921D03*
X654Y921D03*
X1854Y921D03*
X1854Y921D03*
X4754Y921D03*
X4754Y921D03*
X6554Y921D03*
X6554Y921D03*
X2454Y921D03*
X2454Y921D03*
X1254Y921D03*
X1254Y921D03*
X7154Y921D03*
X7154Y921D03*
X5354Y921D03*
X5354Y921D03*
X6254Y1621D03*
X6254Y1621D03*
X554Y1621D03*
X554Y1621D03*
X1754Y1621D03*
X1754Y1621D03*
X5054Y1621D03*
X5054Y1621D03*
X6854Y1621D03*
X6854Y1621D03*
X2354Y1621D03*
X2354Y1621D03*
X1154Y1621D03*
X1154Y1621D03*
X5654Y1621D03*
X5654Y1621D03*
X6654Y2321D03*
X6654Y2321D03*
X6054Y2321D03*
X6054Y2321D03*
X5454Y2321D03*
X5454Y2321D03*
X4854Y2321D03*
X4854Y2321D03*
X2754Y2321D03*
X2754Y2321D03*
X2154Y2321D03*
X2154Y2321D03*
X1554Y2321D03*
X1554Y2321D03*
X954Y2321D03*
X954Y2321D03*
X354Y2321D03*
X354Y2321D03*
G54D13*
X3846Y2761D02*
X3861Y2761D01*
X4146Y2761D02*
X4161Y2761D01*
X3842Y2760D02*
X3865Y2760D01*
X4142Y2760D02*
X4165Y2760D01*
X3839Y2759D02*
X3867Y2759D01*
X4139Y2759D02*
X4167Y2759D01*
X3837Y2758D02*
X3870Y2758D01*
X4137Y2758D02*
X4170Y2758D01*
X3835Y2757D02*
X3872Y2757D01*
X4135Y2757D02*
X4172Y2757D01*
X3833Y2756D02*
X3873Y2756D01*
X4133Y2756D02*
X4173Y2756D01*
X3831Y2755D02*
X3875Y2755D01*
X4131Y2755D02*
X4175Y2755D01*
X3830Y2754D02*
X3876Y2754D01*
X4130Y2754D02*
X4176Y2754D01*
X3829Y2753D02*
X3878Y2753D01*
X4129Y2753D02*
X4178Y2753D01*
X3827Y2752D02*
X3879Y2752D01*
X4127Y2752D02*
X4179Y2752D01*
X3826Y2751D02*
X3880Y2751D01*
X4126Y2751D02*
X4180Y2751D01*
X3825Y2750D02*
X3881Y2750D01*
X4125Y2750D02*
X4181Y2750D01*
X3824Y2749D02*
X3882Y2749D01*
X4124Y2749D02*
X4182Y2749D01*
X3823Y2748D02*
X3883Y2748D01*
X4123Y2748D02*
X4183Y2748D01*
X3823Y2747D02*
X3884Y2747D01*
X4123Y2747D02*
X4184Y2747D01*
X3822Y2746D02*
X3884Y2746D01*
X4122Y2746D02*
X4184Y2746D01*
X3821Y2745D02*
X3885Y2745D01*
X4121Y2745D02*
X4185Y2745D01*
X3820Y2744D02*
X3886Y2744D01*
X4120Y2744D02*
X4186Y2744D01*
X3820Y2743D02*
X3887Y2743D01*
X4120Y2743D02*
X4186Y2743D01*
X3819Y2742D02*
X3887Y2742D01*
X4119Y2742D02*
X4187Y2742D01*
X3819Y2741D02*
X3888Y2741D01*
X4119Y2741D02*
X4188Y2741D01*
X3818Y2740D02*
X3888Y2740D01*
X4118Y2740D02*
X4188Y2740D01*
X3818Y2739D02*
X3889Y2739D01*
X4118Y2739D02*
X4189Y2739D01*
X3817Y2738D02*
X3889Y2738D01*
X4117Y2738D02*
X4189Y2738D01*
X3817Y2737D02*
X3890Y2737D01*
X4117Y2737D02*
X4190Y2737D01*
X3816Y2736D02*
X3890Y2736D01*
X4116Y2736D02*
X4190Y2736D01*
X3816Y2735D02*
X3890Y2735D01*
X4116Y2735D02*
X4190Y2735D01*
X3816Y2734D02*
X3891Y2734D01*
X4116Y2734D02*
X4191Y2734D01*
X3815Y2733D02*
X3891Y2733D01*
X4115Y2733D02*
X4191Y2733D01*
X3815Y2732D02*
X3891Y2732D01*
X4115Y2732D02*
X4191Y2732D01*
X3815Y2731D02*
X3892Y2731D01*
X4115Y2731D02*
X4191Y2731D01*
X3815Y2730D02*
X3892Y2730D01*
X4115Y2730D02*
X4192Y2730D01*
X3814Y2729D02*
X3892Y2729D01*
X4114Y2729D02*
X4192Y2729D01*
X3814Y2728D02*
X3892Y2728D01*
X4114Y2728D02*
X4192Y2728D01*
X3814Y2727D02*
X3892Y2727D01*
X4114Y2727D02*
X4192Y2727D01*
X3814Y2726D02*
X3892Y2726D01*
X4114Y2726D02*
X4192Y2726D01*
X3814Y2725D02*
X3892Y2725D01*
X4114Y2725D02*
X4192Y2725D01*
X3814Y2724D02*
X3893Y2724D01*
X4114Y2724D02*
X4193Y2724D01*
X3814Y2723D02*
X3893Y2723D01*
X4114Y2723D02*
X4193Y2723D01*
X3814Y2722D02*
X3893Y2722D01*
X4114Y2722D02*
X4193Y2722D01*
X3814Y2721D02*
X3893Y2721D01*
X4114Y2721D02*
X4193Y2721D01*
X3814Y2720D02*
X3893Y2720D01*
X4114Y2720D02*
X4193Y2720D01*
X3814Y2719D02*
X3893Y2719D01*
X4114Y2719D02*
X4192Y2719D01*
X3814Y2718D02*
X3892Y2718D01*
X4114Y2718D02*
X4192Y2718D01*
X3814Y2717D02*
X3892Y2717D01*
X4114Y2717D02*
X4192Y2717D01*
X3814Y2716D02*
X3892Y2716D01*
X4114Y2716D02*
X4192Y2716D01*
X3814Y2715D02*
X3892Y2715D01*
X4114Y2715D02*
X4192Y2715D01*
X3815Y2714D02*
X3892Y2714D01*
X4115Y2714D02*
X4192Y2714D01*
X3815Y2713D02*
X3892Y2713D01*
X4115Y2713D02*
X4192Y2713D01*
X3815Y2712D02*
X3891Y2712D01*
X4115Y2712D02*
X4191Y2712D01*
X3815Y2711D02*
X3891Y2711D01*
X4115Y2711D02*
X4191Y2711D01*
X3816Y2710D02*
X3891Y2710D01*
X4116Y2710D02*
X4191Y2710D01*
X3816Y2709D02*
X3890Y2709D01*
X4116Y2709D02*
X4190Y2709D01*
X3816Y2708D02*
X3890Y2708D01*
X4116Y2708D02*
X4190Y2708D01*
X3817Y2707D02*
X3890Y2707D01*
X4117Y2707D02*
X4190Y2707D01*
X3817Y2706D02*
X3889Y2706D01*
X4117Y2706D02*
X4189Y2706D01*
X3817Y2705D02*
X3889Y2705D01*
X4117Y2705D02*
X4189Y2705D01*
X3818Y2704D02*
X3888Y2704D01*
X4118Y2704D02*
X4188Y2704D01*
X3818Y2703D02*
X3888Y2703D01*
X4118Y2703D02*
X4188Y2703D01*
X3819Y2702D02*
X3887Y2702D01*
X4119Y2702D02*
X4187Y2702D01*
X3820Y2701D02*
X3887Y2701D01*
X4120Y2701D02*
X4187Y2701D01*
X3820Y2700D02*
X3886Y2700D01*
X4120Y2700D02*
X4186Y2700D01*
X3821Y2699D02*
X3885Y2699D01*
X4121Y2699D02*
X4185Y2699D01*
X3822Y2698D02*
X3885Y2698D01*
X4122Y2698D02*
X4185Y2698D01*
X3822Y2697D02*
X3884Y2697D01*
X4122Y2697D02*
X4184Y2697D01*
X3823Y2696D02*
X3883Y2696D01*
X4123Y2696D02*
X4183Y2696D01*
X3824Y2695D02*
X3882Y2695D01*
X4124Y2695D02*
X4182Y2695D01*
X3825Y2694D02*
X3881Y2694D01*
X4125Y2694D02*
X4181Y2694D01*
X3826Y2693D02*
X3880Y2693D01*
X4126Y2693D02*
X4180Y2693D01*
X3827Y2692D02*
X3879Y2692D01*
X4127Y2692D02*
X4179Y2692D01*
X3828Y2691D02*
X3878Y2691D01*
X4128Y2691D02*
X4178Y2691D01*
X3830Y2690D02*
X3877Y2690D01*
X4130Y2690D02*
X4177Y2690D01*
X3831Y2689D02*
X3875Y2689D01*
X4131Y2689D02*
X4175Y2689D01*
X3833Y2688D02*
X3874Y2688D01*
X4133Y2688D02*
X4174Y2688D01*
X3834Y2687D02*
X3872Y2687D01*
X4134Y2687D02*
X4172Y2687D01*
X3836Y2686D02*
X3870Y2686D01*
X4136Y2686D02*
X4170Y2686D01*
X3838Y2685D02*
X3868Y2685D01*
X4138Y2685D02*
X4168Y2685D01*
X3841Y2684D02*
X3865Y2684D01*
X4141Y2684D02*
X4165Y2684D01*
X3845Y2683D02*
X3862Y2683D01*
X4145Y2683D02*
X4162Y2683D01*
X3852Y2682D02*
X3855Y2682D01*
X4152Y2682D02*
X4155Y2682D01*
X3846Y2661D02*
X3861Y2661D01*
X4146Y2661D02*
X4161Y2661D01*
X3842Y2660D02*
X3865Y2660D01*
X4142Y2660D02*
X4165Y2660D01*
X3839Y2659D02*
X3868Y2659D01*
X4139Y2659D02*
X4168Y2659D01*
X3837Y2658D02*
X3870Y2658D01*
X4137Y2658D02*
X4170Y2658D01*
X3835Y2657D02*
X3872Y2657D01*
X4135Y2657D02*
X4172Y2657D01*
X3833Y2656D02*
X3873Y2656D01*
X4133Y2656D02*
X4173Y2656D01*
X3831Y2655D02*
X3875Y2655D01*
X4131Y2655D02*
X4175Y2655D01*
X3830Y2654D02*
X3876Y2654D01*
X4130Y2654D02*
X4176Y2654D01*
X3829Y2653D02*
X3878Y2653D01*
X4129Y2653D02*
X4178Y2653D01*
X3827Y2652D02*
X3879Y2652D01*
X4127Y2652D02*
X4179Y2652D01*
X3826Y2651D02*
X3880Y2651D01*
X4126Y2651D02*
X4180Y2651D01*
X3825Y2650D02*
X3881Y2650D01*
X4125Y2650D02*
X4181Y2650D01*
X3824Y2649D02*
X3882Y2649D01*
X4124Y2649D02*
X4182Y2649D01*
X3823Y2648D02*
X3883Y2648D01*
X4123Y2648D02*
X4183Y2648D01*
X3823Y2647D02*
X3884Y2647D01*
X4123Y2647D02*
X4184Y2647D01*
X3822Y2646D02*
X3884Y2646D01*
X4122Y2646D02*
X4184Y2646D01*
X3821Y2645D02*
X3885Y2645D01*
X4121Y2645D02*
X4185Y2645D01*
X3820Y2644D02*
X3886Y2644D01*
X4120Y2644D02*
X4186Y2644D01*
X3820Y2643D02*
X3887Y2643D01*
X4120Y2643D02*
X4187Y2643D01*
X3819Y2642D02*
X3887Y2642D01*
X4119Y2642D02*
X4187Y2642D01*
X3819Y2641D02*
X3888Y2641D01*
X4119Y2641D02*
X4188Y2641D01*
X3818Y2640D02*
X3888Y2640D01*
X4118Y2640D02*
X4188Y2640D01*
X3818Y2639D02*
X3889Y2639D01*
X4118Y2639D02*
X4189Y2639D01*
X3817Y2638D02*
X3889Y2638D01*
X4117Y2638D02*
X4189Y2638D01*
X3817Y2637D02*
X3890Y2637D01*
X4117Y2637D02*
X4190Y2637D01*
X3816Y2636D02*
X3890Y2636D01*
X4116Y2636D02*
X4190Y2636D01*
X3816Y2635D02*
X3890Y2635D01*
X4116Y2635D02*
X4190Y2635D01*
X3816Y2634D02*
X3891Y2634D01*
X4116Y2634D02*
X4191Y2634D01*
X3815Y2633D02*
X3891Y2633D01*
X4115Y2633D02*
X4191Y2633D01*
X3815Y2632D02*
X3891Y2632D01*
X4115Y2632D02*
X4191Y2632D01*
X3815Y2631D02*
X3892Y2631D01*
X4115Y2631D02*
X4192Y2631D01*
X3815Y2630D02*
X3892Y2630D01*
X4115Y2630D02*
X4192Y2630D01*
X3814Y2629D02*
X3892Y2629D01*
X4114Y2629D02*
X4192Y2629D01*
X3814Y2628D02*
X3892Y2628D01*
X4114Y2628D02*
X4192Y2628D01*
X3814Y2627D02*
X3892Y2627D01*
X4114Y2627D02*
X4192Y2627D01*
X3814Y2626D02*
X3892Y2626D01*
X4114Y2626D02*
X4192Y2626D01*
X3814Y2625D02*
X3892Y2625D01*
X4114Y2625D02*
X4192Y2625D01*
X3814Y2624D02*
X3893Y2624D01*
X4114Y2624D02*
X4193Y2624D01*
X3814Y2623D02*
X3893Y2623D01*
X4114Y2623D02*
X4193Y2623D01*
X3814Y2622D02*
X3893Y2622D01*
X4114Y2622D02*
X4193Y2622D01*
X3814Y2621D02*
X3893Y2621D01*
X4114Y2621D02*
X4193Y2621D01*
X3814Y2620D02*
X3893Y2620D01*
X4114Y2620D02*
X4193Y2620D01*
X3814Y2619D02*
X3893Y2619D01*
X4114Y2619D02*
X4192Y2619D01*
X3814Y2618D02*
X3892Y2618D01*
X4114Y2618D02*
X4192Y2618D01*
X3814Y2617D02*
X3892Y2617D01*
X4114Y2617D02*
X4192Y2617D01*
X3814Y2616D02*
X3892Y2616D01*
X4114Y2616D02*
X4192Y2616D01*
X3814Y2615D02*
X3892Y2615D01*
X4114Y2615D02*
X4192Y2615D01*
X3815Y2614D02*
X3892Y2614D01*
X4115Y2614D02*
X4192Y2614D01*
X3815Y2613D02*
X3892Y2613D01*
X4115Y2613D02*
X4192Y2613D01*
X3815Y2612D02*
X3891Y2612D01*
X4115Y2612D02*
X4191Y2612D01*
X3815Y2611D02*
X3891Y2611D01*
X4115Y2611D02*
X4191Y2611D01*
X3816Y2610D02*
X3891Y2610D01*
X4116Y2610D02*
X4191Y2610D01*
X3816Y2609D02*
X3890Y2609D01*
X4116Y2609D02*
X4190Y2609D01*
X3816Y2608D02*
X3890Y2608D01*
X4116Y2608D02*
X4190Y2608D01*
X3817Y2607D02*
X3890Y2607D01*
X4117Y2607D02*
X4190Y2607D01*
X3817Y2606D02*
X3889Y2606D01*
X4117Y2606D02*
X4189Y2606D01*
X3817Y2605D02*
X3889Y2605D01*
X4117Y2605D02*
X4189Y2605D01*
X3818Y2604D02*
X3888Y2604D01*
X4118Y2604D02*
X4188Y2604D01*
X3818Y2603D02*
X3888Y2603D01*
X4118Y2603D02*
X4188Y2603D01*
X3819Y2602D02*
X3887Y2602D01*
X4119Y2602D02*
X4187Y2602D01*
X3820Y2601D02*
X3887Y2601D01*
X4120Y2601D02*
X4187Y2601D01*
X3820Y2600D02*
X3886Y2600D01*
X4120Y2600D02*
X4186Y2600D01*
X3821Y2599D02*
X3885Y2599D01*
X4121Y2599D02*
X4185Y2599D01*
X3822Y2598D02*
X3885Y2598D01*
X4122Y2598D02*
X4185Y2598D01*
X3822Y2597D02*
X3884Y2597D01*
X4122Y2597D02*
X4184Y2597D01*
X3823Y2596D02*
X3883Y2596D01*
X4123Y2596D02*
X4183Y2596D01*
X3824Y2595D02*
X3882Y2595D01*
X4124Y2595D02*
X4182Y2595D01*
X3825Y2594D02*
X3881Y2594D01*
X4125Y2594D02*
X4181Y2594D01*
X3826Y2593D02*
X3880Y2593D01*
X4126Y2593D02*
X4180Y2593D01*
X3827Y2592D02*
X3879Y2592D01*
X4127Y2592D02*
X4179Y2592D01*
X3828Y2591D02*
X3878Y2591D01*
X4128Y2591D02*
X4178Y2591D01*
X3830Y2590D02*
X3877Y2590D01*
X4130Y2590D02*
X4177Y2590D01*
X3831Y2589D02*
X3875Y2589D01*
X4131Y2589D02*
X4175Y2589D01*
X3833Y2588D02*
X3874Y2588D01*
X4133Y2588D02*
X4174Y2588D01*
X3834Y2587D02*
X3872Y2587D01*
X4134Y2587D02*
X4172Y2587D01*
X3836Y2586D02*
X3870Y2586D01*
X4136Y2586D02*
X4170Y2586D01*
X3838Y2585D02*
X3868Y2585D01*
X4138Y2585D02*
X4168Y2585D01*
X3841Y2584D02*
X3865Y2584D01*
X4141Y2584D02*
X4165Y2584D01*
X3845Y2583D02*
X3861Y2583D01*
X4145Y2583D02*
X4161Y2583D01*
X3852Y2582D02*
X3854Y2582D01*
X4152Y2582D02*
X4154Y2582D01*
X3845Y2561D02*
X3861Y2561D01*
X4145Y2561D02*
X4161Y2561D01*
X3842Y2560D02*
X3865Y2560D01*
X4142Y2560D02*
X4165Y2560D01*
X3839Y2559D02*
X3868Y2559D01*
X4139Y2559D02*
X4168Y2559D01*
X3836Y2558D02*
X3870Y2558D01*
X4136Y2558D02*
X4170Y2558D01*
X3835Y2557D02*
X3872Y2557D01*
X4135Y2557D02*
X4172Y2557D01*
X3833Y2556D02*
X3873Y2556D01*
X4133Y2556D02*
X4173Y2556D01*
X3831Y2555D02*
X3875Y2555D01*
X4131Y2555D02*
X4175Y2555D01*
X3830Y2554D02*
X3876Y2554D01*
X4130Y2554D02*
X4176Y2554D01*
X3829Y2553D02*
X3878Y2553D01*
X4129Y2553D02*
X4178Y2553D01*
X3827Y2552D02*
X3879Y2552D01*
X4127Y2552D02*
X4179Y2552D01*
X3826Y2551D02*
X3880Y2551D01*
X4126Y2551D02*
X4180Y2551D01*
X3825Y2550D02*
X3881Y2550D01*
X4125Y2550D02*
X4181Y2550D01*
X3824Y2549D02*
X3882Y2549D01*
X4124Y2549D02*
X4182Y2549D01*
X3823Y2548D02*
X3883Y2548D01*
X4123Y2548D02*
X4183Y2548D01*
X3823Y2547D02*
X3884Y2547D01*
X4123Y2547D02*
X4184Y2547D01*
X3822Y2546D02*
X3884Y2546D01*
X4122Y2546D02*
X4184Y2546D01*
X3821Y2545D02*
X3885Y2545D01*
X4121Y2545D02*
X4185Y2545D01*
X3820Y2544D02*
X3886Y2544D01*
X4120Y2544D02*
X4186Y2544D01*
X3820Y2543D02*
X3887Y2543D01*
X4120Y2543D02*
X4187Y2543D01*
X3819Y2542D02*
X3887Y2542D01*
X4119Y2542D02*
X4187Y2542D01*
X3819Y2541D02*
X3888Y2541D01*
X4119Y2541D02*
X4188Y2541D01*
X3818Y2540D02*
X3888Y2540D01*
X4118Y2540D02*
X4188Y2540D01*
X3818Y2539D02*
X3889Y2539D01*
X4118Y2539D02*
X4189Y2539D01*
X3817Y2538D02*
X3889Y2538D01*
X4117Y2538D02*
X4189Y2538D01*
X3817Y2537D02*
X3890Y2537D01*
X4117Y2537D02*
X4190Y2537D01*
X3816Y2536D02*
X3890Y2536D01*
X4116Y2536D02*
X4190Y2536D01*
X3816Y2535D02*
X3890Y2535D01*
X4116Y2535D02*
X4190Y2535D01*
X3816Y2534D02*
X3891Y2534D01*
X4116Y2534D02*
X4191Y2534D01*
X3815Y2533D02*
X3891Y2533D01*
X4115Y2533D02*
X4191Y2533D01*
X3815Y2532D02*
X3891Y2532D01*
X4115Y2532D02*
X4191Y2532D01*
X3815Y2531D02*
X3892Y2531D01*
X4115Y2531D02*
X4192Y2531D01*
X3815Y2530D02*
X3892Y2530D01*
X4115Y2530D02*
X4192Y2530D01*
X3814Y2529D02*
X3892Y2529D01*
X4114Y2529D02*
X4192Y2529D01*
X3814Y2528D02*
X3892Y2528D01*
X4114Y2528D02*
X4192Y2528D01*
X3814Y2527D02*
X3892Y2527D01*
X4114Y2527D02*
X4192Y2527D01*
X3814Y2526D02*
X3892Y2526D01*
X4114Y2526D02*
X4192Y2526D01*
X3814Y2525D02*
X3892Y2525D01*
X4114Y2525D02*
X4192Y2525D01*
X3814Y2524D02*
X3893Y2524D01*
X4114Y2524D02*
X4193Y2524D01*
X3814Y2523D02*
X3893Y2523D01*
X4114Y2523D02*
X4193Y2523D01*
X3814Y2522D02*
X3893Y2522D01*
X4114Y2522D02*
X4193Y2522D01*
X3814Y2521D02*
X3893Y2521D01*
X4114Y2521D02*
X4193Y2521D01*
X3814Y2520D02*
X3893Y2520D01*
X4114Y2520D02*
X4193Y2520D01*
X3814Y2519D02*
X3892Y2519D01*
X4114Y2519D02*
X4192Y2519D01*
X3814Y2518D02*
X3892Y2518D01*
X4114Y2518D02*
X4192Y2518D01*
X3814Y2517D02*
X3892Y2517D01*
X4114Y2517D02*
X4192Y2517D01*
X3814Y2516D02*
X3892Y2516D01*
X4114Y2516D02*
X4192Y2516D01*
X3814Y2515D02*
X3892Y2515D01*
X4114Y2515D02*
X4192Y2515D01*
X3815Y2514D02*
X3892Y2514D01*
X4115Y2514D02*
X4192Y2514D01*
X3815Y2513D02*
X3892Y2513D01*
X4115Y2513D02*
X4192Y2513D01*
X3815Y2512D02*
X3891Y2512D01*
X4115Y2512D02*
X4191Y2512D01*
X3815Y2511D02*
X3891Y2511D01*
X4115Y2511D02*
X4191Y2511D01*
X3816Y2510D02*
X3891Y2510D01*
X4116Y2510D02*
X4191Y2510D01*
X3816Y2509D02*
X3890Y2509D01*
X4116Y2509D02*
X4190Y2509D01*
X3816Y2508D02*
X3890Y2508D01*
X4116Y2508D02*
X4190Y2508D01*
X3817Y2507D02*
X3890Y2507D01*
X4117Y2507D02*
X4190Y2507D01*
X3817Y2506D02*
X3889Y2506D01*
X4117Y2506D02*
X4189Y2506D01*
X3817Y2505D02*
X3889Y2505D01*
X4117Y2505D02*
X4189Y2505D01*
X3818Y2504D02*
X3888Y2504D01*
X4118Y2504D02*
X4188Y2504D01*
X3818Y2503D02*
X3888Y2503D01*
X4118Y2503D02*
X4188Y2503D01*
X3819Y2502D02*
X3887Y2502D01*
X4119Y2502D02*
X4187Y2502D01*
X3820Y2501D02*
X3887Y2501D01*
X4120Y2501D02*
X4187Y2501D01*
X3820Y2500D02*
X3886Y2500D01*
X4120Y2500D02*
X4186Y2500D01*
X3821Y2499D02*
X3885Y2499D01*
X4121Y2499D02*
X4185Y2499D01*
X3822Y2498D02*
X3885Y2498D01*
X4122Y2498D02*
X4185Y2498D01*
X3822Y2497D02*
X3884Y2497D01*
X4122Y2497D02*
X4184Y2497D01*
X3823Y2496D02*
X3883Y2496D01*
X4123Y2496D02*
X4183Y2496D01*
X3824Y2495D02*
X3882Y2495D01*
X4124Y2495D02*
X4182Y2495D01*
X3825Y2494D02*
X3881Y2494D01*
X4125Y2494D02*
X4181Y2494D01*
X3826Y2493D02*
X3880Y2493D01*
X4126Y2493D02*
X4180Y2493D01*
X3827Y2492D02*
X3879Y2492D01*
X4127Y2492D02*
X4179Y2492D01*
X3828Y2491D02*
X3878Y2491D01*
X4128Y2491D02*
X4178Y2491D01*
X3830Y2490D02*
X3877Y2490D01*
X4130Y2490D02*
X4177Y2490D01*
X3831Y2489D02*
X3875Y2489D01*
X4131Y2489D02*
X4175Y2489D01*
X3833Y2488D02*
X3874Y2488D01*
X4133Y2488D02*
X4174Y2488D01*
X3834Y2487D02*
X3872Y2487D01*
X4134Y2487D02*
X4172Y2487D01*
X3836Y2486D02*
X3870Y2486D01*
X4136Y2486D02*
X4170Y2486D01*
X3838Y2485D02*
X3868Y2485D01*
X4138Y2485D02*
X4168Y2485D01*
X3841Y2484D02*
X3865Y2484D01*
X4141Y2484D02*
X4165Y2484D01*
X3845Y2483D02*
X3861Y2483D01*
X4145Y2483D02*
X4161Y2483D01*
X3853Y2482D02*
X3853Y2482D01*
X4153Y2482D02*
X4153Y2482D01*
X3845Y2461D02*
X3861Y2461D01*
X4145Y2461D02*
X4161Y2461D01*
X3841Y2460D02*
X3865Y2460D01*
X4141Y2460D02*
X4165Y2460D01*
X3839Y2459D02*
X3868Y2459D01*
X4139Y2459D02*
X4168Y2459D01*
X3836Y2458D02*
X3870Y2458D01*
X4136Y2458D02*
X4170Y2458D01*
X3835Y2457D02*
X3872Y2457D01*
X4134Y2457D02*
X4172Y2457D01*
X3833Y2456D02*
X3873Y2456D01*
X4133Y2456D02*
X4173Y2456D01*
X3831Y2455D02*
X3875Y2455D01*
X4131Y2455D02*
X4175Y2455D01*
X3830Y2454D02*
X3876Y2454D01*
X4130Y2454D02*
X4176Y2454D01*
X3829Y2453D02*
X3878Y2453D01*
X4129Y2453D02*
X4178Y2453D01*
X3827Y2452D02*
X3879Y2452D01*
X4127Y2452D02*
X4179Y2452D01*
X3826Y2451D02*
X3880Y2451D01*
X4126Y2451D02*
X4180Y2451D01*
X3825Y2450D02*
X3881Y2450D01*
X4125Y2450D02*
X4181Y2450D01*
X3824Y2449D02*
X3882Y2449D01*
X4124Y2449D02*
X4182Y2449D01*
X3823Y2448D02*
X3883Y2448D01*
X4123Y2448D02*
X4183Y2448D01*
X3823Y2447D02*
X3884Y2447D01*
X4123Y2447D02*
X4184Y2447D01*
X3822Y2446D02*
X3885Y2446D01*
X4122Y2446D02*
X4184Y2446D01*
X3821Y2445D02*
X3885Y2445D01*
X4121Y2445D02*
X4185Y2445D01*
X3820Y2444D02*
X3886Y2444D01*
X4120Y2444D02*
X4186Y2444D01*
X3820Y2443D02*
X3887Y2443D01*
X4120Y2443D02*
X4187Y2443D01*
X3819Y2442D02*
X3887Y2442D01*
X4119Y2442D02*
X4187Y2442D01*
X3819Y2441D02*
X3888Y2441D01*
X4119Y2441D02*
X4188Y2441D01*
X3818Y2440D02*
X3888Y2440D01*
X4118Y2440D02*
X4188Y2440D01*
X3818Y2439D02*
X3889Y2439D01*
X4118Y2439D02*
X4189Y2439D01*
X3817Y2438D02*
X3889Y2438D01*
X4117Y2438D02*
X4189Y2438D01*
X3817Y2437D02*
X3890Y2437D01*
X4117Y2437D02*
X4190Y2437D01*
X3816Y2436D02*
X3890Y2436D01*
X4116Y2436D02*
X4190Y2436D01*
X3816Y2435D02*
X3890Y2435D01*
X4116Y2435D02*
X4190Y2435D01*
X3816Y2434D02*
X3891Y2434D01*
X4116Y2434D02*
X4191Y2434D01*
X3815Y2433D02*
X3891Y2433D01*
X4115Y2433D02*
X4191Y2433D01*
X3815Y2432D02*
X3891Y2432D01*
X4115Y2432D02*
X4191Y2432D01*
X3815Y2431D02*
X3892Y2431D01*
X4115Y2431D02*
X4192Y2431D01*
X3815Y2430D02*
X3892Y2430D01*
X4115Y2430D02*
X4192Y2430D01*
X3814Y2429D02*
X3892Y2429D01*
X4114Y2429D02*
X4192Y2429D01*
X3814Y2428D02*
X3892Y2428D01*
X4114Y2428D02*
X4192Y2428D01*
X3814Y2427D02*
X3892Y2427D01*
X4114Y2427D02*
X4192Y2427D01*
X3814Y2426D02*
X3892Y2426D01*
X4114Y2426D02*
X4192Y2426D01*
X3814Y2425D02*
X3892Y2425D01*
X4114Y2425D02*
X4192Y2425D01*
X3814Y2424D02*
X3893Y2424D01*
X4114Y2424D02*
X4193Y2424D01*
X3814Y2423D02*
X3893Y2423D01*
X4114Y2423D02*
X4193Y2423D01*
X3814Y2422D02*
X3893Y2422D01*
X4114Y2422D02*
X4193Y2422D01*
X3814Y2421D02*
X3893Y2421D01*
X4114Y2421D02*
X4193Y2421D01*
X3814Y2420D02*
X3893Y2420D01*
X4114Y2420D02*
X4193Y2420D01*
X3814Y2419D02*
X3892Y2419D01*
X4114Y2419D02*
X4192Y2419D01*
X3814Y2418D02*
X3892Y2418D01*
X4114Y2418D02*
X4192Y2418D01*
X3814Y2417D02*
X3892Y2417D01*
X4114Y2417D02*
X4192Y2417D01*
X3814Y2416D02*
X3892Y2416D01*
X4114Y2416D02*
X4192Y2416D01*
X3814Y2415D02*
X3892Y2415D01*
X4114Y2415D02*
X4192Y2415D01*
X3815Y2414D02*
X3892Y2414D01*
X4115Y2414D02*
X4192Y2414D01*
X3815Y2413D02*
X3892Y2413D01*
X4115Y2413D02*
X4192Y2413D01*
X3815Y2412D02*
X3891Y2412D01*
X4115Y2412D02*
X4191Y2412D01*
X3815Y2411D02*
X3891Y2411D01*
X4115Y2411D02*
X4191Y2411D01*
X3816Y2410D02*
X3891Y2410D01*
X4116Y2410D02*
X4191Y2410D01*
X3816Y2409D02*
X3890Y2409D01*
X4116Y2409D02*
X4190Y2409D01*
X3816Y2408D02*
X3890Y2408D01*
X4116Y2408D02*
X4190Y2408D01*
X3817Y2407D02*
X3890Y2407D01*
X4117Y2407D02*
X4190Y2407D01*
X3817Y2406D02*
X3889Y2406D01*
X4117Y2406D02*
X4189Y2406D01*
X3818Y2405D02*
X3889Y2405D01*
X4117Y2405D02*
X4189Y2405D01*
X3818Y2404D02*
X3888Y2404D01*
X4118Y2404D02*
X4188Y2404D01*
X3819Y2403D02*
X3888Y2403D01*
X4118Y2403D02*
X4188Y2403D01*
X3819Y2402D02*
X3887Y2402D01*
X4119Y2402D02*
X4187Y2402D01*
X3820Y2401D02*
X3887Y2401D01*
X4120Y2401D02*
X4187Y2401D01*
X3820Y2400D02*
X3886Y2400D01*
X4120Y2400D02*
X4186Y2400D01*
X3821Y2399D02*
X3885Y2399D01*
X4121Y2399D02*
X4185Y2399D01*
X3822Y2398D02*
X3885Y2398D01*
X4122Y2398D02*
X4185Y2398D01*
X3823Y2397D02*
X3884Y2397D01*
X4123Y2397D02*
X4184Y2397D01*
X3823Y2396D02*
X3883Y2396D01*
X4123Y2396D02*
X4183Y2396D01*
X3824Y2395D02*
X3882Y2395D01*
X4124Y2395D02*
X4182Y2395D01*
X3825Y2394D02*
X3881Y2394D01*
X4125Y2394D02*
X4181Y2394D01*
X3826Y2393D02*
X3880Y2393D01*
X4126Y2393D02*
X4180Y2393D01*
X3827Y2392D02*
X3879Y2392D01*
X4127Y2392D02*
X4179Y2392D01*
X3828Y2391D02*
X3878Y2391D01*
X4128Y2391D02*
X4178Y2391D01*
X3830Y2390D02*
X3877Y2390D01*
X4130Y2390D02*
X4177Y2390D01*
X3831Y2389D02*
X3875Y2389D01*
X4131Y2389D02*
X4175Y2389D01*
X3833Y2388D02*
X3874Y2388D01*
X4133Y2388D02*
X4174Y2388D01*
X3834Y2387D02*
X3872Y2387D01*
X4134Y2387D02*
X4172Y2387D01*
X3836Y2386D02*
X3870Y2386D01*
X4136Y2386D02*
X4170Y2386D01*
X3838Y2385D02*
X3868Y2385D01*
X4138Y2385D02*
X4168Y2385D01*
X3841Y2384D02*
X3865Y2384D01*
X4141Y2384D02*
X4165Y2384D01*
X3845Y2383D02*
X3861Y2383D01*
X4145Y2383D02*
X4161Y2383D01*
X3853Y2382D02*
X3853Y2382D01*
X4153Y2382D02*
X4153Y2382D01*
X3845Y2361D02*
X3861Y2361D01*
X4145Y2361D02*
X4161Y2361D01*
X3841Y2360D02*
X3865Y2360D01*
X4141Y2360D02*
X4165Y2360D01*
X3839Y2359D02*
X3868Y2359D01*
X4139Y2359D02*
X4168Y2359D01*
X3836Y2358D02*
X3870Y2358D01*
X4136Y2358D02*
X4170Y2358D01*
X3834Y2357D02*
X3872Y2357D01*
X4134Y2357D02*
X4172Y2357D01*
X3833Y2356D02*
X3874Y2356D01*
X4133Y2356D02*
X4174Y2356D01*
X3831Y2355D02*
X3875Y2355D01*
X4131Y2355D02*
X4175Y2355D01*
X3830Y2354D02*
X3876Y2354D01*
X4130Y2354D02*
X4176Y2354D01*
X3829Y2353D02*
X3878Y2353D01*
X4129Y2353D02*
X4178Y2353D01*
X3827Y2352D02*
X3879Y2352D01*
X4127Y2352D02*
X4179Y2352D01*
X3826Y2351D02*
X3880Y2351D01*
X4126Y2351D02*
X4180Y2351D01*
X3825Y2350D02*
X3881Y2350D01*
X4125Y2350D02*
X4181Y2350D01*
X3824Y2349D02*
X3882Y2349D01*
X4124Y2349D02*
X4182Y2349D01*
X3823Y2348D02*
X3883Y2348D01*
X4123Y2348D02*
X4183Y2348D01*
X3823Y2347D02*
X3884Y2347D01*
X4123Y2347D02*
X4184Y2347D01*
X3822Y2346D02*
X3885Y2346D01*
X4122Y2346D02*
X4185Y2346D01*
X3821Y2345D02*
X3885Y2345D01*
X4121Y2345D02*
X4185Y2345D01*
X3820Y2344D02*
X3886Y2344D01*
X4120Y2344D02*
X4186Y2344D01*
X3820Y2343D02*
X3887Y2343D01*
X4120Y2343D02*
X4187Y2343D01*
X3819Y2342D02*
X3887Y2342D01*
X4119Y2342D02*
X4187Y2342D01*
X3819Y2341D02*
X3888Y2341D01*
X4119Y2341D02*
X4188Y2341D01*
X3818Y2340D02*
X3888Y2340D01*
X4118Y2340D02*
X4188Y2340D01*
X3818Y2339D02*
X3889Y2339D01*
X4118Y2339D02*
X4189Y2339D01*
X3817Y2338D02*
X3889Y2338D01*
X4117Y2338D02*
X4189Y2338D01*
X3817Y2337D02*
X3890Y2337D01*
X4117Y2337D02*
X4190Y2337D01*
X3816Y2336D02*
X3890Y2336D01*
X4116Y2336D02*
X4190Y2336D01*
X3816Y2335D02*
X3890Y2335D01*
X4116Y2335D02*
X4190Y2335D01*
X3816Y2334D02*
X3891Y2334D01*
X4116Y2334D02*
X4191Y2334D01*
X3815Y2333D02*
X3891Y2333D01*
X4115Y2333D02*
X4191Y2333D01*
X3815Y2332D02*
X3891Y2332D01*
X4115Y2332D02*
X4191Y2332D01*
X3815Y2331D02*
X3892Y2331D01*
X4115Y2331D02*
X4192Y2331D01*
X3815Y2330D02*
X3892Y2330D01*
X4115Y2330D02*
X4192Y2330D01*
X3814Y2329D02*
X3892Y2329D01*
X4114Y2329D02*
X4192Y2329D01*
X3814Y2328D02*
X3892Y2328D01*
X4114Y2328D02*
X4192Y2328D01*
X3814Y2327D02*
X3892Y2327D01*
X4114Y2327D02*
X4192Y2327D01*
X3814Y2326D02*
X3892Y2326D01*
X4114Y2326D02*
X4192Y2326D01*
X3814Y2325D02*
X3892Y2325D01*
X4114Y2325D02*
X4192Y2325D01*
X3814Y2324D02*
X3893Y2324D01*
X4114Y2324D02*
X4193Y2324D01*
X3814Y2323D02*
X3893Y2323D01*
X4114Y2323D02*
X4193Y2323D01*
X3814Y2322D02*
X3893Y2322D01*
X4114Y2322D02*
X4193Y2322D01*
X3814Y2321D02*
X3893Y2321D01*
X4114Y2321D02*
X4193Y2321D01*
X3814Y2320D02*
X3893Y2320D01*
X4114Y2320D02*
X4193Y2320D01*
X3814Y2319D02*
X3892Y2319D01*
X4114Y2319D02*
X4192Y2319D01*
X3814Y2318D02*
X3892Y2318D01*
X4114Y2318D02*
X4192Y2318D01*
X3814Y2317D02*
X3892Y2317D01*
X4114Y2317D02*
X4192Y2317D01*
X3814Y2316D02*
X3892Y2316D01*
X4114Y2316D02*
X4192Y2316D01*
X3814Y2315D02*
X3892Y2315D01*
X4114Y2315D02*
X4192Y2315D01*
X3815Y2314D02*
X3892Y2314D01*
X4115Y2314D02*
X4192Y2314D01*
X3815Y2313D02*
X3892Y2313D01*
X4115Y2313D02*
X4192Y2313D01*
X3815Y2312D02*
X3891Y2312D01*
X4115Y2312D02*
X4191Y2312D01*
X3815Y2311D02*
X3891Y2311D01*
X4115Y2311D02*
X4191Y2311D01*
X3816Y2310D02*
X3891Y2310D01*
X4116Y2310D02*
X4191Y2310D01*
X3816Y2309D02*
X3890Y2309D01*
X4116Y2309D02*
X4190Y2309D01*
X3816Y2308D02*
X3890Y2308D01*
X4116Y2308D02*
X4190Y2308D01*
X3817Y2307D02*
X3890Y2307D01*
X4117Y2307D02*
X4190Y2307D01*
X3817Y2306D02*
X3889Y2306D01*
X4117Y2306D02*
X4189Y2306D01*
X3818Y2305D02*
X3889Y2305D01*
X4118Y2305D02*
X4189Y2305D01*
X3818Y2304D02*
X3888Y2304D01*
X4118Y2304D02*
X4188Y2304D01*
X3819Y2303D02*
X3888Y2303D01*
X4119Y2303D02*
X4188Y2303D01*
X3819Y2302D02*
X3887Y2302D01*
X4119Y2302D02*
X4187Y2302D01*
X3820Y2301D02*
X3887Y2301D01*
X4120Y2301D02*
X4187Y2301D01*
X3820Y2300D02*
X3886Y2300D01*
X4120Y2300D02*
X4186Y2300D01*
X3821Y2299D02*
X3885Y2299D01*
X4121Y2299D02*
X4185Y2299D01*
X3822Y2298D02*
X3885Y2298D01*
X4122Y2298D02*
X4185Y2298D01*
X3823Y2297D02*
X3884Y2297D01*
X4123Y2297D02*
X4184Y2297D01*
X3823Y2296D02*
X3883Y2296D01*
X4123Y2296D02*
X4183Y2296D01*
X3824Y2295D02*
X3882Y2295D01*
X4124Y2295D02*
X4182Y2295D01*
X3825Y2294D02*
X3881Y2294D01*
X4125Y2294D02*
X4181Y2294D01*
X3826Y2293D02*
X3880Y2293D01*
X4126Y2293D02*
X4180Y2293D01*
X3827Y2292D02*
X3879Y2292D01*
X4127Y2292D02*
X4179Y2292D01*
X3828Y2291D02*
X3878Y2291D01*
X4128Y2291D02*
X4178Y2291D01*
X3830Y2290D02*
X3876Y2290D01*
X4130Y2290D02*
X4176Y2290D01*
X3831Y2289D02*
X3875Y2289D01*
X4131Y2289D02*
X4175Y2289D01*
X3833Y2288D02*
X3874Y2288D01*
X4133Y2288D02*
X4174Y2288D01*
X3834Y2287D02*
X3872Y2287D01*
X4134Y2287D02*
X4172Y2287D01*
X3836Y2286D02*
X3870Y2286D01*
X4136Y2286D02*
X4170Y2286D01*
X3839Y2285D02*
X3868Y2285D01*
X4139Y2285D02*
X4168Y2285D01*
X3841Y2284D02*
X3865Y2284D01*
X4141Y2284D02*
X4165Y2284D01*
X3845Y2283D02*
X3861Y2283D01*
X4145Y2283D02*
X4161Y2283D01*
X3853Y2262D02*
X3853Y2262D01*
X4153Y2262D02*
X4153Y2262D01*
X3845Y2261D02*
X3861Y2261D01*
X4145Y2261D02*
X4161Y2261D01*
X3841Y2260D02*
X3865Y2260D01*
X4141Y2260D02*
X4165Y2260D01*
X3838Y2259D02*
X3868Y2259D01*
X4138Y2259D02*
X4168Y2259D01*
X3836Y2258D02*
X3870Y2258D01*
X4136Y2258D02*
X4170Y2258D01*
X3834Y2257D02*
X3872Y2257D01*
X4134Y2257D02*
X4172Y2257D01*
X3833Y2256D02*
X3874Y2256D01*
X4133Y2256D02*
X4174Y2256D01*
X3831Y2255D02*
X3875Y2255D01*
X4131Y2255D02*
X4175Y2255D01*
X3830Y2254D02*
X3877Y2254D01*
X4130Y2254D02*
X4177Y2254D01*
X3828Y2253D02*
X3878Y2253D01*
X4128Y2253D02*
X4178Y2253D01*
X3827Y2252D02*
X3879Y2252D01*
X4127Y2252D02*
X4179Y2252D01*
X3826Y2251D02*
X3880Y2251D01*
X4126Y2251D02*
X4180Y2251D01*
X3825Y2250D02*
X3881Y2250D01*
X4125Y2250D02*
X4181Y2250D01*
X3824Y2249D02*
X3882Y2249D01*
X4124Y2249D02*
X4182Y2249D01*
X3823Y2248D02*
X3883Y2248D01*
X4123Y2248D02*
X4183Y2248D01*
X3823Y2247D02*
X3884Y2247D01*
X4123Y2247D02*
X4184Y2247D01*
X3822Y2246D02*
X3885Y2246D01*
X4122Y2246D02*
X4185Y2246D01*
X3821Y2245D02*
X3885Y2245D01*
X4121Y2245D02*
X4185Y2245D01*
X3820Y2244D02*
X3886Y2244D01*
X4120Y2244D02*
X4186Y2244D01*
X3820Y2243D02*
X3887Y2243D01*
X4120Y2243D02*
X4187Y2243D01*
X3819Y2242D02*
X3887Y2242D01*
X4119Y2242D02*
X4187Y2242D01*
X3819Y2241D02*
X3888Y2241D01*
X4119Y2241D02*
X4188Y2241D01*
X3818Y2240D02*
X3888Y2240D01*
X4118Y2240D02*
X4188Y2240D01*
X3818Y2239D02*
X3889Y2239D01*
X4118Y2239D02*
X4189Y2239D01*
X3817Y2238D02*
X3889Y2238D01*
X4117Y2238D02*
X4189Y2238D01*
X3817Y2237D02*
X3890Y2237D01*
X4117Y2237D02*
X4190Y2237D01*
X3816Y2236D02*
X3890Y2236D01*
X4116Y2236D02*
X4190Y2236D01*
X3816Y2235D02*
X3890Y2235D01*
X4116Y2235D02*
X4190Y2235D01*
X3816Y2234D02*
X3891Y2234D01*
X4116Y2234D02*
X4191Y2234D01*
X3815Y2233D02*
X3891Y2233D01*
X4115Y2233D02*
X4191Y2233D01*
X3815Y2232D02*
X3891Y2232D01*
X4115Y2232D02*
X4191Y2232D01*
X3815Y2231D02*
X3892Y2231D01*
X4115Y2231D02*
X4192Y2231D01*
X3815Y2230D02*
X3892Y2230D01*
X4115Y2230D02*
X4192Y2230D01*
X3814Y2229D02*
X3892Y2229D01*
X4114Y2229D02*
X4192Y2229D01*
X3814Y2228D02*
X3892Y2228D01*
X4114Y2228D02*
X4192Y2228D01*
X3814Y2227D02*
X3892Y2227D01*
X4114Y2227D02*
X4192Y2227D01*
X3814Y2226D02*
X3892Y2226D01*
X4114Y2226D02*
X4192Y2226D01*
X3814Y2225D02*
X3892Y2225D01*
X4114Y2225D02*
X4192Y2225D01*
X3814Y2224D02*
X3893Y2224D01*
X4114Y2224D02*
X4193Y2224D01*
X3814Y2223D02*
X3893Y2223D01*
X4114Y2223D02*
X4193Y2223D01*
X3814Y2222D02*
X3893Y2222D01*
X4114Y2222D02*
X4193Y2222D01*
X3814Y2221D02*
X3893Y2221D01*
X4114Y2221D02*
X4193Y2221D01*
X3814Y2220D02*
X3893Y2220D01*
X4114Y2220D02*
X4193Y2220D01*
X3814Y2219D02*
X3892Y2219D01*
X4114Y2219D02*
X4192Y2219D01*
X3814Y2218D02*
X3892Y2218D01*
X4114Y2218D02*
X4192Y2218D01*
X3814Y2217D02*
X3892Y2217D01*
X4114Y2217D02*
X4192Y2217D01*
X3814Y2216D02*
X3892Y2216D01*
X4114Y2216D02*
X4192Y2216D01*
X3814Y2215D02*
X3892Y2215D01*
X4114Y2215D02*
X4192Y2215D01*
X3815Y2214D02*
X3892Y2214D01*
X4115Y2214D02*
X4192Y2214D01*
X3815Y2213D02*
X3892Y2213D01*
X4115Y2213D02*
X4192Y2213D01*
X3815Y2212D02*
X3891Y2212D01*
X4115Y2212D02*
X4191Y2212D01*
X3815Y2211D02*
X3891Y2211D01*
X4115Y2211D02*
X4191Y2211D01*
X3816Y2210D02*
X3891Y2210D01*
X4116Y2210D02*
X4191Y2210D01*
X3816Y2209D02*
X3890Y2209D01*
X4116Y2209D02*
X4190Y2209D01*
X3816Y2208D02*
X3890Y2208D01*
X4116Y2208D02*
X4190Y2208D01*
X3817Y2207D02*
X3890Y2207D01*
X4117Y2207D02*
X4190Y2207D01*
X3817Y2206D02*
X3889Y2206D01*
X4117Y2206D02*
X4189Y2206D01*
X3818Y2205D02*
X3889Y2205D01*
X4118Y2205D02*
X4189Y2205D01*
X3818Y2204D02*
X3888Y2204D01*
X4118Y2204D02*
X4188Y2204D01*
X3819Y2203D02*
X3888Y2203D01*
X4119Y2203D02*
X4188Y2203D01*
X3819Y2202D02*
X3887Y2202D01*
X4119Y2202D02*
X4187Y2202D01*
X3820Y2201D02*
X3887Y2201D01*
X4120Y2201D02*
X4187Y2201D01*
X3820Y2200D02*
X3886Y2200D01*
X4120Y2200D02*
X4186Y2200D01*
X3821Y2199D02*
X3885Y2199D01*
X4121Y2199D02*
X4185Y2199D01*
X3822Y2198D02*
X3885Y2198D01*
X4122Y2198D02*
X4185Y2198D01*
X3823Y2197D02*
X3884Y2197D01*
X4123Y2197D02*
X4184Y2197D01*
X3823Y2196D02*
X3883Y2196D01*
X4123Y2196D02*
X4183Y2196D01*
X3824Y2195D02*
X3882Y2195D01*
X4124Y2195D02*
X4182Y2195D01*
X3825Y2194D02*
X3881Y2194D01*
X4125Y2194D02*
X4181Y2194D01*
X3826Y2193D02*
X3880Y2193D01*
X4126Y2193D02*
X4180Y2193D01*
X3827Y2192D02*
X3879Y2192D01*
X4127Y2192D02*
X4179Y2192D01*
X3829Y2191D02*
X3878Y2191D01*
X4129Y2191D02*
X4178Y2191D01*
X3830Y2190D02*
X3876Y2190D01*
X4130Y2190D02*
X4176Y2190D01*
X3831Y2189D02*
X3875Y2189D01*
X4131Y2189D02*
X4175Y2189D01*
X3833Y2188D02*
X3873Y2188D01*
X4133Y2188D02*
X4173Y2188D01*
X3834Y2187D02*
X3872Y2187D01*
X4134Y2187D02*
X4172Y2187D01*
X3836Y2186D02*
X3870Y2186D01*
X4136Y2186D02*
X4170Y2186D01*
X3839Y2185D02*
X3868Y2185D01*
X4139Y2185D02*
X4168Y2185D01*
X3841Y2184D02*
X3865Y2184D01*
X4141Y2184D02*
X4165Y2184D01*
X3845Y2183D02*
X3861Y2183D01*
X4145Y2183D02*
X4161Y2183D01*
X3853Y2162D02*
X3853Y2162D01*
X4153Y2162D02*
X4153Y2162D01*
X3845Y2161D02*
X3861Y2161D01*
X4145Y2161D02*
X4161Y2161D01*
X3841Y2160D02*
X3865Y2160D01*
X4141Y2160D02*
X4165Y2160D01*
X3838Y2159D02*
X3868Y2159D01*
X4138Y2159D02*
X4168Y2159D01*
X3836Y2158D02*
X3870Y2158D01*
X4136Y2158D02*
X4170Y2158D01*
X3834Y2157D02*
X3872Y2157D01*
X4134Y2157D02*
X4172Y2157D01*
X3833Y2156D02*
X3874Y2156D01*
X4133Y2156D02*
X4174Y2156D01*
X3831Y2155D02*
X3875Y2155D01*
X4131Y2155D02*
X4175Y2155D01*
X3830Y2154D02*
X3877Y2154D01*
X4130Y2154D02*
X4177Y2154D01*
X3828Y2153D02*
X3878Y2153D01*
X4128Y2153D02*
X4178Y2153D01*
X3827Y2152D02*
X3879Y2152D01*
X4127Y2152D02*
X4179Y2152D01*
X3826Y2151D02*
X3880Y2151D01*
X4126Y2151D02*
X4180Y2151D01*
X3825Y2150D02*
X3881Y2150D01*
X4125Y2150D02*
X4181Y2150D01*
X3824Y2149D02*
X3882Y2149D01*
X4124Y2149D02*
X4182Y2149D01*
X3823Y2148D02*
X3883Y2148D01*
X4123Y2148D02*
X4183Y2148D01*
X3823Y2147D02*
X3884Y2147D01*
X4122Y2147D02*
X4184Y2147D01*
X3822Y2146D02*
X3885Y2146D01*
X4122Y2146D02*
X4185Y2146D01*
X3821Y2145D02*
X3885Y2145D01*
X4121Y2145D02*
X4185Y2145D01*
X3820Y2144D02*
X3886Y2144D01*
X4120Y2144D02*
X4186Y2144D01*
X3820Y2143D02*
X3887Y2143D01*
X4120Y2143D02*
X4187Y2143D01*
X3819Y2142D02*
X3887Y2142D01*
X4119Y2142D02*
X4187Y2142D01*
X3819Y2141D02*
X3888Y2141D01*
X4118Y2141D02*
X4188Y2141D01*
X3818Y2140D02*
X3888Y2140D01*
X4118Y2140D02*
X4188Y2140D01*
X3818Y2139D02*
X3889Y2139D01*
X4117Y2139D02*
X4189Y2139D01*
X3817Y2138D02*
X3889Y2138D01*
X4117Y2138D02*
X4189Y2138D01*
X3817Y2137D02*
X3890Y2137D01*
X4117Y2137D02*
X4190Y2137D01*
X3816Y2136D02*
X3890Y2136D01*
X4116Y2136D02*
X4190Y2136D01*
X3816Y2135D02*
X3890Y2135D01*
X4116Y2135D02*
X4190Y2135D01*
X3816Y2134D02*
X3891Y2134D01*
X4116Y2134D02*
X4191Y2134D01*
X3815Y2133D02*
X3891Y2133D01*
X4115Y2133D02*
X4191Y2133D01*
X3815Y2132D02*
X3891Y2132D01*
X4115Y2132D02*
X4191Y2132D01*
X3815Y2131D02*
X3892Y2131D01*
X4115Y2131D02*
X4192Y2131D01*
X3815Y2130D02*
X3892Y2130D01*
X4115Y2130D02*
X4192Y2130D01*
X3814Y2129D02*
X3892Y2129D01*
X4114Y2129D02*
X4192Y2129D01*
X3814Y2128D02*
X3892Y2128D01*
X4114Y2128D02*
X4192Y2128D01*
X3814Y2127D02*
X3892Y2127D01*
X4114Y2127D02*
X4192Y2127D01*
X3814Y2126D02*
X3892Y2126D01*
X4114Y2126D02*
X4192Y2126D01*
X3814Y2125D02*
X3892Y2125D01*
X4114Y2125D02*
X4192Y2125D01*
X3814Y2124D02*
X3893Y2124D01*
X4114Y2124D02*
X4193Y2124D01*
X3814Y2123D02*
X3893Y2123D01*
X4114Y2123D02*
X4193Y2123D01*
X3814Y2122D02*
X3893Y2122D01*
X4114Y2122D02*
X4193Y2122D01*
X3814Y2121D02*
X3893Y2121D01*
X4114Y2121D02*
X4193Y2121D01*
X3814Y2120D02*
X3893Y2120D01*
X4114Y2120D02*
X4193Y2120D01*
X3814Y2119D02*
X3892Y2119D01*
X4114Y2119D02*
X4192Y2119D01*
X3814Y2118D02*
X3892Y2118D01*
X4114Y2118D02*
X4192Y2118D01*
X3814Y2117D02*
X3892Y2117D01*
X4114Y2117D02*
X4192Y2117D01*
X3814Y2116D02*
X3892Y2116D01*
X4114Y2116D02*
X4192Y2116D01*
X3814Y2115D02*
X3892Y2115D01*
X4114Y2115D02*
X4192Y2115D01*
X3815Y2114D02*
X3892Y2114D01*
X4115Y2114D02*
X4192Y2114D01*
X3815Y2113D02*
X3892Y2113D01*
X4115Y2113D02*
X4192Y2113D01*
X3815Y2112D02*
X3891Y2112D01*
X4115Y2112D02*
X4191Y2112D01*
X3815Y2111D02*
X3891Y2111D01*
X4115Y2111D02*
X4191Y2111D01*
X3816Y2110D02*
X3891Y2110D01*
X4116Y2110D02*
X4191Y2110D01*
X3816Y2109D02*
X3890Y2109D01*
X4116Y2109D02*
X4190Y2109D01*
X3816Y2108D02*
X3890Y2108D01*
X4116Y2108D02*
X4190Y2108D01*
X3817Y2107D02*
X3890Y2107D01*
X4117Y2107D02*
X4190Y2107D01*
X3817Y2106D02*
X3889Y2106D01*
X4117Y2106D02*
X4189Y2106D01*
X3818Y2105D02*
X3889Y2105D01*
X4118Y2105D02*
X4189Y2105D01*
X3818Y2104D02*
X3888Y2104D01*
X4118Y2104D02*
X4188Y2104D01*
X3819Y2103D02*
X3888Y2103D01*
X4119Y2103D02*
X4188Y2103D01*
X3819Y2102D02*
X3887Y2102D01*
X4119Y2102D02*
X4187Y2102D01*
X3820Y2101D02*
X3887Y2101D01*
X4120Y2101D02*
X4187Y2101D01*
X3820Y2100D02*
X3886Y2100D01*
X4120Y2100D02*
X4186Y2100D01*
X3821Y2099D02*
X3885Y2099D01*
X4121Y2099D02*
X4185Y2099D01*
X3822Y2098D02*
X3885Y2098D01*
X4122Y2098D02*
X4184Y2098D01*
X3823Y2097D02*
X3884Y2097D01*
X4123Y2097D02*
X4184Y2097D01*
X3823Y2096D02*
X3883Y2096D01*
X4123Y2096D02*
X4183Y2096D01*
X3824Y2095D02*
X3882Y2095D01*
X4124Y2095D02*
X4182Y2095D01*
X3825Y2094D02*
X3881Y2094D01*
X4125Y2094D02*
X4181Y2094D01*
X3826Y2093D02*
X3880Y2093D01*
X4126Y2093D02*
X4180Y2093D01*
X3827Y2092D02*
X3879Y2092D01*
X4127Y2092D02*
X4179Y2092D01*
X3829Y2091D02*
X3878Y2091D01*
X4129Y2091D02*
X4178Y2091D01*
X3830Y2090D02*
X3876Y2090D01*
X4130Y2090D02*
X4176Y2090D01*
X3831Y2089D02*
X3875Y2089D01*
X4131Y2089D02*
X4175Y2089D01*
X3833Y2088D02*
X3873Y2088D01*
X4133Y2088D02*
X4173Y2088D01*
X3835Y2087D02*
X3872Y2087D01*
X4134Y2087D02*
X4172Y2087D01*
X3836Y2086D02*
X3870Y2086D01*
X4136Y2086D02*
X4170Y2086D01*
X3839Y2085D02*
X3868Y2085D01*
X4139Y2085D02*
X4168Y2085D01*
X3842Y2084D02*
X3865Y2084D01*
X4142Y2084D02*
X4165Y2084D01*
X3845Y2083D02*
X3861Y2083D01*
X4145Y2083D02*
X4161Y2083D01*
X3853Y2062D02*
X3854Y2062D01*
X4153Y2062D02*
X4154Y2062D01*
X3845Y2061D02*
X3861Y2061D01*
X4145Y2061D02*
X4161Y2061D01*
X3841Y2060D02*
X3865Y2060D01*
X4141Y2060D02*
X4165Y2060D01*
X3838Y2059D02*
X3868Y2059D01*
X4138Y2059D02*
X4168Y2059D01*
X3836Y2058D02*
X3870Y2058D01*
X4136Y2058D02*
X4170Y2058D01*
X3834Y2057D02*
X3872Y2057D01*
X4134Y2057D02*
X4172Y2057D01*
X3833Y2056D02*
X3874Y2056D01*
X4133Y2056D02*
X4174Y2056D01*
X3831Y2055D02*
X3875Y2055D01*
X4131Y2055D02*
X4175Y2055D01*
X3830Y2054D02*
X3877Y2054D01*
X4130Y2054D02*
X4177Y2054D01*
X3828Y2053D02*
X3878Y2053D01*
X4128Y2053D02*
X4178Y2053D01*
X3827Y2052D02*
X3879Y2052D01*
X4127Y2052D02*
X4179Y2052D01*
X3826Y2051D02*
X3880Y2051D01*
X4126Y2051D02*
X4180Y2051D01*
X3825Y2050D02*
X3881Y2050D01*
X4125Y2050D02*
X4181Y2050D01*
X3824Y2049D02*
X3882Y2049D01*
X4124Y2049D02*
X4182Y2049D01*
X3823Y2048D02*
X3883Y2048D01*
X4123Y2048D02*
X4183Y2048D01*
X3822Y2047D02*
X3884Y2047D01*
X4122Y2047D02*
X4184Y2047D01*
X3822Y2046D02*
X3885Y2046D01*
X4122Y2046D02*
X4185Y2046D01*
X3821Y2045D02*
X3885Y2045D01*
X4121Y2045D02*
X4185Y2045D01*
X3820Y2044D02*
X3886Y2044D01*
X4120Y2044D02*
X4186Y2044D01*
X3820Y2043D02*
X3887Y2043D01*
X4120Y2043D02*
X4187Y2043D01*
X3819Y2042D02*
X3887Y2042D01*
X4119Y2042D02*
X4187Y2042D01*
X3818Y2041D02*
X3888Y2041D01*
X4118Y2041D02*
X4188Y2041D01*
X3818Y2040D02*
X3888Y2040D01*
X4118Y2040D02*
X4188Y2040D01*
X3817Y2039D02*
X3889Y2039D01*
X4117Y2039D02*
X4189Y2039D01*
X3817Y2038D02*
X3889Y2038D01*
X4117Y2038D02*
X4189Y2038D01*
X3817Y2037D02*
X3890Y2037D01*
X4117Y2037D02*
X4190Y2037D01*
X3816Y2036D02*
X3890Y2036D01*
X4116Y2036D02*
X4190Y2036D01*
X3816Y2035D02*
X3890Y2035D01*
X4116Y2035D02*
X4190Y2035D01*
X3816Y2034D02*
X3891Y2034D01*
X4116Y2034D02*
X4191Y2034D01*
X3815Y2033D02*
X3891Y2033D01*
X4115Y2033D02*
X4191Y2033D01*
X3815Y2032D02*
X3891Y2032D01*
X4115Y2032D02*
X4191Y2032D01*
X3815Y2031D02*
X3892Y2031D01*
X4115Y2031D02*
X4192Y2031D01*
X3815Y2030D02*
X3892Y2030D01*
X4115Y2030D02*
X4192Y2030D01*
X3814Y2029D02*
X3892Y2029D01*
X4114Y2029D02*
X4192Y2029D01*
X3814Y2028D02*
X3892Y2028D01*
X4114Y2028D02*
X4192Y2028D01*
X3814Y2027D02*
X3892Y2027D01*
X4114Y2027D02*
X4192Y2027D01*
X3814Y2026D02*
X3892Y2026D01*
X4114Y2026D02*
X4192Y2026D01*
X3814Y2025D02*
X3893Y2025D01*
X4114Y2025D02*
X4192Y2025D01*
X3814Y2024D02*
X3893Y2024D01*
X4114Y2024D02*
X4193Y2024D01*
X3814Y2023D02*
X3893Y2023D01*
X4114Y2023D02*
X4193Y2023D01*
X3814Y2022D02*
X3893Y2022D01*
X4114Y2022D02*
X4193Y2022D01*
X3814Y2021D02*
X3893Y2021D01*
X4114Y2021D02*
X4193Y2021D01*
X3814Y2020D02*
X3893Y2020D01*
X4114Y2020D02*
X4193Y2020D01*
X3814Y2019D02*
X3892Y2019D01*
X4114Y2019D02*
X4192Y2019D01*
X3814Y2018D02*
X3892Y2018D01*
X4114Y2018D02*
X4192Y2018D01*
X3814Y2017D02*
X3892Y2017D01*
X4114Y2017D02*
X4192Y2017D01*
X3814Y2016D02*
X3892Y2016D01*
X4114Y2016D02*
X4192Y2016D01*
X3814Y2015D02*
X3892Y2015D01*
X4114Y2015D02*
X4192Y2015D01*
X3815Y2014D02*
X3892Y2014D01*
X4115Y2014D02*
X4192Y2014D01*
X3815Y2013D02*
X3892Y2013D01*
X4115Y2013D02*
X4192Y2013D01*
X3815Y2012D02*
X3891Y2012D01*
X4115Y2012D02*
X4191Y2012D01*
X3815Y2011D02*
X3891Y2011D01*
X4115Y2011D02*
X4191Y2011D01*
X3816Y2010D02*
X3891Y2010D01*
X4116Y2010D02*
X4191Y2010D01*
X3816Y2009D02*
X3890Y2009D01*
X4116Y2009D02*
X4190Y2009D01*
X3816Y2008D02*
X3890Y2008D01*
X4116Y2008D02*
X4190Y2008D01*
X3817Y2007D02*
X3890Y2007D01*
X4117Y2007D02*
X4190Y2007D01*
X3817Y2006D02*
X3889Y2006D01*
X4117Y2006D02*
X4189Y2006D01*
X3818Y2005D02*
X3889Y2005D01*
X4118Y2005D02*
X4189Y2005D01*
X3818Y2004D02*
X3888Y2004D01*
X4118Y2004D02*
X4188Y2004D01*
X3819Y2003D02*
X3888Y2003D01*
X4119Y2003D02*
X4188Y2003D01*
X3819Y2002D02*
X3887Y2002D01*
X4119Y2002D02*
X4187Y2002D01*
X3820Y2001D02*
X3887Y2001D01*
X4120Y2001D02*
X4187Y2001D01*
X3820Y2000D02*
X3886Y2000D01*
X4120Y2000D02*
X4186Y2000D01*
X3821Y1999D02*
X3885Y1999D01*
X4121Y1999D02*
X4185Y1999D01*
X3822Y1998D02*
X3884Y1998D01*
X4122Y1998D02*
X4184Y1998D01*
X3823Y1997D02*
X3884Y1997D01*
X4123Y1997D02*
X4184Y1997D01*
X3823Y1996D02*
X3883Y1996D01*
X4123Y1996D02*
X4183Y1996D01*
X3824Y1995D02*
X3882Y1995D01*
X4124Y1995D02*
X4182Y1995D01*
X3825Y1994D02*
X3881Y1994D01*
X4125Y1994D02*
X4181Y1994D01*
X3826Y1993D02*
X3880Y1993D01*
X4126Y1993D02*
X4180Y1993D01*
X3827Y1992D02*
X3879Y1992D01*
X4127Y1992D02*
X4179Y1992D01*
X3829Y1991D02*
X3878Y1991D01*
X4129Y1991D02*
X4178Y1991D01*
X3830Y1990D02*
X3876Y1990D01*
X4130Y1990D02*
X4176Y1990D01*
X3831Y1989D02*
X3875Y1989D01*
X4131Y1989D02*
X4175Y1989D01*
X3833Y1988D02*
X3873Y1988D01*
X4133Y1988D02*
X4173Y1988D01*
X3835Y1987D02*
X3872Y1987D01*
X4135Y1987D02*
X4172Y1987D01*
X3837Y1986D02*
X3870Y1986D01*
X4137Y1986D02*
X4170Y1986D01*
X3839Y1985D02*
X3868Y1985D01*
X4139Y1985D02*
X4168Y1985D01*
X3842Y1984D02*
X3865Y1984D01*
X4142Y1984D02*
X4165Y1984D01*
X3846Y1983D02*
X3861Y1983D01*
X4146Y1983D02*
X4161Y1983D01*
X3852Y1962D02*
X3854Y1962D01*
X4152Y1962D02*
X4154Y1962D01*
X3845Y1961D02*
X3862Y1961D01*
X4145Y1961D02*
X4162Y1961D01*
X3841Y1960D02*
X3865Y1960D01*
X4141Y1960D02*
X4165Y1960D01*
X3838Y1959D02*
X3868Y1959D01*
X4138Y1959D02*
X4168Y1959D01*
X3836Y1958D02*
X3870Y1958D01*
X4136Y1958D02*
X4170Y1958D01*
X3834Y1957D02*
X3872Y1957D01*
X4134Y1957D02*
X4172Y1957D01*
X3833Y1956D02*
X3874Y1956D01*
X4133Y1956D02*
X4174Y1956D01*
X3831Y1955D02*
X3875Y1955D01*
X4131Y1955D02*
X4175Y1955D01*
X3830Y1954D02*
X3877Y1954D01*
X4130Y1954D02*
X4177Y1954D01*
X3828Y1953D02*
X3878Y1953D01*
X4128Y1953D02*
X4178Y1953D01*
X3827Y1952D02*
X3879Y1952D01*
X4127Y1952D02*
X4179Y1952D01*
X3826Y1951D02*
X3880Y1951D01*
X4126Y1951D02*
X4180Y1951D01*
X3825Y1950D02*
X3881Y1950D01*
X4125Y1950D02*
X4181Y1950D01*
X3824Y1949D02*
X3882Y1949D01*
X4124Y1949D02*
X4182Y1949D01*
X3823Y1948D02*
X3883Y1948D01*
X4123Y1948D02*
X4183Y1948D01*
X3822Y1947D02*
X3884Y1947D01*
X4122Y1947D02*
X4184Y1947D01*
X3822Y1946D02*
X3885Y1946D01*
X4122Y1946D02*
X4185Y1946D01*
X3821Y1945D02*
X3885Y1945D01*
X4121Y1945D02*
X4185Y1945D01*
X3820Y1944D02*
X3886Y1944D01*
X4120Y1944D02*
X4186Y1944D01*
X3820Y1943D02*
X3887Y1943D01*
X4120Y1943D02*
X4187Y1943D01*
X3819Y1942D02*
X3887Y1942D01*
X4119Y1942D02*
X4187Y1942D01*
X3818Y1941D02*
X3888Y1941D01*
X4118Y1941D02*
X4188Y1941D01*
X3818Y1940D02*
X3888Y1940D01*
X4118Y1940D02*
X4188Y1940D01*
X3817Y1939D02*
X3889Y1939D01*
X4117Y1939D02*
X4189Y1939D01*
X3817Y1938D02*
X3889Y1938D01*
X4117Y1938D02*
X4189Y1938D01*
X3817Y1937D02*
X3890Y1937D01*
X4117Y1937D02*
X4190Y1937D01*
X3816Y1936D02*
X3890Y1936D01*
X4116Y1936D02*
X4190Y1936D01*
X3816Y1935D02*
X3890Y1935D01*
X4116Y1935D02*
X4190Y1935D01*
X3816Y1934D02*
X3891Y1934D01*
X4116Y1934D02*
X4191Y1934D01*
X3815Y1933D02*
X3891Y1933D01*
X4115Y1933D02*
X4191Y1933D01*
X3815Y1932D02*
X3891Y1932D01*
X4115Y1932D02*
X4191Y1932D01*
X3815Y1931D02*
X3892Y1931D01*
X4115Y1931D02*
X4192Y1931D01*
X3815Y1930D02*
X3892Y1930D01*
X4115Y1930D02*
X4192Y1930D01*
X3814Y1929D02*
X3892Y1929D01*
X4114Y1929D02*
X4192Y1929D01*
X3814Y1928D02*
X3892Y1928D01*
X4114Y1928D02*
X4192Y1928D01*
X3814Y1927D02*
X3892Y1927D01*
X4114Y1927D02*
X4192Y1927D01*
X3814Y1926D02*
X3892Y1926D01*
X4114Y1926D02*
X4192Y1926D01*
X3814Y1925D02*
X3893Y1925D01*
X4114Y1925D02*
X4192Y1925D01*
X3814Y1924D02*
X3893Y1924D01*
X4114Y1924D02*
X4193Y1924D01*
X3814Y1923D02*
X3893Y1923D01*
X4114Y1923D02*
X4193Y1923D01*
X3814Y1922D02*
X3893Y1922D01*
X4114Y1922D02*
X4193Y1922D01*
X3814Y1921D02*
X3893Y1921D01*
X4114Y1921D02*
X4193Y1921D01*
X3814Y1920D02*
X3893Y1920D01*
X4114Y1920D02*
X4193Y1920D01*
X3814Y1919D02*
X3892Y1919D01*
X4114Y1919D02*
X4192Y1919D01*
X3814Y1918D02*
X3892Y1918D01*
X4114Y1918D02*
X4192Y1918D01*
X3814Y1917D02*
X3892Y1917D01*
X4114Y1917D02*
X4192Y1917D01*
X3814Y1916D02*
X3892Y1916D01*
X4114Y1916D02*
X4192Y1916D01*
X3814Y1915D02*
X3892Y1915D01*
X4114Y1915D02*
X4192Y1915D01*
X3815Y1914D02*
X3892Y1914D01*
X4115Y1914D02*
X4192Y1914D01*
X3815Y1913D02*
X3892Y1913D01*
X4115Y1913D02*
X4192Y1913D01*
X3815Y1912D02*
X3891Y1912D01*
X4115Y1912D02*
X4191Y1912D01*
X3815Y1911D02*
X3891Y1911D01*
X4115Y1911D02*
X4191Y1911D01*
X3816Y1910D02*
X3891Y1910D01*
X4116Y1910D02*
X4191Y1910D01*
X3816Y1909D02*
X3890Y1909D01*
X4116Y1909D02*
X4190Y1909D01*
X3816Y1908D02*
X3890Y1908D01*
X4116Y1908D02*
X4190Y1908D01*
X3817Y1907D02*
X3890Y1907D01*
X4117Y1907D02*
X4190Y1907D01*
X3817Y1906D02*
X3889Y1906D01*
X4117Y1906D02*
X4189Y1906D01*
X3818Y1905D02*
X3889Y1905D01*
X4118Y1905D02*
X4189Y1905D01*
X3818Y1904D02*
X3888Y1904D01*
X4118Y1904D02*
X4188Y1904D01*
X3819Y1903D02*
X3888Y1903D01*
X4119Y1903D02*
X4188Y1903D01*
X3819Y1902D02*
X3887Y1902D01*
X4119Y1902D02*
X4187Y1902D01*
X3820Y1901D02*
X3887Y1901D01*
X4120Y1901D02*
X4187Y1901D01*
X3820Y1900D02*
X3886Y1900D01*
X4120Y1900D02*
X4186Y1900D01*
X3821Y1899D02*
X3885Y1899D01*
X4121Y1899D02*
X4185Y1899D01*
X3822Y1898D02*
X3884Y1898D01*
X4122Y1898D02*
X4184Y1898D01*
X3823Y1897D02*
X3884Y1897D01*
X4123Y1897D02*
X4184Y1897D01*
X3823Y1896D02*
X3883Y1896D01*
X4123Y1896D02*
X4183Y1896D01*
X3824Y1895D02*
X3882Y1895D01*
X4124Y1895D02*
X4182Y1895D01*
X3825Y1894D02*
X3881Y1894D01*
X4125Y1894D02*
X4181Y1894D01*
X3826Y1893D02*
X3880Y1893D01*
X4126Y1893D02*
X4180Y1893D01*
X3827Y1892D02*
X3879Y1892D01*
X4127Y1892D02*
X4179Y1892D01*
X3829Y1891D02*
X3878Y1891D01*
X4129Y1891D02*
X4178Y1891D01*
X3830Y1890D02*
X3876Y1890D01*
X4130Y1890D02*
X4176Y1890D01*
X3831Y1889D02*
X3875Y1889D01*
X4131Y1889D02*
X4175Y1889D01*
X3833Y1888D02*
X3873Y1888D01*
X4133Y1888D02*
X4173Y1888D01*
X3835Y1887D02*
X3872Y1887D01*
X4135Y1887D02*
X4172Y1887D01*
X3837Y1886D02*
X3870Y1886D01*
X4137Y1886D02*
X4170Y1886D01*
X3839Y1885D02*
X3868Y1885D01*
X4139Y1885D02*
X4167Y1885D01*
X3842Y1884D02*
X3865Y1884D01*
X4142Y1884D02*
X4165Y1884D01*
X3846Y1883D02*
X3861Y1883D01*
X4146Y1883D02*
X4161Y1883D01*
X3851Y1862D02*
X3855Y1862D01*
X4151Y1862D02*
X4155Y1862D01*
X3845Y1861D02*
X3862Y1861D01*
X4145Y1861D02*
X4162Y1861D01*
X3841Y1860D02*
X3865Y1860D01*
X4141Y1860D02*
X4165Y1860D01*
X3838Y1859D02*
X3868Y1859D01*
X4138Y1859D02*
X4168Y1859D01*
X3836Y1858D02*
X3870Y1858D01*
X4136Y1858D02*
X4170Y1858D01*
X3834Y1857D02*
X3872Y1857D01*
X4134Y1857D02*
X4172Y1857D01*
X3833Y1856D02*
X3874Y1856D01*
X4133Y1856D02*
X4174Y1856D01*
X3831Y1855D02*
X3875Y1855D01*
X4131Y1855D02*
X4175Y1855D01*
X3830Y1854D02*
X3877Y1854D01*
X4130Y1854D02*
X4177Y1854D01*
X3828Y1853D02*
X3878Y1853D01*
X4128Y1853D02*
X4178Y1853D01*
X3827Y1852D02*
X3879Y1852D01*
X4127Y1852D02*
X4179Y1852D01*
X3826Y1851D02*
X3880Y1851D01*
X4126Y1851D02*
X4180Y1851D01*
X3825Y1850D02*
X3881Y1850D01*
X4125Y1850D02*
X4181Y1850D01*
X3824Y1849D02*
X3882Y1849D01*
X4124Y1849D02*
X4182Y1849D01*
X3823Y1848D02*
X3883Y1848D01*
X4123Y1848D02*
X4183Y1848D01*
X3822Y1847D02*
X3884Y1847D01*
X4122Y1847D02*
X4184Y1847D01*
X3822Y1846D02*
X3885Y1846D01*
X4122Y1846D02*
X4185Y1846D01*
X3821Y1845D02*
X3885Y1845D01*
X4121Y1845D02*
X4185Y1845D01*
X3820Y1844D02*
X3886Y1844D01*
X4120Y1844D02*
X4186Y1844D01*
X3820Y1843D02*
X3887Y1843D01*
X4120Y1843D02*
X4187Y1843D01*
X3819Y1842D02*
X3887Y1842D01*
X4119Y1842D02*
X4187Y1842D01*
X3818Y1841D02*
X3888Y1841D01*
X4118Y1841D02*
X4188Y1841D01*
X3818Y1840D02*
X3888Y1840D01*
X4118Y1840D02*
X4188Y1840D01*
X3817Y1839D02*
X3889Y1839D01*
X4117Y1839D02*
X4189Y1839D01*
X3817Y1838D02*
X3889Y1838D01*
X4117Y1838D02*
X4189Y1838D01*
X3817Y1837D02*
X3890Y1837D01*
X4117Y1837D02*
X4190Y1837D01*
X3816Y1836D02*
X3890Y1836D01*
X4116Y1836D02*
X4190Y1836D01*
X3816Y1835D02*
X3890Y1835D01*
X4116Y1835D02*
X4190Y1835D01*
X3816Y1834D02*
X3891Y1834D01*
X4116Y1834D02*
X4191Y1834D01*
X3815Y1833D02*
X3891Y1833D01*
X4115Y1833D02*
X4191Y1833D01*
X3815Y1832D02*
X3891Y1832D01*
X4115Y1832D02*
X4191Y1832D01*
X3815Y1831D02*
X3892Y1831D01*
X4115Y1831D02*
X4192Y1831D01*
X3815Y1830D02*
X3892Y1830D01*
X4115Y1830D02*
X4192Y1830D01*
X3814Y1829D02*
X3892Y1829D01*
X4114Y1829D02*
X4192Y1829D01*
X3814Y1828D02*
X3892Y1828D01*
X4114Y1828D02*
X4192Y1828D01*
X3814Y1827D02*
X3892Y1827D01*
X4114Y1827D02*
X4192Y1827D01*
X3814Y1826D02*
X3892Y1826D01*
X4114Y1826D02*
X4192Y1826D01*
X3814Y1825D02*
X3893Y1825D01*
X4114Y1825D02*
X4192Y1825D01*
X3814Y1824D02*
X3893Y1824D01*
X4114Y1824D02*
X4193Y1824D01*
X3814Y1823D02*
X3893Y1823D01*
X4114Y1823D02*
X4193Y1823D01*
X3814Y1822D02*
X3893Y1822D01*
X4114Y1822D02*
X4193Y1822D01*
X3814Y1821D02*
X3893Y1821D01*
X4114Y1821D02*
X4193Y1821D01*
X3814Y1820D02*
X3893Y1820D01*
X4114Y1820D02*
X4193Y1820D01*
X3814Y1819D02*
X3892Y1819D01*
X4114Y1819D02*
X4192Y1819D01*
X3814Y1818D02*
X3892Y1818D01*
X4114Y1818D02*
X4192Y1818D01*
X3814Y1817D02*
X3892Y1817D01*
X4114Y1817D02*
X4192Y1817D01*
X3814Y1816D02*
X3892Y1816D01*
X4114Y1816D02*
X4192Y1816D01*
X3814Y1815D02*
X3892Y1815D01*
X4114Y1815D02*
X4192Y1815D01*
X3815Y1814D02*
X3892Y1814D01*
X4115Y1814D02*
X4192Y1814D01*
X3815Y1813D02*
X3892Y1813D01*
X4115Y1813D02*
X4191Y1813D01*
X3815Y1812D02*
X3891Y1812D01*
X4115Y1812D02*
X4191Y1812D01*
X3815Y1811D02*
X3891Y1811D01*
X4115Y1811D02*
X4191Y1811D01*
X3816Y1810D02*
X3891Y1810D01*
X4116Y1810D02*
X4191Y1810D01*
X3816Y1809D02*
X3890Y1809D01*
X4116Y1809D02*
X4190Y1809D01*
X3816Y1808D02*
X3890Y1808D01*
X4116Y1808D02*
X4190Y1808D01*
X3817Y1807D02*
X3890Y1807D01*
X4117Y1807D02*
X4190Y1807D01*
X3817Y1806D02*
X3889Y1806D01*
X4117Y1806D02*
X4189Y1806D01*
X3818Y1805D02*
X3889Y1805D01*
X4118Y1805D02*
X4189Y1805D01*
X3818Y1804D02*
X3888Y1804D01*
X4118Y1804D02*
X4188Y1804D01*
X3819Y1803D02*
X3888Y1803D01*
X4119Y1803D02*
X4188Y1803D01*
X3819Y1802D02*
X3887Y1802D01*
X4119Y1802D02*
X4187Y1802D01*
X3820Y1801D02*
X3887Y1801D01*
X4120Y1801D02*
X4186Y1801D01*
X3820Y1800D02*
X3886Y1800D01*
X4120Y1800D02*
X4186Y1800D01*
X3821Y1799D02*
X3885Y1799D01*
X4121Y1799D02*
X4185Y1799D01*
X3822Y1798D02*
X3884Y1798D01*
X4122Y1798D02*
X4184Y1798D01*
X3823Y1797D02*
X3884Y1797D01*
X4123Y1797D02*
X4184Y1797D01*
X3823Y1796D02*
X3883Y1796D01*
X4123Y1796D02*
X4183Y1796D01*
X3824Y1795D02*
X3882Y1795D01*
X4124Y1795D02*
X4182Y1795D01*
X3825Y1794D02*
X3881Y1794D01*
X4125Y1794D02*
X4181Y1794D01*
X3826Y1793D02*
X3880Y1793D01*
X4126Y1793D02*
X4180Y1793D01*
X3827Y1792D02*
X3879Y1792D01*
X4127Y1792D02*
X4179Y1792D01*
X3829Y1791D02*
X3878Y1791D01*
X4129Y1791D02*
X4178Y1791D01*
X3830Y1790D02*
X3876Y1790D01*
X4130Y1790D02*
X4176Y1790D01*
X3831Y1789D02*
X3875Y1789D01*
X4131Y1789D02*
X4175Y1789D01*
X3833Y1788D02*
X3873Y1788D01*
X4133Y1788D02*
X4173Y1788D01*
X3835Y1787D02*
X3872Y1787D01*
X4135Y1787D02*
X4172Y1787D01*
X3837Y1786D02*
X3870Y1786D01*
X4137Y1786D02*
X4170Y1786D01*
X3839Y1785D02*
X3867Y1785D01*
X4139Y1785D02*
X4167Y1785D01*
X3842Y1784D02*
X3865Y1784D01*
X4142Y1784D02*
X4165Y1784D01*
X3846Y1783D02*
X3861Y1783D01*
X4146Y1783D02*
X4161Y1783D01*
X3851Y1762D02*
X3855Y1762D01*
X4151Y1762D02*
X4155Y1762D01*
X3845Y1761D02*
X3862Y1761D01*
X4145Y1761D02*
X4162Y1761D01*
X3841Y1760D02*
X3865Y1760D01*
X4141Y1760D02*
X4165Y1760D01*
X3838Y1759D02*
X3868Y1759D01*
X4138Y1759D02*
X4168Y1759D01*
X3836Y1758D02*
X3870Y1758D01*
X4136Y1758D02*
X4170Y1758D01*
X3834Y1757D02*
X3872Y1757D01*
X4134Y1757D02*
X4172Y1757D01*
X3833Y1756D02*
X3874Y1756D01*
X4133Y1756D02*
X4174Y1756D01*
X3831Y1755D02*
X3875Y1755D01*
X4131Y1755D02*
X4175Y1755D01*
X3830Y1754D02*
X3877Y1754D01*
X4130Y1754D02*
X4177Y1754D01*
X3828Y1753D02*
X3878Y1753D01*
X4128Y1753D02*
X4178Y1753D01*
X3827Y1752D02*
X3879Y1752D01*
X4127Y1752D02*
X4179Y1752D01*
X3826Y1751D02*
X3880Y1751D01*
X4126Y1751D02*
X4180Y1751D01*
X3825Y1750D02*
X3881Y1750D01*
X4125Y1750D02*
X4181Y1750D01*
X3824Y1749D02*
X3882Y1749D01*
X4124Y1749D02*
X4182Y1749D01*
X3823Y1748D02*
X3883Y1748D01*
X4123Y1748D02*
X4183Y1748D01*
X3822Y1747D02*
X3884Y1747D01*
X4122Y1747D02*
X4184Y1747D01*
X3822Y1746D02*
X3885Y1746D01*
X4122Y1746D02*
X4185Y1746D01*
X3821Y1745D02*
X3885Y1745D01*
X4121Y1745D02*
X4185Y1745D01*
X3820Y1744D02*
X3886Y1744D01*
X4120Y1744D02*
X4186Y1744D01*
X3820Y1743D02*
X3887Y1743D01*
X4120Y1743D02*
X4187Y1743D01*
X3819Y1742D02*
X3887Y1742D01*
X4119Y1742D02*
X4187Y1742D01*
X3818Y1741D02*
X3888Y1741D01*
X4118Y1741D02*
X4188Y1741D01*
X3818Y1740D02*
X3888Y1740D01*
X4118Y1740D02*
X4188Y1740D01*
X3817Y1739D02*
X3889Y1739D01*
X4117Y1739D02*
X4189Y1739D01*
X3817Y1738D02*
X3889Y1738D01*
X4117Y1738D02*
X4189Y1738D01*
X3817Y1737D02*
X3890Y1737D01*
X4117Y1737D02*
X4190Y1737D01*
X3816Y1736D02*
X3890Y1736D01*
X4116Y1736D02*
X4190Y1736D01*
X3816Y1735D02*
X3890Y1735D01*
X4116Y1735D02*
X4190Y1735D01*
X3816Y1734D02*
X3891Y1734D01*
X4115Y1734D02*
X4191Y1734D01*
X3815Y1733D02*
X3891Y1733D01*
X4115Y1733D02*
X4191Y1733D01*
X3815Y1732D02*
X3891Y1732D01*
X4115Y1732D02*
X4191Y1732D01*
X3815Y1731D02*
X3892Y1731D01*
X4115Y1731D02*
X4192Y1731D01*
X3815Y1730D02*
X3892Y1730D01*
X4115Y1730D02*
X4192Y1730D01*
X3814Y1729D02*
X3892Y1729D01*
X4114Y1729D02*
X4192Y1729D01*
X3814Y1728D02*
X3892Y1728D01*
X4114Y1728D02*
X4192Y1728D01*
X3814Y1727D02*
X3892Y1727D01*
X4114Y1727D02*
X4192Y1727D01*
X3814Y1726D02*
X3892Y1726D01*
X4114Y1726D02*
X4192Y1726D01*
X3814Y1725D02*
X3893Y1725D01*
X4114Y1725D02*
X4192Y1725D01*
X3814Y1724D02*
X3893Y1724D01*
X4114Y1724D02*
X4193Y1724D01*
X3814Y1723D02*
X3893Y1723D01*
X4114Y1723D02*
X4193Y1723D01*
X3814Y1722D02*
X3893Y1722D01*
X4114Y1722D02*
X4193Y1722D01*
X3814Y1721D02*
X3893Y1721D01*
X4114Y1721D02*
X4193Y1721D01*
X3814Y1720D02*
X3893Y1720D01*
X4114Y1720D02*
X4193Y1720D01*
X3814Y1719D02*
X3892Y1719D01*
X4114Y1719D02*
X4192Y1719D01*
X3814Y1718D02*
X3892Y1718D01*
X4114Y1718D02*
X4192Y1718D01*
X3814Y1717D02*
X3892Y1717D01*
X4114Y1717D02*
X4192Y1717D01*
X3814Y1716D02*
X3892Y1716D01*
X4114Y1716D02*
X4192Y1716D01*
X3814Y1715D02*
X3892Y1715D01*
X4114Y1715D02*
X4192Y1715D01*
X3815Y1714D02*
X3892Y1714D01*
X4115Y1714D02*
X4192Y1714D01*
X3815Y1713D02*
X3892Y1713D01*
X4115Y1713D02*
X4191Y1713D01*
X3815Y1712D02*
X3891Y1712D01*
X4115Y1712D02*
X4191Y1712D01*
X3815Y1711D02*
X3891Y1711D01*
X4115Y1711D02*
X4191Y1711D01*
X3816Y1710D02*
X3891Y1710D01*
X4116Y1710D02*
X4191Y1710D01*
X3816Y1709D02*
X3890Y1709D01*
X4116Y1709D02*
X4190Y1709D01*
X3816Y1708D02*
X3890Y1708D01*
X4116Y1708D02*
X4190Y1708D01*
X3817Y1707D02*
X3890Y1707D01*
X4117Y1707D02*
X4190Y1707D01*
X3817Y1706D02*
X3889Y1706D01*
X4117Y1706D02*
X4189Y1706D01*
X3818Y1705D02*
X3889Y1705D01*
X4118Y1705D02*
X4189Y1705D01*
X3818Y1704D02*
X3888Y1704D01*
X4118Y1704D02*
X4188Y1704D01*
X3819Y1703D02*
X3888Y1703D01*
X4119Y1703D02*
X4188Y1703D01*
X3819Y1702D02*
X3887Y1702D01*
X4119Y1702D02*
X4187Y1702D01*
X3820Y1701D02*
X3886Y1701D01*
X4120Y1701D02*
X4186Y1701D01*
X3820Y1700D02*
X3886Y1700D01*
X4120Y1700D02*
X4186Y1700D01*
X3821Y1699D02*
X3885Y1699D01*
X4121Y1699D02*
X4185Y1699D01*
X3822Y1698D02*
X3884Y1698D01*
X4122Y1698D02*
X4184Y1698D01*
X3823Y1697D02*
X3884Y1697D01*
X4123Y1697D02*
X4184Y1697D01*
X3824Y1696D02*
X3883Y1696D01*
X4123Y1696D02*
X4183Y1696D01*
X3824Y1695D02*
X3882Y1695D01*
X4124Y1695D02*
X4182Y1695D01*
X3825Y1694D02*
X3881Y1694D01*
X4125Y1694D02*
X4181Y1694D01*
X3826Y1693D02*
X3880Y1693D01*
X4126Y1693D02*
X4180Y1693D01*
X3828Y1692D02*
X3879Y1692D01*
X4127Y1692D02*
X4179Y1692D01*
X3829Y1691D02*
X3878Y1691D01*
X4129Y1691D02*
X4178Y1691D01*
X3830Y1690D02*
X3876Y1690D01*
X4130Y1690D02*
X4176Y1690D01*
X3831Y1689D02*
X3875Y1689D01*
X4131Y1689D02*
X4175Y1689D01*
X3833Y1688D02*
X3873Y1688D01*
X4133Y1688D02*
X4173Y1688D01*
X3835Y1687D02*
X3872Y1687D01*
X4135Y1687D02*
X4172Y1687D01*
X3837Y1686D02*
X3870Y1686D01*
X4137Y1686D02*
X4170Y1686D01*
X3839Y1685D02*
X3867Y1685D01*
X4139Y1685D02*
X4167Y1685D01*
X3842Y1684D02*
X3864Y1684D01*
X4142Y1684D02*
X4164Y1684D01*
X3846Y1683D02*
X3860Y1683D01*
X4146Y1683D02*
X4160Y1683D01*
X3851Y1662D02*
X3856Y1662D01*
X4151Y1662D02*
X4156Y1662D01*
X3844Y1661D02*
X3862Y1661D01*
X4144Y1661D02*
X4162Y1661D01*
X3841Y1660D02*
X3866Y1660D01*
X4141Y1660D02*
X4166Y1660D01*
X3838Y1659D02*
X3868Y1659D01*
X4138Y1659D02*
X4168Y1659D01*
X3836Y1658D02*
X3870Y1658D01*
X4136Y1658D02*
X4170Y1658D01*
X3834Y1657D02*
X3872Y1657D01*
X4134Y1657D02*
X4172Y1657D01*
X3832Y1656D02*
X3874Y1656D01*
X4132Y1656D02*
X4174Y1656D01*
X3831Y1655D02*
X3875Y1655D01*
X4131Y1655D02*
X4175Y1655D01*
X3830Y1654D02*
X3877Y1654D01*
X4130Y1654D02*
X4177Y1654D01*
X3828Y1653D02*
X3878Y1653D01*
X4128Y1653D02*
X4178Y1653D01*
X3827Y1652D02*
X3879Y1652D01*
X4127Y1652D02*
X4179Y1652D01*
X3826Y1651D02*
X3880Y1651D01*
X4126Y1651D02*
X4180Y1651D01*
X3825Y1650D02*
X3881Y1650D01*
X4125Y1650D02*
X4181Y1650D01*
X3824Y1649D02*
X3882Y1649D01*
X4124Y1649D02*
X4182Y1649D01*
X3823Y1648D02*
X3883Y1648D01*
X4123Y1648D02*
X4183Y1648D01*
X3822Y1647D02*
X3884Y1647D01*
X4122Y1647D02*
X4184Y1647D01*
X3822Y1646D02*
X3885Y1646D01*
X4122Y1646D02*
X4185Y1646D01*
X3821Y1645D02*
X3885Y1645D01*
X4121Y1645D02*
X4185Y1645D01*
X3820Y1644D02*
X3886Y1644D01*
X4120Y1644D02*
X4186Y1644D01*
X3820Y1643D02*
X3887Y1643D01*
X4120Y1643D02*
X4187Y1643D01*
X3819Y1642D02*
X3887Y1642D01*
X4119Y1642D02*
X4187Y1642D01*
X3818Y1641D02*
X3888Y1641D01*
X4118Y1641D02*
X4188Y1641D01*
X3818Y1640D02*
X3888Y1640D01*
X4118Y1640D02*
X4188Y1640D01*
X3817Y1639D02*
X3889Y1639D01*
X4117Y1639D02*
X4189Y1639D01*
X3817Y1638D02*
X3889Y1638D01*
X4117Y1638D02*
X4189Y1638D01*
X3817Y1637D02*
X3890Y1637D01*
X4117Y1637D02*
X4190Y1637D01*
X3816Y1636D02*
X3890Y1636D01*
X4116Y1636D02*
X4190Y1636D01*
X3816Y1635D02*
X3891Y1635D01*
X4116Y1635D02*
X4190Y1635D01*
X3816Y1634D02*
X3891Y1634D01*
X4115Y1634D02*
X4191Y1634D01*
X3815Y1633D02*
X3891Y1633D01*
X4115Y1633D02*
X4191Y1633D01*
X3815Y1632D02*
X3891Y1632D01*
X4115Y1632D02*
X4191Y1632D01*
X3815Y1631D02*
X3892Y1631D01*
X4115Y1631D02*
X4192Y1631D01*
X3815Y1630D02*
X3892Y1630D01*
X4115Y1630D02*
X4192Y1630D01*
X3814Y1629D02*
X3892Y1629D01*
X4114Y1629D02*
X4192Y1629D01*
X3814Y1628D02*
X3892Y1628D01*
X4114Y1628D02*
X4192Y1628D01*
X3814Y1627D02*
X3892Y1627D01*
X4114Y1627D02*
X4192Y1627D01*
X3814Y1626D02*
X3892Y1626D01*
X4114Y1626D02*
X4192Y1626D01*
X3814Y1625D02*
X3893Y1625D01*
X4114Y1625D02*
X4192Y1625D01*
X3814Y1624D02*
X3893Y1624D01*
X4114Y1624D02*
X4193Y1624D01*
X3814Y1623D02*
X3893Y1623D01*
X4114Y1623D02*
X4193Y1623D01*
X3814Y1622D02*
X3893Y1622D01*
X4114Y1622D02*
X4193Y1622D01*
X3814Y1621D02*
X3893Y1621D01*
X4114Y1621D02*
X4193Y1621D01*
X3814Y1620D02*
X3893Y1620D01*
X4114Y1620D02*
X4193Y1620D01*
X3814Y1619D02*
X3892Y1619D01*
X4114Y1619D02*
X4192Y1619D01*
X3814Y1618D02*
X3892Y1618D01*
X4114Y1618D02*
X4192Y1618D01*
X3814Y1617D02*
X3892Y1617D01*
X4114Y1617D02*
X4192Y1617D01*
X3814Y1616D02*
X3892Y1616D01*
X4114Y1616D02*
X4192Y1616D01*
X3814Y1615D02*
X3892Y1615D01*
X4114Y1615D02*
X4192Y1615D01*
X3815Y1614D02*
X3892Y1614D01*
X4115Y1614D02*
X4192Y1614D01*
X3815Y1613D02*
X3891Y1613D01*
X4115Y1613D02*
X4191Y1613D01*
X3815Y1612D02*
X3891Y1612D01*
X4115Y1612D02*
X4191Y1612D01*
X3815Y1611D02*
X3891Y1611D01*
X4115Y1611D02*
X4191Y1611D01*
X3816Y1610D02*
X3891Y1610D01*
X4116Y1610D02*
X4191Y1610D01*
X3816Y1609D02*
X3890Y1609D01*
X4116Y1609D02*
X4190Y1609D01*
X3816Y1608D02*
X3890Y1608D01*
X4116Y1608D02*
X4190Y1608D01*
X3817Y1607D02*
X3890Y1607D01*
X4117Y1607D02*
X4190Y1607D01*
X3817Y1606D02*
X3889Y1606D01*
X4117Y1606D02*
X4189Y1606D01*
X3818Y1605D02*
X3889Y1605D01*
X4118Y1605D02*
X4189Y1605D01*
X3818Y1604D02*
X3888Y1604D01*
X4118Y1604D02*
X4188Y1604D01*
X3819Y1603D02*
X3888Y1603D01*
X4119Y1603D02*
X4188Y1603D01*
X3819Y1602D02*
X3887Y1602D01*
X4119Y1602D02*
X4187Y1602D01*
X3820Y1601D02*
X3886Y1601D01*
X4120Y1601D02*
X4186Y1601D01*
X3820Y1600D02*
X3886Y1600D01*
X4120Y1600D02*
X4186Y1600D01*
X3821Y1599D02*
X3885Y1599D01*
X4121Y1599D02*
X4185Y1599D01*
X3822Y1598D02*
X3884Y1598D01*
X4122Y1598D02*
X4184Y1598D01*
X3823Y1597D02*
X3884Y1597D01*
X4123Y1597D02*
X4184Y1597D01*
X3824Y1596D02*
X3883Y1596D01*
X4124Y1596D02*
X4183Y1596D01*
X3824Y1595D02*
X3882Y1595D01*
X4124Y1595D02*
X4182Y1595D01*
X3825Y1594D02*
X3881Y1594D01*
X4125Y1594D02*
X4181Y1594D01*
X3826Y1593D02*
X3880Y1593D01*
X4126Y1593D02*
X4180Y1593D01*
X3828Y1592D02*
X3879Y1592D01*
X4128Y1592D02*
X4179Y1592D01*
X3829Y1591D02*
X3878Y1591D01*
X4129Y1591D02*
X4178Y1591D01*
X3830Y1590D02*
X3876Y1590D01*
X4130Y1590D02*
X4176Y1590D01*
X3831Y1589D02*
X3875Y1589D01*
X4131Y1589D02*
X4175Y1589D01*
X3833Y1588D02*
X3873Y1588D01*
X4133Y1588D02*
X4173Y1588D01*
X3835Y1587D02*
X3872Y1587D01*
X4135Y1587D02*
X4172Y1587D01*
X3837Y1586D02*
X3870Y1586D01*
X4137Y1586D02*
X4170Y1586D01*
X3839Y1585D02*
X3867Y1585D01*
X4139Y1585D02*
X4167Y1585D01*
X3842Y1584D02*
X3864Y1584D01*
X4142Y1584D02*
X4164Y1584D01*
X3846Y1583D02*
X3860Y1583D01*
X4146Y1583D02*
X4160Y1583D01*
X3350Y1562D02*
X3356Y1562D01*
X3650Y1562D02*
X3656Y1562D01*
X3850Y1562D02*
X3856Y1562D01*
X4150Y1562D02*
X4156Y1562D01*
X3344Y1561D02*
X3362Y1561D01*
X3644Y1561D02*
X3662Y1561D01*
X3844Y1561D02*
X3862Y1561D01*
X4144Y1561D02*
X4162Y1561D01*
X3341Y1560D02*
X3366Y1560D01*
X3641Y1560D02*
X3666Y1560D01*
X3841Y1560D02*
X3866Y1560D01*
X4141Y1560D02*
X4166Y1560D01*
X3338Y1559D02*
X3368Y1559D01*
X3638Y1559D02*
X3668Y1559D01*
X3838Y1559D02*
X3868Y1559D01*
X4138Y1559D02*
X4168Y1559D01*
X3336Y1558D02*
X3370Y1558D01*
X3636Y1558D02*
X3670Y1558D01*
X3836Y1558D02*
X3870Y1558D01*
X4136Y1558D02*
X4170Y1558D01*
X3334Y1557D02*
X3372Y1557D01*
X3634Y1557D02*
X3672Y1557D01*
X3834Y1557D02*
X3872Y1557D01*
X4134Y1557D02*
X4172Y1557D01*
X3332Y1556D02*
X3374Y1556D01*
X3632Y1556D02*
X3674Y1556D01*
X3832Y1556D02*
X3874Y1556D01*
X4132Y1556D02*
X4174Y1556D01*
X3331Y1555D02*
X3375Y1555D01*
X3631Y1555D02*
X3675Y1555D01*
X3831Y1555D02*
X3875Y1555D01*
X4131Y1555D02*
X4175Y1555D01*
X3330Y1554D02*
X3377Y1554D01*
X3630Y1554D02*
X3677Y1554D01*
X3830Y1554D02*
X3877Y1554D01*
X4130Y1554D02*
X4177Y1554D01*
X3328Y1553D02*
X3378Y1553D01*
X3628Y1553D02*
X3678Y1553D01*
X3828Y1553D02*
X3878Y1553D01*
X4128Y1553D02*
X4178Y1553D01*
X3327Y1552D02*
X3379Y1552D01*
X3627Y1552D02*
X3679Y1552D01*
X3827Y1552D02*
X3879Y1552D01*
X4127Y1552D02*
X4179Y1552D01*
X3326Y1551D02*
X3380Y1551D01*
X3626Y1551D02*
X3680Y1551D01*
X3826Y1551D02*
X3880Y1551D01*
X4126Y1551D02*
X4180Y1551D01*
X3325Y1550D02*
X3381Y1550D01*
X3625Y1550D02*
X3681Y1550D01*
X3825Y1550D02*
X3881Y1550D01*
X4125Y1550D02*
X4181Y1550D01*
X3324Y1549D02*
X3382Y1549D01*
X3624Y1549D02*
X3682Y1549D01*
X3824Y1549D02*
X3882Y1549D01*
X4124Y1549D02*
X4182Y1549D01*
X3323Y1548D02*
X3383Y1548D01*
X3623Y1548D02*
X3683Y1548D01*
X3823Y1548D02*
X3883Y1548D01*
X4123Y1548D02*
X4183Y1548D01*
X3322Y1547D02*
X3384Y1547D01*
X3622Y1547D02*
X3684Y1547D01*
X3822Y1547D02*
X3884Y1547D01*
X4122Y1547D02*
X4184Y1547D01*
X3322Y1546D02*
X3385Y1546D01*
X3622Y1546D02*
X3685Y1546D01*
X3822Y1546D02*
X3885Y1546D01*
X4122Y1546D02*
X4185Y1546D01*
X3321Y1545D02*
X3385Y1545D01*
X3621Y1545D02*
X3685Y1545D01*
X3821Y1545D02*
X3885Y1545D01*
X4121Y1545D02*
X4185Y1545D01*
X3320Y1544D02*
X3386Y1544D01*
X3620Y1544D02*
X3686Y1544D01*
X3820Y1544D02*
X3886Y1544D01*
X4120Y1544D02*
X4186Y1544D01*
X3320Y1543D02*
X3387Y1543D01*
X3620Y1543D02*
X3687Y1543D01*
X3820Y1543D02*
X3887Y1543D01*
X4120Y1543D02*
X4187Y1543D01*
X3319Y1542D02*
X3387Y1542D01*
X3619Y1542D02*
X3687Y1542D01*
X3819Y1542D02*
X3887Y1542D01*
X4119Y1542D02*
X4187Y1542D01*
X3318Y1541D02*
X3388Y1541D01*
X3618Y1541D02*
X3688Y1541D01*
X3818Y1541D02*
X3888Y1541D01*
X4118Y1541D02*
X4188Y1541D01*
X3318Y1540D02*
X3388Y1540D01*
X3618Y1540D02*
X3688Y1540D01*
X3818Y1540D02*
X3888Y1540D01*
X4118Y1540D02*
X4188Y1540D01*
X3317Y1539D02*
X3389Y1539D01*
X3617Y1539D02*
X3689Y1539D01*
X3817Y1539D02*
X3889Y1539D01*
X4117Y1539D02*
X4189Y1539D01*
X3317Y1538D02*
X3389Y1538D01*
X3617Y1538D02*
X3689Y1538D01*
X3817Y1538D02*
X3889Y1538D01*
X4117Y1538D02*
X4189Y1538D01*
X3317Y1537D02*
X3390Y1537D01*
X3617Y1537D02*
X3690Y1537D01*
X3817Y1537D02*
X3890Y1537D01*
X4117Y1537D02*
X4190Y1537D01*
X3316Y1536D02*
X3390Y1536D01*
X3616Y1536D02*
X3690Y1536D01*
X3816Y1536D02*
X3890Y1536D01*
X4116Y1536D02*
X4190Y1536D01*
X3316Y1535D02*
X3391Y1535D01*
X3616Y1535D02*
X3691Y1535D01*
X3816Y1535D02*
X3891Y1535D01*
X4116Y1535D02*
X4190Y1535D01*
X3316Y1534D02*
X3391Y1534D01*
X3615Y1534D02*
X3691Y1534D01*
X3815Y1534D02*
X3891Y1534D01*
X4115Y1534D02*
X4191Y1534D01*
X3315Y1533D02*
X3391Y1533D01*
X3615Y1533D02*
X3691Y1533D01*
X3815Y1533D02*
X3891Y1533D01*
X4115Y1533D02*
X4191Y1533D01*
X3315Y1532D02*
X3391Y1532D01*
X3615Y1532D02*
X3691Y1532D01*
X3815Y1532D02*
X3891Y1532D01*
X4115Y1532D02*
X4191Y1532D01*
X3315Y1531D02*
X3392Y1531D01*
X3615Y1531D02*
X3692Y1531D01*
X3815Y1531D02*
X3892Y1531D01*
X4115Y1531D02*
X4192Y1531D01*
X3315Y1530D02*
X3392Y1530D01*
X3615Y1530D02*
X3692Y1530D01*
X3815Y1530D02*
X3892Y1530D01*
X4115Y1530D02*
X4192Y1530D01*
X3314Y1529D02*
X3392Y1529D01*
X3614Y1529D02*
X3692Y1529D01*
X3814Y1529D02*
X3892Y1529D01*
X4114Y1529D02*
X4192Y1529D01*
X3314Y1528D02*
X3392Y1528D01*
X3614Y1528D02*
X3692Y1528D01*
X3814Y1528D02*
X3892Y1528D01*
X4114Y1528D02*
X4192Y1528D01*
X3314Y1527D02*
X3392Y1527D01*
X3614Y1527D02*
X3692Y1527D01*
X3814Y1527D02*
X3892Y1527D01*
X4114Y1527D02*
X4192Y1527D01*
X3314Y1526D02*
X3392Y1526D01*
X3614Y1526D02*
X3692Y1526D01*
X3814Y1526D02*
X3892Y1526D01*
X4114Y1526D02*
X4192Y1526D01*
X3314Y1525D02*
X3393Y1525D01*
X3614Y1525D02*
X3693Y1525D01*
X3814Y1525D02*
X3893Y1525D01*
X4114Y1525D02*
X4192Y1525D01*
X3314Y1524D02*
X3393Y1524D01*
X3614Y1524D02*
X3693Y1524D01*
X3814Y1524D02*
X3893Y1524D01*
X4114Y1524D02*
X4193Y1524D01*
X3314Y1523D02*
X3393Y1523D01*
X3614Y1523D02*
X3693Y1523D01*
X3814Y1523D02*
X3893Y1523D01*
X4114Y1523D02*
X4193Y1523D01*
X3314Y1522D02*
X3393Y1522D01*
X3614Y1522D02*
X3693Y1522D01*
X3814Y1522D02*
X3893Y1522D01*
X4114Y1522D02*
X4193Y1522D01*
X3314Y1521D02*
X3393Y1521D01*
X3614Y1521D02*
X3693Y1521D01*
X3814Y1521D02*
X3893Y1521D01*
X4114Y1521D02*
X4193Y1521D01*
X3314Y1520D02*
X3393Y1520D01*
X3614Y1520D02*
X3693Y1520D01*
X3814Y1520D02*
X3893Y1520D01*
X4114Y1520D02*
X4193Y1520D01*
X3314Y1519D02*
X3392Y1519D01*
X3614Y1519D02*
X3692Y1519D01*
X3814Y1519D02*
X3892Y1519D01*
X4114Y1519D02*
X4192Y1519D01*
X3314Y1518D02*
X3392Y1518D01*
X3614Y1518D02*
X3692Y1518D01*
X3814Y1518D02*
X3892Y1518D01*
X4114Y1518D02*
X4192Y1518D01*
X3314Y1517D02*
X3392Y1517D01*
X3614Y1517D02*
X3692Y1517D01*
X3814Y1517D02*
X3892Y1517D01*
X4114Y1517D02*
X4192Y1517D01*
X3314Y1516D02*
X3392Y1516D01*
X3614Y1516D02*
X3692Y1516D01*
X3814Y1516D02*
X3892Y1516D01*
X4114Y1516D02*
X4192Y1516D01*
X3314Y1515D02*
X3392Y1515D01*
X3614Y1515D02*
X3692Y1515D01*
X3814Y1515D02*
X3892Y1515D01*
X4114Y1515D02*
X4192Y1515D01*
X3315Y1514D02*
X3392Y1514D01*
X3615Y1514D02*
X3692Y1514D01*
X3815Y1514D02*
X3892Y1514D01*
X4115Y1514D02*
X4192Y1514D01*
X3315Y1513D02*
X3392Y1513D01*
X3615Y1513D02*
X3691Y1513D01*
X3815Y1513D02*
X3891Y1513D01*
X4115Y1513D02*
X4191Y1513D01*
X3315Y1512D02*
X3391Y1512D01*
X3615Y1512D02*
X3691Y1512D01*
X3815Y1512D02*
X3891Y1512D01*
X4115Y1512D02*
X4191Y1512D01*
X3315Y1511D02*
X3391Y1511D01*
X3615Y1511D02*
X3691Y1511D01*
X3815Y1511D02*
X3891Y1511D01*
X4115Y1511D02*
X4191Y1511D01*
X3316Y1510D02*
X3391Y1510D01*
X3616Y1510D02*
X3691Y1510D01*
X3816Y1510D02*
X3891Y1510D01*
X4116Y1510D02*
X4191Y1510D01*
X3316Y1509D02*
X3390Y1509D01*
X3616Y1509D02*
X3690Y1509D01*
X3816Y1509D02*
X3890Y1509D01*
X4116Y1509D02*
X4190Y1509D01*
X3316Y1508D02*
X3390Y1508D01*
X3616Y1508D02*
X3690Y1508D01*
X3816Y1508D02*
X3890Y1508D01*
X4116Y1508D02*
X4190Y1508D01*
X3317Y1507D02*
X3390Y1507D01*
X3617Y1507D02*
X3690Y1507D01*
X3817Y1507D02*
X3890Y1507D01*
X4117Y1507D02*
X4190Y1507D01*
X3317Y1506D02*
X3389Y1506D01*
X3617Y1506D02*
X3689Y1506D01*
X3817Y1506D02*
X3889Y1506D01*
X4117Y1506D02*
X4189Y1506D01*
X3318Y1505D02*
X3389Y1505D01*
X3618Y1505D02*
X3689Y1505D01*
X3818Y1505D02*
X3889Y1505D01*
X4118Y1505D02*
X4189Y1505D01*
X3318Y1504D02*
X3388Y1504D01*
X3618Y1504D02*
X3688Y1504D01*
X3818Y1504D02*
X3888Y1504D01*
X4118Y1504D02*
X4188Y1504D01*
X3319Y1503D02*
X3388Y1503D01*
X3619Y1503D02*
X3688Y1503D01*
X3819Y1503D02*
X3888Y1503D01*
X4119Y1503D02*
X4188Y1503D01*
X3319Y1502D02*
X3387Y1502D01*
X3619Y1502D02*
X3687Y1502D01*
X3819Y1502D02*
X3887Y1502D01*
X4119Y1502D02*
X4187Y1502D01*
X3320Y1501D02*
X3386Y1501D01*
X3620Y1501D02*
X3686Y1501D01*
X3820Y1501D02*
X3886Y1501D01*
X4120Y1501D02*
X4186Y1501D01*
X3321Y1500D02*
X3386Y1500D01*
X3621Y1500D02*
X3686Y1500D01*
X3821Y1500D02*
X3886Y1500D01*
X4120Y1500D02*
X4186Y1500D01*
X3321Y1499D02*
X3385Y1499D01*
X3621Y1499D02*
X3685Y1499D01*
X3821Y1499D02*
X3885Y1499D01*
X4121Y1499D02*
X4185Y1499D01*
X3322Y1498D02*
X3384Y1498D01*
X3622Y1498D02*
X3684Y1498D01*
X3822Y1498D02*
X3884Y1498D01*
X4122Y1498D02*
X4184Y1498D01*
X3323Y1497D02*
X3384Y1497D01*
X3623Y1497D02*
X3684Y1497D01*
X3823Y1497D02*
X3884Y1497D01*
X4123Y1497D02*
X4184Y1497D01*
X3324Y1496D02*
X3383Y1496D01*
X3624Y1496D02*
X3683Y1496D01*
X3824Y1496D02*
X3883Y1496D01*
X4124Y1496D02*
X4183Y1496D01*
X3324Y1495D02*
X3382Y1495D01*
X3624Y1495D02*
X3682Y1495D01*
X3824Y1495D02*
X3882Y1495D01*
X4124Y1495D02*
X4182Y1495D01*
X3325Y1494D02*
X3381Y1494D01*
X3625Y1494D02*
X3681Y1494D01*
X3825Y1494D02*
X3881Y1494D01*
X4125Y1494D02*
X4181Y1494D01*
X3326Y1493D02*
X3380Y1493D01*
X3626Y1493D02*
X3680Y1493D01*
X3826Y1493D02*
X3880Y1493D01*
X4126Y1493D02*
X4180Y1493D01*
X3328Y1492D02*
X3379Y1492D01*
X3628Y1492D02*
X3679Y1492D01*
X3828Y1492D02*
X3879Y1492D01*
X4128Y1492D02*
X4179Y1492D01*
X3329Y1491D02*
X3378Y1491D01*
X3629Y1491D02*
X3678Y1491D01*
X3829Y1491D02*
X3878Y1491D01*
X4129Y1491D02*
X4178Y1491D01*
X3330Y1490D02*
X3376Y1490D01*
X3630Y1490D02*
X3676Y1490D01*
X3830Y1490D02*
X3876Y1490D01*
X4130Y1490D02*
X4176Y1490D01*
X3332Y1489D02*
X3375Y1489D01*
X3632Y1489D02*
X3675Y1489D01*
X3832Y1489D02*
X3875Y1489D01*
X4132Y1489D02*
X4175Y1489D01*
X3333Y1488D02*
X3373Y1488D01*
X3633Y1488D02*
X3673Y1488D01*
X3833Y1488D02*
X3873Y1488D01*
X4133Y1488D02*
X4173Y1488D01*
X3335Y1487D02*
X3372Y1487D01*
X3635Y1487D02*
X3672Y1487D01*
X3835Y1487D02*
X3872Y1487D01*
X4135Y1487D02*
X4172Y1487D01*
X3337Y1486D02*
X3370Y1486D01*
X3637Y1486D02*
X3670Y1486D01*
X3837Y1486D02*
X3870Y1486D01*
X4137Y1486D02*
X4170Y1486D01*
X3339Y1485D02*
X3367Y1485D01*
X3639Y1485D02*
X3667Y1485D01*
X3839Y1485D02*
X3867Y1485D01*
X4139Y1485D02*
X4167Y1485D01*
X3342Y1484D02*
X3364Y1484D01*
X3642Y1484D02*
X3664Y1484D01*
X3842Y1484D02*
X3864Y1484D01*
X4142Y1484D02*
X4164Y1484D01*
X3346Y1483D02*
X3360Y1483D01*
X3646Y1483D02*
X3660Y1483D01*
X3846Y1483D02*
X3860Y1483D01*
X4146Y1483D02*
X4160Y1483D01*
X3350Y1462D02*
X3357Y1462D01*
X3650Y1462D02*
X3657Y1462D01*
X3850Y1462D02*
X3857Y1462D01*
X4150Y1462D02*
X4157Y1462D01*
X3344Y1461D02*
X3362Y1461D01*
X3644Y1461D02*
X3662Y1461D01*
X3844Y1461D02*
X3862Y1461D01*
X4144Y1461D02*
X4162Y1461D01*
X3341Y1460D02*
X3366Y1460D01*
X3641Y1460D02*
X3666Y1460D01*
X3841Y1460D02*
X3866Y1460D01*
X4141Y1460D02*
X4166Y1460D01*
X3338Y1459D02*
X3368Y1459D01*
X3638Y1459D02*
X3668Y1459D01*
X3838Y1459D02*
X3868Y1459D01*
X4138Y1459D02*
X4168Y1459D01*
X3336Y1458D02*
X3370Y1458D01*
X3636Y1458D02*
X3670Y1458D01*
X3836Y1458D02*
X3870Y1458D01*
X4136Y1458D02*
X4170Y1458D01*
X3334Y1457D02*
X3372Y1457D01*
X3634Y1457D02*
X3672Y1457D01*
X3834Y1457D02*
X3872Y1457D01*
X4134Y1457D02*
X4172Y1457D01*
X3332Y1456D02*
X3374Y1456D01*
X3632Y1456D02*
X3674Y1456D01*
X3832Y1456D02*
X3874Y1456D01*
X4132Y1456D02*
X4174Y1456D01*
X3331Y1455D02*
X3375Y1455D01*
X3631Y1455D02*
X3675Y1455D01*
X3831Y1455D02*
X3875Y1455D01*
X4131Y1455D02*
X4175Y1455D01*
X3330Y1454D02*
X3377Y1454D01*
X3630Y1454D02*
X3677Y1454D01*
X3830Y1454D02*
X3877Y1454D01*
X4129Y1454D02*
X4177Y1454D01*
X3328Y1453D02*
X3378Y1453D01*
X3628Y1453D02*
X3678Y1453D01*
X3828Y1453D02*
X3878Y1453D01*
X4128Y1453D02*
X4178Y1453D01*
X3327Y1452D02*
X3379Y1452D01*
X3627Y1452D02*
X3679Y1452D01*
X3827Y1452D02*
X3879Y1452D01*
X4127Y1452D02*
X4179Y1452D01*
X3326Y1451D02*
X3380Y1451D01*
X3626Y1451D02*
X3680Y1451D01*
X3826Y1451D02*
X3880Y1451D01*
X4126Y1451D02*
X4180Y1451D01*
X3325Y1450D02*
X3381Y1450D01*
X3625Y1450D02*
X3681Y1450D01*
X3825Y1450D02*
X3881Y1450D01*
X4125Y1450D02*
X4181Y1450D01*
X3324Y1449D02*
X3382Y1449D01*
X3624Y1449D02*
X3682Y1449D01*
X3824Y1449D02*
X3882Y1449D01*
X4124Y1449D02*
X4182Y1449D01*
X3323Y1448D02*
X3383Y1448D01*
X3623Y1448D02*
X3683Y1448D01*
X3823Y1448D02*
X3883Y1448D01*
X4123Y1448D02*
X4183Y1448D01*
X3322Y1447D02*
X3384Y1447D01*
X3622Y1447D02*
X3684Y1447D01*
X3822Y1447D02*
X3884Y1447D01*
X4122Y1447D02*
X4184Y1447D01*
X3322Y1446D02*
X3385Y1446D01*
X3622Y1446D02*
X3685Y1446D01*
X3822Y1446D02*
X3885Y1446D01*
X4122Y1446D02*
X4185Y1446D01*
X3321Y1445D02*
X3385Y1445D01*
X3621Y1445D02*
X3685Y1445D01*
X3821Y1445D02*
X3885Y1445D01*
X4121Y1445D02*
X4185Y1445D01*
X3320Y1444D02*
X3386Y1444D01*
X3620Y1444D02*
X3686Y1444D01*
X3820Y1444D02*
X3886Y1444D01*
X4120Y1444D02*
X4186Y1444D01*
X3320Y1443D02*
X3387Y1443D01*
X3620Y1443D02*
X3687Y1443D01*
X3820Y1443D02*
X3887Y1443D01*
X4120Y1443D02*
X4187Y1443D01*
X3319Y1442D02*
X3387Y1442D01*
X3619Y1442D02*
X3687Y1442D01*
X3819Y1442D02*
X3887Y1442D01*
X4119Y1442D02*
X4187Y1442D01*
X3318Y1441D02*
X3388Y1441D01*
X3618Y1441D02*
X3688Y1441D01*
X3818Y1441D02*
X3888Y1441D01*
X4118Y1441D02*
X4188Y1441D01*
X3318Y1440D02*
X3388Y1440D01*
X3618Y1440D02*
X3688Y1440D01*
X3818Y1440D02*
X3888Y1440D01*
X4118Y1440D02*
X4188Y1440D01*
X3317Y1439D02*
X3389Y1439D01*
X3617Y1439D02*
X3689Y1439D01*
X3817Y1439D02*
X3889Y1439D01*
X4117Y1439D02*
X4189Y1439D01*
X3317Y1438D02*
X3389Y1438D01*
X3617Y1438D02*
X3689Y1438D01*
X3817Y1438D02*
X3889Y1438D01*
X4117Y1438D02*
X4189Y1438D01*
X3317Y1437D02*
X3390Y1437D01*
X3617Y1437D02*
X3690Y1437D01*
X3817Y1437D02*
X3890Y1437D01*
X4117Y1437D02*
X4190Y1437D01*
X3316Y1436D02*
X3390Y1436D01*
X3616Y1436D02*
X3690Y1436D01*
X3816Y1436D02*
X3890Y1436D01*
X4116Y1436D02*
X4190Y1436D01*
X3316Y1435D02*
X3391Y1435D01*
X3616Y1435D02*
X3691Y1435D01*
X3816Y1435D02*
X3891Y1435D01*
X4116Y1435D02*
X4191Y1435D01*
X3316Y1434D02*
X3391Y1434D01*
X3615Y1434D02*
X3691Y1434D01*
X3815Y1434D02*
X3891Y1434D01*
X4115Y1434D02*
X4191Y1434D01*
X3315Y1433D02*
X3391Y1433D01*
X3615Y1433D02*
X3691Y1433D01*
X3815Y1433D02*
X3891Y1433D01*
X4115Y1433D02*
X4191Y1433D01*
X3315Y1432D02*
X3391Y1432D01*
X3615Y1432D02*
X3691Y1432D01*
X3815Y1432D02*
X3891Y1432D01*
X4115Y1432D02*
X4191Y1432D01*
X3315Y1431D02*
X3392Y1431D01*
X3615Y1431D02*
X3692Y1431D01*
X3815Y1431D02*
X3892Y1431D01*
X4115Y1431D02*
X4192Y1431D01*
X3315Y1430D02*
X3392Y1430D01*
X3615Y1430D02*
X3692Y1430D01*
X3815Y1430D02*
X3892Y1430D01*
X4114Y1430D02*
X4192Y1430D01*
X3314Y1429D02*
X3392Y1429D01*
X3614Y1429D02*
X3692Y1429D01*
X3814Y1429D02*
X3892Y1429D01*
X4114Y1429D02*
X4192Y1429D01*
X3314Y1428D02*
X3392Y1428D01*
X3614Y1428D02*
X3692Y1428D01*
X3814Y1428D02*
X3892Y1428D01*
X4114Y1428D02*
X4192Y1428D01*
X3314Y1427D02*
X3392Y1427D01*
X3614Y1427D02*
X3692Y1427D01*
X3814Y1427D02*
X3892Y1427D01*
X4114Y1427D02*
X4192Y1427D01*
X3314Y1426D02*
X3392Y1426D01*
X3614Y1426D02*
X3692Y1426D01*
X3814Y1426D02*
X3892Y1426D01*
X4114Y1426D02*
X4192Y1426D01*
X3314Y1425D02*
X3393Y1425D01*
X3614Y1425D02*
X3693Y1425D01*
X3814Y1425D02*
X3893Y1425D01*
X4114Y1425D02*
X4192Y1425D01*
X3314Y1424D02*
X3393Y1424D01*
X3614Y1424D02*
X3693Y1424D01*
X3814Y1424D02*
X3893Y1424D01*
X4114Y1424D02*
X4193Y1424D01*
X3314Y1423D02*
X3393Y1423D01*
X3614Y1423D02*
X3693Y1423D01*
X3814Y1423D02*
X3893Y1423D01*
X4114Y1423D02*
X4193Y1423D01*
X3314Y1422D02*
X3393Y1422D01*
X3614Y1422D02*
X3693Y1422D01*
X3814Y1422D02*
X3893Y1422D01*
X4114Y1422D02*
X4193Y1422D01*
X3314Y1421D02*
X3393Y1421D01*
X3614Y1421D02*
X3693Y1421D01*
X3814Y1421D02*
X3893Y1421D01*
X4114Y1421D02*
X4193Y1421D01*
X3314Y1420D02*
X3393Y1420D01*
X3614Y1420D02*
X3693Y1420D01*
X3814Y1420D02*
X3893Y1420D01*
X4114Y1420D02*
X4193Y1420D01*
X3314Y1419D02*
X3392Y1419D01*
X3614Y1419D02*
X3692Y1419D01*
X3814Y1419D02*
X3892Y1419D01*
X4114Y1419D02*
X4192Y1419D01*
X3314Y1418D02*
X3392Y1418D01*
X3614Y1418D02*
X3692Y1418D01*
X3814Y1418D02*
X3892Y1418D01*
X4114Y1418D02*
X4192Y1418D01*
X3314Y1417D02*
X3392Y1417D01*
X3614Y1417D02*
X3692Y1417D01*
X3814Y1417D02*
X3892Y1417D01*
X4114Y1417D02*
X4192Y1417D01*
X3314Y1416D02*
X3392Y1416D01*
X3614Y1416D02*
X3692Y1416D01*
X3814Y1416D02*
X3892Y1416D01*
X4114Y1416D02*
X4192Y1416D01*
X3314Y1415D02*
X3392Y1415D01*
X3614Y1415D02*
X3692Y1415D01*
X3814Y1415D02*
X3892Y1415D01*
X4114Y1415D02*
X4192Y1415D01*
X3315Y1414D02*
X3392Y1414D01*
X3615Y1414D02*
X3692Y1414D01*
X3815Y1414D02*
X3892Y1414D01*
X4115Y1414D02*
X4192Y1414D01*
X3315Y1413D02*
X3391Y1413D01*
X3615Y1413D02*
X3691Y1413D01*
X3815Y1413D02*
X3891Y1413D01*
X4115Y1413D02*
X4191Y1413D01*
X3315Y1412D02*
X3391Y1412D01*
X3615Y1412D02*
X3691Y1412D01*
X3815Y1412D02*
X3891Y1412D01*
X4115Y1412D02*
X4191Y1412D01*
X3315Y1411D02*
X3391Y1411D01*
X3615Y1411D02*
X3691Y1411D01*
X3815Y1411D02*
X3891Y1411D01*
X4115Y1411D02*
X4191Y1411D01*
X3316Y1410D02*
X3391Y1410D01*
X3616Y1410D02*
X3691Y1410D01*
X3816Y1410D02*
X3891Y1410D01*
X4116Y1410D02*
X4191Y1410D01*
X3316Y1409D02*
X3390Y1409D01*
X3616Y1409D02*
X3690Y1409D01*
X3816Y1409D02*
X3890Y1409D01*
X4116Y1409D02*
X4190Y1409D01*
X3316Y1408D02*
X3390Y1408D01*
X3616Y1408D02*
X3690Y1408D01*
X3816Y1408D02*
X3890Y1408D01*
X4116Y1408D02*
X4190Y1408D01*
X3317Y1407D02*
X3390Y1407D01*
X3617Y1407D02*
X3690Y1407D01*
X3817Y1407D02*
X3890Y1407D01*
X4117Y1407D02*
X4190Y1407D01*
X3317Y1406D02*
X3389Y1406D01*
X3617Y1406D02*
X3689Y1406D01*
X3817Y1406D02*
X3889Y1406D01*
X4117Y1406D02*
X4189Y1406D01*
X3318Y1405D02*
X3389Y1405D01*
X3618Y1405D02*
X3689Y1405D01*
X3818Y1405D02*
X3889Y1405D01*
X4118Y1405D02*
X4189Y1405D01*
X3318Y1404D02*
X3388Y1404D01*
X3618Y1404D02*
X3688Y1404D01*
X3818Y1404D02*
X3888Y1404D01*
X4118Y1404D02*
X4188Y1404D01*
X3319Y1403D02*
X3388Y1403D01*
X3619Y1403D02*
X3688Y1403D01*
X3819Y1403D02*
X3888Y1403D01*
X4119Y1403D02*
X4188Y1403D01*
X3319Y1402D02*
X3387Y1402D01*
X3619Y1402D02*
X3687Y1402D01*
X3819Y1402D02*
X3887Y1402D01*
X4119Y1402D02*
X4187Y1402D01*
X3320Y1401D02*
X3386Y1401D01*
X3620Y1401D02*
X3686Y1401D01*
X3820Y1401D02*
X3886Y1401D01*
X4120Y1401D02*
X4186Y1401D01*
X3321Y1400D02*
X3386Y1400D01*
X3621Y1400D02*
X3686Y1400D01*
X3821Y1400D02*
X3886Y1400D01*
X4121Y1400D02*
X4186Y1400D01*
X3321Y1399D02*
X3385Y1399D01*
X3621Y1399D02*
X3685Y1399D01*
X3821Y1399D02*
X3885Y1399D01*
X4121Y1399D02*
X4185Y1399D01*
X3322Y1398D02*
X3384Y1398D01*
X3622Y1398D02*
X3684Y1398D01*
X3822Y1398D02*
X3884Y1398D01*
X4122Y1398D02*
X4184Y1398D01*
X3323Y1397D02*
X3384Y1397D01*
X3623Y1397D02*
X3684Y1397D01*
X3823Y1397D02*
X3884Y1397D01*
X4123Y1397D02*
X4184Y1397D01*
X3324Y1396D02*
X3383Y1396D01*
X3624Y1396D02*
X3683Y1396D01*
X3824Y1396D02*
X3883Y1396D01*
X4124Y1396D02*
X4183Y1396D01*
X3324Y1395D02*
X3382Y1395D01*
X3624Y1395D02*
X3682Y1395D01*
X3824Y1395D02*
X3882Y1395D01*
X4124Y1395D02*
X4182Y1395D01*
X3325Y1394D02*
X3381Y1394D01*
X3625Y1394D02*
X3681Y1394D01*
X3825Y1394D02*
X3881Y1394D01*
X4125Y1394D02*
X4181Y1394D01*
X3326Y1393D02*
X3380Y1393D01*
X3626Y1393D02*
X3680Y1393D01*
X3826Y1393D02*
X3880Y1393D01*
X4126Y1393D02*
X4180Y1393D01*
X3328Y1392D02*
X3379Y1392D01*
X3628Y1392D02*
X3679Y1392D01*
X3828Y1392D02*
X3879Y1392D01*
X4128Y1392D02*
X4179Y1392D01*
X3329Y1391D02*
X3378Y1391D01*
X3629Y1391D02*
X3678Y1391D01*
X3829Y1391D02*
X3878Y1391D01*
X4129Y1391D02*
X4177Y1391D01*
X3330Y1390D02*
X3376Y1390D01*
X3630Y1390D02*
X3676Y1390D01*
X3830Y1390D02*
X3876Y1390D01*
X4130Y1390D02*
X4176Y1390D01*
X3332Y1389D02*
X3375Y1389D01*
X3632Y1389D02*
X3675Y1389D01*
X3832Y1389D02*
X3875Y1389D01*
X4132Y1389D02*
X4175Y1389D01*
X3333Y1388D02*
X3373Y1388D01*
X3633Y1388D02*
X3673Y1388D01*
X3833Y1388D02*
X3873Y1388D01*
X4133Y1388D02*
X4173Y1388D01*
X3335Y1387D02*
X3371Y1387D01*
X3635Y1387D02*
X3671Y1387D01*
X3835Y1387D02*
X3871Y1387D01*
X4135Y1387D02*
X4171Y1387D01*
X3337Y1386D02*
X3369Y1386D01*
X3637Y1386D02*
X3669Y1386D01*
X3837Y1386D02*
X3869Y1386D01*
X4137Y1386D02*
X4169Y1386D01*
X3339Y1385D02*
X3367Y1385D01*
X3639Y1385D02*
X3667Y1385D01*
X3839Y1385D02*
X3867Y1385D01*
X4139Y1385D02*
X4167Y1385D01*
X3342Y1384D02*
X3364Y1384D01*
X3642Y1384D02*
X3664Y1384D01*
X3842Y1384D02*
X3864Y1384D01*
X4142Y1384D02*
X4164Y1384D01*
X3347Y1383D02*
X3360Y1383D01*
X3647Y1383D02*
X3660Y1383D01*
X3847Y1383D02*
X3860Y1383D01*
X4147Y1383D02*
X4160Y1383D01*
X3350Y1362D02*
X3357Y1362D01*
X3650Y1362D02*
X3657Y1362D01*
X3344Y1361D02*
X3362Y1361D01*
X3644Y1361D02*
X3662Y1361D01*
X3341Y1360D02*
X3366Y1360D01*
X3641Y1360D02*
X3666Y1360D01*
X3338Y1359D02*
X3368Y1359D01*
X3638Y1359D02*
X3668Y1359D01*
X3336Y1358D02*
X3371Y1358D01*
X3636Y1358D02*
X3671Y1358D01*
X3334Y1357D02*
X3372Y1357D01*
X3634Y1357D02*
X3672Y1357D01*
X3332Y1356D02*
X3374Y1356D01*
X3632Y1356D02*
X3674Y1356D01*
X3331Y1355D02*
X3376Y1355D01*
X3631Y1355D02*
X3676Y1355D01*
X3329Y1354D02*
X3377Y1354D01*
X3629Y1354D02*
X3677Y1354D01*
X3328Y1353D02*
X3378Y1353D01*
X3628Y1353D02*
X3678Y1353D01*
X3327Y1352D02*
X3379Y1352D01*
X3627Y1352D02*
X3679Y1352D01*
X3326Y1351D02*
X3380Y1351D01*
X3626Y1351D02*
X3680Y1351D01*
X3325Y1350D02*
X3381Y1350D01*
X3625Y1350D02*
X3681Y1350D01*
X3324Y1349D02*
X3382Y1349D01*
X3624Y1349D02*
X3682Y1349D01*
X3323Y1348D02*
X3383Y1348D01*
X3623Y1348D02*
X3683Y1348D01*
X3322Y1347D02*
X3384Y1347D01*
X3622Y1347D02*
X3684Y1347D01*
X3322Y1346D02*
X3385Y1346D01*
X3622Y1346D02*
X3685Y1346D01*
X3321Y1345D02*
X3386Y1345D01*
X3621Y1345D02*
X3685Y1345D01*
X3320Y1344D02*
X3386Y1344D01*
X3620Y1344D02*
X3686Y1344D01*
X3320Y1343D02*
X3387Y1343D01*
X3620Y1343D02*
X3687Y1343D01*
X3319Y1342D02*
X3387Y1342D01*
X3619Y1342D02*
X3687Y1342D01*
X3318Y1341D02*
X3388Y1341D01*
X3618Y1341D02*
X3688Y1341D01*
X3318Y1340D02*
X3388Y1340D01*
X3618Y1340D02*
X3688Y1340D01*
X3317Y1339D02*
X3389Y1339D01*
X3617Y1339D02*
X3689Y1339D01*
X3317Y1338D02*
X3389Y1338D01*
X3617Y1338D02*
X3689Y1338D01*
X3317Y1337D02*
X3390Y1337D01*
X3617Y1337D02*
X3690Y1337D01*
X3316Y1336D02*
X3390Y1336D01*
X3616Y1336D02*
X3690Y1336D01*
X3316Y1335D02*
X3391Y1335D01*
X3616Y1335D02*
X3691Y1335D01*
X3316Y1334D02*
X3391Y1334D01*
X3615Y1334D02*
X3691Y1334D01*
X3315Y1333D02*
X3391Y1333D01*
X3615Y1333D02*
X3691Y1333D01*
X3315Y1332D02*
X3391Y1332D01*
X3615Y1332D02*
X3691Y1332D01*
X3315Y1331D02*
X3392Y1331D01*
X3615Y1331D02*
X3692Y1331D01*
X3315Y1330D02*
X3392Y1330D01*
X3615Y1330D02*
X3692Y1330D01*
X3314Y1329D02*
X3392Y1329D01*
X3614Y1329D02*
X3692Y1329D01*
X3314Y1328D02*
X3392Y1328D01*
X3614Y1328D02*
X3692Y1328D01*
X3314Y1327D02*
X3392Y1327D01*
X3614Y1327D02*
X3692Y1327D01*
X3314Y1326D02*
X3392Y1326D01*
X3614Y1326D02*
X3692Y1326D01*
X3314Y1325D02*
X3393Y1325D01*
X3614Y1325D02*
X3693Y1325D01*
X3314Y1324D02*
X3393Y1324D01*
X3614Y1324D02*
X3693Y1324D01*
X3314Y1323D02*
X3393Y1323D01*
X3614Y1323D02*
X3693Y1323D01*
X3314Y1322D02*
X3393Y1322D01*
X3614Y1322D02*
X3693Y1322D01*
X3314Y1321D02*
X3393Y1321D01*
X3614Y1321D02*
X3693Y1321D01*
X3314Y1320D02*
X3393Y1320D01*
X3614Y1320D02*
X3693Y1320D01*
X3314Y1319D02*
X3392Y1319D01*
X3614Y1319D02*
X3692Y1319D01*
X3314Y1318D02*
X3392Y1318D01*
X3614Y1318D02*
X3692Y1318D01*
X3314Y1317D02*
X3392Y1317D01*
X3614Y1317D02*
X3692Y1317D01*
X3314Y1316D02*
X3392Y1316D01*
X3614Y1316D02*
X3692Y1316D01*
X3314Y1315D02*
X3392Y1315D01*
X3614Y1315D02*
X3692Y1315D01*
X3315Y1314D02*
X3392Y1314D01*
X3615Y1314D02*
X3692Y1314D01*
X3315Y1313D02*
X3391Y1313D01*
X3615Y1313D02*
X3691Y1313D01*
X3315Y1312D02*
X3391Y1312D01*
X3615Y1312D02*
X3691Y1312D01*
X3315Y1311D02*
X3391Y1311D01*
X3615Y1311D02*
X3691Y1311D01*
X3316Y1310D02*
X3391Y1310D01*
X3616Y1310D02*
X3691Y1310D01*
X3316Y1309D02*
X3390Y1309D01*
X3616Y1309D02*
X3690Y1309D01*
X3316Y1308D02*
X3390Y1308D01*
X3616Y1308D02*
X3690Y1308D01*
X3317Y1307D02*
X3390Y1307D01*
X3617Y1307D02*
X3690Y1307D01*
X3317Y1306D02*
X3389Y1306D01*
X3617Y1306D02*
X3689Y1306D01*
X3318Y1305D02*
X3389Y1305D01*
X3618Y1305D02*
X3689Y1305D01*
X3318Y1304D02*
X3388Y1304D01*
X3618Y1304D02*
X3688Y1304D01*
X3319Y1303D02*
X3388Y1303D01*
X3619Y1303D02*
X3688Y1303D01*
X3319Y1302D02*
X3387Y1302D01*
X3619Y1302D02*
X3687Y1302D01*
X3320Y1301D02*
X3386Y1301D01*
X3620Y1301D02*
X3686Y1301D01*
X3321Y1300D02*
X3386Y1300D01*
X3621Y1300D02*
X3686Y1300D01*
X3321Y1299D02*
X3385Y1299D01*
X3621Y1299D02*
X3685Y1299D01*
X3322Y1298D02*
X3384Y1298D01*
X3622Y1298D02*
X3684Y1298D01*
X3323Y1297D02*
X3384Y1297D01*
X3623Y1297D02*
X3684Y1297D01*
X3324Y1296D02*
X3383Y1296D01*
X3624Y1296D02*
X3683Y1296D01*
X3325Y1295D02*
X3382Y1295D01*
X3624Y1295D02*
X3682Y1295D01*
X3325Y1294D02*
X3381Y1294D01*
X3625Y1294D02*
X3681Y1294D01*
X3327Y1293D02*
X3380Y1293D01*
X3627Y1293D02*
X3680Y1293D01*
X3328Y1292D02*
X3379Y1292D01*
X3628Y1292D02*
X3679Y1292D01*
X3329Y1291D02*
X3377Y1291D01*
X3629Y1291D02*
X3677Y1291D01*
X3330Y1290D02*
X3376Y1290D01*
X3630Y1290D02*
X3676Y1290D01*
X3332Y1289D02*
X3375Y1289D01*
X3632Y1289D02*
X3675Y1289D01*
X3333Y1288D02*
X3373Y1288D01*
X3633Y1288D02*
X3673Y1288D01*
X3335Y1287D02*
X3371Y1287D01*
X3635Y1287D02*
X3671Y1287D01*
X3337Y1286D02*
X3369Y1286D01*
X3637Y1286D02*
X3669Y1286D01*
X3339Y1285D02*
X3367Y1285D01*
X3639Y1285D02*
X3667Y1285D01*
X3342Y1284D02*
X3364Y1284D01*
X3642Y1284D02*
X3664Y1284D01*
X3347Y1283D02*
X3360Y1283D01*
X3647Y1283D02*
X3660Y1283D01*
X3349Y1262D02*
X3357Y1262D01*
X3649Y1262D02*
X3657Y1262D01*
X3344Y1261D02*
X3362Y1261D01*
X3644Y1261D02*
X3662Y1261D01*
X3341Y1260D02*
X3366Y1260D01*
X3641Y1260D02*
X3666Y1260D01*
X3338Y1259D02*
X3369Y1259D01*
X3638Y1259D02*
X3669Y1259D01*
X3336Y1258D02*
X3371Y1258D01*
X3636Y1258D02*
X3671Y1258D01*
X3334Y1257D02*
X3372Y1257D01*
X3634Y1257D02*
X3672Y1257D01*
X3332Y1256D02*
X3374Y1256D01*
X3632Y1256D02*
X3674Y1256D01*
X3331Y1255D02*
X3376Y1255D01*
X3631Y1255D02*
X3676Y1255D01*
X3329Y1254D02*
X3377Y1254D01*
X3629Y1254D02*
X3677Y1254D01*
X3328Y1253D02*
X3378Y1253D01*
X3628Y1253D02*
X3678Y1253D01*
X3327Y1252D02*
X3379Y1252D01*
X3627Y1252D02*
X3679Y1252D01*
X3326Y1251D02*
X3380Y1251D01*
X3626Y1251D02*
X3680Y1251D01*
X3325Y1250D02*
X3381Y1250D01*
X3625Y1250D02*
X3681Y1250D01*
X3324Y1249D02*
X3382Y1249D01*
X3624Y1249D02*
X3682Y1249D01*
X3323Y1248D02*
X3383Y1248D01*
X3623Y1248D02*
X3683Y1248D01*
X3322Y1247D02*
X3384Y1247D01*
X3622Y1247D02*
X3684Y1247D01*
X3322Y1246D02*
X3385Y1246D01*
X3622Y1246D02*
X3685Y1246D01*
X3321Y1245D02*
X3386Y1245D01*
X3621Y1245D02*
X3686Y1245D01*
X3320Y1244D02*
X3386Y1244D01*
X3620Y1244D02*
X3686Y1244D01*
X3320Y1243D02*
X3387Y1243D01*
X3620Y1243D02*
X3687Y1243D01*
X3319Y1242D02*
X3387Y1242D01*
X3619Y1242D02*
X3687Y1242D01*
X3318Y1241D02*
X3388Y1241D01*
X3618Y1241D02*
X3688Y1241D01*
X3318Y1240D02*
X3388Y1240D01*
X3618Y1240D02*
X3688Y1240D01*
X3317Y1239D02*
X3389Y1239D01*
X3617Y1239D02*
X3689Y1239D01*
X3317Y1238D02*
X3389Y1238D01*
X3617Y1238D02*
X3689Y1238D01*
X3317Y1237D02*
X3390Y1237D01*
X3617Y1237D02*
X3690Y1237D01*
X3316Y1236D02*
X3390Y1236D01*
X3616Y1236D02*
X3690Y1236D01*
X3316Y1235D02*
X3391Y1235D01*
X3616Y1235D02*
X3691Y1235D01*
X3315Y1234D02*
X3391Y1234D01*
X3615Y1234D02*
X3691Y1234D01*
X3315Y1233D02*
X3391Y1233D01*
X3615Y1233D02*
X3691Y1233D01*
X3315Y1232D02*
X3391Y1232D01*
X3615Y1232D02*
X3691Y1232D01*
X3315Y1231D02*
X3392Y1231D01*
X3615Y1231D02*
X3692Y1231D01*
X3315Y1230D02*
X3392Y1230D01*
X3615Y1230D02*
X3692Y1230D01*
X3314Y1229D02*
X3392Y1229D01*
X3614Y1229D02*
X3692Y1229D01*
X3314Y1228D02*
X3392Y1228D01*
X3614Y1228D02*
X3692Y1228D01*
X3314Y1227D02*
X3392Y1227D01*
X3614Y1227D02*
X3692Y1227D01*
X3314Y1226D02*
X3392Y1226D01*
X3614Y1226D02*
X3692Y1226D01*
X3314Y1225D02*
X3393Y1225D01*
X3614Y1225D02*
X3693Y1225D01*
X3314Y1224D02*
X3393Y1224D01*
X3614Y1224D02*
X3693Y1224D01*
X3314Y1223D02*
X3393Y1223D01*
X3614Y1223D02*
X3693Y1223D01*
X3314Y1222D02*
X3393Y1222D01*
X3614Y1222D02*
X3693Y1222D01*
X3314Y1221D02*
X3393Y1221D01*
X3614Y1221D02*
X3693Y1221D01*
X3314Y1220D02*
X3393Y1220D01*
X3614Y1220D02*
X3693Y1220D01*
X3314Y1219D02*
X3392Y1219D01*
X3614Y1219D02*
X3692Y1219D01*
X3314Y1218D02*
X3392Y1218D01*
X3614Y1218D02*
X3692Y1218D01*
X3314Y1217D02*
X3392Y1217D01*
X3614Y1217D02*
X3692Y1217D01*
X3314Y1216D02*
X3392Y1216D01*
X3614Y1216D02*
X3692Y1216D01*
X3314Y1215D02*
X3392Y1215D01*
X3614Y1215D02*
X3692Y1215D01*
X3315Y1214D02*
X3392Y1214D01*
X3615Y1214D02*
X3692Y1214D01*
X3315Y1213D02*
X3391Y1213D01*
X3615Y1213D02*
X3691Y1213D01*
X3315Y1212D02*
X3391Y1212D01*
X3615Y1212D02*
X3691Y1212D01*
X3315Y1211D02*
X3391Y1211D01*
X3615Y1211D02*
X3691Y1211D01*
X3316Y1210D02*
X3391Y1210D01*
X3616Y1210D02*
X3691Y1210D01*
X3316Y1209D02*
X3390Y1209D01*
X3616Y1209D02*
X3690Y1209D01*
X3316Y1208D02*
X3390Y1208D01*
X3616Y1208D02*
X3690Y1208D01*
X3317Y1207D02*
X3390Y1207D01*
X3617Y1207D02*
X3690Y1207D01*
X3317Y1206D02*
X3389Y1206D01*
X3617Y1206D02*
X3689Y1206D01*
X3318Y1205D02*
X3389Y1205D01*
X3618Y1205D02*
X3689Y1205D01*
X3318Y1204D02*
X3388Y1204D01*
X3618Y1204D02*
X3688Y1204D01*
X3319Y1203D02*
X3388Y1203D01*
X3619Y1203D02*
X3688Y1203D01*
X3319Y1202D02*
X3387Y1202D01*
X3619Y1202D02*
X3687Y1202D01*
X3320Y1201D02*
X3386Y1201D01*
X3620Y1201D02*
X3686Y1201D01*
X3321Y1200D02*
X3386Y1200D01*
X3621Y1200D02*
X3686Y1200D01*
X3321Y1199D02*
X3385Y1199D01*
X3621Y1199D02*
X3685Y1199D01*
X3322Y1198D02*
X3384Y1198D01*
X3622Y1198D02*
X3684Y1198D01*
X3323Y1197D02*
X3384Y1197D01*
X3623Y1197D02*
X3684Y1197D01*
X3324Y1196D02*
X3383Y1196D01*
X3624Y1196D02*
X3683Y1196D01*
X3325Y1195D02*
X3382Y1195D01*
X3625Y1195D02*
X3682Y1195D01*
X3325Y1194D02*
X3381Y1194D01*
X3625Y1194D02*
X3681Y1194D01*
X3327Y1193D02*
X3380Y1193D01*
X3627Y1193D02*
X3680Y1193D01*
X3328Y1192D02*
X3379Y1192D01*
X3628Y1192D02*
X3679Y1192D01*
X3329Y1191D02*
X3377Y1191D01*
X3629Y1191D02*
X3677Y1191D01*
X3330Y1190D02*
X3376Y1190D01*
X3630Y1190D02*
X3676Y1190D01*
X3332Y1189D02*
X3375Y1189D01*
X3632Y1189D02*
X3675Y1189D01*
X3333Y1188D02*
X3373Y1188D01*
X3633Y1188D02*
X3673Y1188D01*
X3335Y1187D02*
X3371Y1187D01*
X3635Y1187D02*
X3671Y1187D01*
X3337Y1186D02*
X3369Y1186D01*
X3637Y1186D02*
X3669Y1186D01*
X3339Y1185D02*
X3367Y1185D01*
X3639Y1185D02*
X3667Y1185D01*
X3342Y1184D02*
X3364Y1184D01*
X3642Y1184D02*
X3664Y1184D01*
X3347Y1183D02*
X3359Y1183D01*
X3647Y1183D02*
X3659Y1183D01*
X3349Y1162D02*
X3357Y1162D01*
X3649Y1162D02*
X3657Y1162D01*
X3344Y1161D02*
X3363Y1161D01*
X3644Y1161D02*
X3662Y1161D01*
X3340Y1160D02*
X3366Y1160D01*
X3640Y1160D02*
X3666Y1160D01*
X3338Y1159D02*
X3369Y1159D01*
X3638Y1159D02*
X3669Y1159D01*
X3336Y1158D02*
X3371Y1158D01*
X3636Y1158D02*
X3671Y1158D01*
X3334Y1157D02*
X3372Y1157D01*
X3634Y1157D02*
X3672Y1157D01*
X3332Y1156D02*
X3374Y1156D01*
X3632Y1156D02*
X3674Y1156D01*
X3331Y1155D02*
X3376Y1155D01*
X3631Y1155D02*
X3676Y1155D01*
X3329Y1154D02*
X3377Y1154D01*
X3629Y1154D02*
X3677Y1154D01*
X3328Y1153D02*
X3378Y1153D01*
X3628Y1153D02*
X3678Y1153D01*
X3327Y1152D02*
X3379Y1152D01*
X3627Y1152D02*
X3679Y1152D01*
X3326Y1151D02*
X3381Y1151D01*
X3626Y1151D02*
X3681Y1151D01*
X3325Y1150D02*
X3382Y1150D01*
X3625Y1150D02*
X3682Y1150D01*
X3324Y1149D02*
X3382Y1149D01*
X3624Y1149D02*
X3682Y1149D01*
X3323Y1148D02*
X3383Y1148D01*
X3623Y1148D02*
X3683Y1148D01*
X3322Y1147D02*
X3384Y1147D01*
X3622Y1147D02*
X3684Y1147D01*
X3322Y1146D02*
X3385Y1146D01*
X3622Y1146D02*
X3685Y1146D01*
X3321Y1145D02*
X3386Y1145D01*
X3621Y1145D02*
X3686Y1145D01*
X3320Y1144D02*
X3386Y1144D01*
X3620Y1144D02*
X3686Y1144D01*
X3320Y1143D02*
X3387Y1143D01*
X3620Y1143D02*
X3687Y1143D01*
X3319Y1142D02*
X3387Y1142D01*
X3619Y1142D02*
X3687Y1142D01*
X3318Y1141D02*
X3388Y1141D01*
X3618Y1141D02*
X3688Y1141D01*
X3318Y1140D02*
X3389Y1140D01*
X3618Y1140D02*
X3688Y1140D01*
X3317Y1139D02*
X3389Y1139D01*
X3617Y1139D02*
X3689Y1139D01*
X3317Y1138D02*
X3389Y1138D01*
X3617Y1138D02*
X3689Y1138D01*
X3317Y1137D02*
X3390Y1137D01*
X3616Y1137D02*
X3690Y1137D01*
X3316Y1136D02*
X3390Y1136D01*
X3616Y1136D02*
X3690Y1136D01*
X3316Y1135D02*
X3391Y1135D01*
X3616Y1135D02*
X3691Y1135D01*
X3315Y1134D02*
X3391Y1134D01*
X3615Y1134D02*
X3691Y1134D01*
X3315Y1133D02*
X3391Y1133D01*
X3615Y1133D02*
X3691Y1133D01*
X3315Y1132D02*
X3391Y1132D01*
X3615Y1132D02*
X3691Y1132D01*
X3315Y1131D02*
X3392Y1131D01*
X3615Y1131D02*
X3692Y1131D01*
X3315Y1130D02*
X3392Y1130D01*
X3615Y1130D02*
X3692Y1130D01*
X3314Y1129D02*
X3392Y1129D01*
X3614Y1129D02*
X3692Y1129D01*
X3314Y1128D02*
X3392Y1128D01*
X3614Y1128D02*
X3692Y1128D01*
X3314Y1127D02*
X3392Y1127D01*
X3614Y1127D02*
X3692Y1127D01*
X3314Y1126D02*
X3392Y1126D01*
X3614Y1126D02*
X3692Y1126D01*
X3314Y1125D02*
X3393Y1125D01*
X3614Y1125D02*
X3693Y1125D01*
X3314Y1124D02*
X3393Y1124D01*
X3614Y1124D02*
X3693Y1124D01*
X3314Y1123D02*
X3393Y1123D01*
X3614Y1123D02*
X3693Y1123D01*
X3314Y1122D02*
X3393Y1122D01*
X3614Y1122D02*
X3693Y1122D01*
X3314Y1121D02*
X3393Y1121D01*
X3614Y1121D02*
X3693Y1121D01*
X3314Y1120D02*
X3393Y1120D01*
X3614Y1120D02*
X3693Y1120D01*
X3314Y1119D02*
X3392Y1119D01*
X3614Y1119D02*
X3692Y1119D01*
X3314Y1118D02*
X3392Y1118D01*
X3614Y1118D02*
X3692Y1118D01*
X3314Y1117D02*
X3392Y1117D01*
X3614Y1117D02*
X3692Y1117D01*
X3314Y1116D02*
X3392Y1116D01*
X3614Y1116D02*
X3692Y1116D01*
X3314Y1115D02*
X3392Y1115D01*
X3614Y1115D02*
X3692Y1115D01*
X3315Y1114D02*
X3392Y1114D01*
X3615Y1114D02*
X3692Y1114D01*
X3315Y1113D02*
X3391Y1113D01*
X3615Y1113D02*
X3691Y1113D01*
X3315Y1112D02*
X3391Y1112D01*
X3615Y1112D02*
X3691Y1112D01*
X3315Y1111D02*
X3391Y1111D01*
X3615Y1111D02*
X3691Y1111D01*
X3316Y1110D02*
X3391Y1110D01*
X3616Y1110D02*
X3691Y1110D01*
X3316Y1109D02*
X3390Y1109D01*
X3616Y1109D02*
X3690Y1109D01*
X3316Y1108D02*
X3390Y1108D01*
X3616Y1108D02*
X3690Y1108D01*
X3317Y1107D02*
X3390Y1107D01*
X3617Y1107D02*
X3690Y1107D01*
X3317Y1106D02*
X3389Y1106D01*
X3617Y1106D02*
X3689Y1106D01*
X3318Y1105D02*
X3389Y1105D01*
X3618Y1105D02*
X3689Y1105D01*
X3318Y1104D02*
X3388Y1104D01*
X3618Y1104D02*
X3688Y1104D01*
X3319Y1103D02*
X3388Y1103D01*
X3619Y1103D02*
X3688Y1103D01*
X3319Y1102D02*
X3387Y1102D01*
X3619Y1102D02*
X3687Y1102D01*
X3320Y1101D02*
X3386Y1101D01*
X3620Y1101D02*
X3686Y1101D01*
X3321Y1100D02*
X3386Y1100D01*
X3621Y1100D02*
X3686Y1100D01*
X3321Y1099D02*
X3385Y1099D01*
X3621Y1099D02*
X3685Y1099D01*
X3322Y1098D02*
X3384Y1098D01*
X3622Y1098D02*
X3684Y1098D01*
X3323Y1097D02*
X3384Y1097D01*
X3623Y1097D02*
X3684Y1097D01*
X3324Y1096D02*
X3383Y1096D01*
X3624Y1096D02*
X3683Y1096D01*
X3325Y1095D02*
X3382Y1095D01*
X3625Y1095D02*
X3682Y1095D01*
X3325Y1094D02*
X3381Y1094D01*
X3625Y1094D02*
X3681Y1094D01*
X3327Y1093D02*
X3380Y1093D01*
X3627Y1093D02*
X3680Y1093D01*
X3328Y1092D02*
X3379Y1092D01*
X3628Y1092D02*
X3679Y1092D01*
X3329Y1091D02*
X3377Y1091D01*
X3629Y1091D02*
X3677Y1091D01*
X3330Y1090D02*
X3376Y1090D01*
X3630Y1090D02*
X3676Y1090D01*
X3332Y1089D02*
X3375Y1089D01*
X3632Y1089D02*
X3675Y1089D01*
X3333Y1088D02*
X3373Y1088D01*
X3633Y1088D02*
X3673Y1088D01*
X3335Y1087D02*
X3371Y1087D01*
X3635Y1087D02*
X3671Y1087D01*
X3337Y1086D02*
X3369Y1086D01*
X3637Y1086D02*
X3669Y1086D01*
X3340Y1085D02*
X3367Y1085D01*
X3640Y1085D02*
X3667Y1085D01*
X3343Y1084D02*
X3364Y1084D01*
X3643Y1084D02*
X3664Y1084D01*
X3347Y1083D02*
X3359Y1083D01*
X3647Y1083D02*
X3659Y1083D01*
X3349Y1062D02*
X3357Y1062D01*
X3649Y1062D02*
X3657Y1062D01*
X3344Y1061D02*
X3363Y1061D01*
X3644Y1061D02*
X3663Y1061D01*
X3340Y1060D02*
X3366Y1060D01*
X3640Y1060D02*
X3666Y1060D01*
X3338Y1059D02*
X3369Y1059D01*
X3638Y1059D02*
X3669Y1059D01*
X3336Y1058D02*
X3371Y1058D01*
X3636Y1058D02*
X3671Y1058D01*
X3334Y1057D02*
X3373Y1057D01*
X3634Y1057D02*
X3673Y1057D01*
X3332Y1056D02*
X3374Y1056D01*
X3632Y1056D02*
X3674Y1056D01*
X3331Y1055D02*
X3376Y1055D01*
X3631Y1055D02*
X3676Y1055D01*
X3329Y1054D02*
X3377Y1054D01*
X3629Y1054D02*
X3677Y1054D01*
X3328Y1053D02*
X3378Y1053D01*
X3628Y1053D02*
X3678Y1053D01*
X3327Y1052D02*
X3379Y1052D01*
X3627Y1052D02*
X3679Y1052D01*
X3326Y1051D02*
X3381Y1051D01*
X3626Y1051D02*
X3681Y1051D01*
X3325Y1050D02*
X3382Y1050D01*
X3625Y1050D02*
X3682Y1050D01*
X3324Y1049D02*
X3382Y1049D01*
X3624Y1049D02*
X3682Y1049D01*
X3323Y1048D02*
X3383Y1048D01*
X3623Y1048D02*
X3683Y1048D01*
X3322Y1047D02*
X3384Y1047D01*
X3622Y1047D02*
X3684Y1047D01*
X3322Y1046D02*
X3385Y1046D01*
X3622Y1046D02*
X3685Y1046D01*
X3321Y1045D02*
X3386Y1045D01*
X3621Y1045D02*
X3686Y1045D01*
X3320Y1044D02*
X3386Y1044D01*
X3620Y1044D02*
X3686Y1044D01*
X3320Y1043D02*
X3387Y1043D01*
X3620Y1043D02*
X3687Y1043D01*
X3319Y1042D02*
X3387Y1042D01*
X3619Y1042D02*
X3687Y1042D01*
X3318Y1041D02*
X3388Y1041D01*
X3618Y1041D02*
X3688Y1041D01*
X3318Y1040D02*
X3389Y1040D01*
X3618Y1040D02*
X3689Y1040D01*
X3317Y1039D02*
X3389Y1039D01*
X3617Y1039D02*
X3689Y1039D01*
X3317Y1038D02*
X3390Y1038D01*
X3617Y1038D02*
X3689Y1038D01*
X3317Y1037D02*
X3390Y1037D01*
X3616Y1037D02*
X3690Y1037D01*
X3316Y1036D02*
X3390Y1036D01*
X3616Y1036D02*
X3690Y1036D01*
X3316Y1035D02*
X3391Y1035D01*
X3616Y1035D02*
X3691Y1035D01*
X3315Y1034D02*
X3391Y1034D01*
X3615Y1034D02*
X3691Y1034D01*
X3315Y1033D02*
X3391Y1033D01*
X3615Y1033D02*
X3691Y1033D01*
X3315Y1032D02*
X3391Y1032D01*
X3615Y1032D02*
X3691Y1032D01*
X3315Y1031D02*
X3392Y1031D01*
X3615Y1031D02*
X3692Y1031D01*
X3315Y1030D02*
X3392Y1030D01*
X3615Y1030D02*
X3692Y1030D01*
X3314Y1029D02*
X3392Y1029D01*
X3614Y1029D02*
X3692Y1029D01*
X3314Y1028D02*
X3392Y1028D01*
X3614Y1028D02*
X3692Y1028D01*
X3314Y1027D02*
X3392Y1027D01*
X3614Y1027D02*
X3692Y1027D01*
X3314Y1026D02*
X3392Y1026D01*
X3614Y1026D02*
X3692Y1026D01*
X3314Y1025D02*
X3393Y1025D01*
X3614Y1025D02*
X3693Y1025D01*
X3314Y1024D02*
X3393Y1024D01*
X3614Y1024D02*
X3693Y1024D01*
X3314Y1023D02*
X3393Y1023D01*
X3614Y1023D02*
X3693Y1023D01*
X3314Y1022D02*
X3393Y1022D01*
X3614Y1022D02*
X3693Y1022D01*
X3314Y1021D02*
X3393Y1021D01*
X3614Y1021D02*
X3693Y1021D01*
X3314Y1020D02*
X3393Y1020D01*
X3614Y1020D02*
X3693Y1020D01*
X3314Y1019D02*
X3392Y1019D01*
X3614Y1019D02*
X3692Y1019D01*
X3314Y1018D02*
X3392Y1018D01*
X3614Y1018D02*
X3692Y1018D01*
X3314Y1017D02*
X3392Y1017D01*
X3614Y1017D02*
X3692Y1017D01*
X3314Y1016D02*
X3392Y1016D01*
X3614Y1016D02*
X3692Y1016D01*
X3314Y1015D02*
X3392Y1015D01*
X3614Y1015D02*
X3692Y1015D01*
X3315Y1014D02*
X3392Y1014D01*
X3615Y1014D02*
X3692Y1014D01*
X3315Y1013D02*
X3391Y1013D01*
X3615Y1013D02*
X3691Y1013D01*
X3315Y1012D02*
X3391Y1012D01*
X3615Y1012D02*
X3691Y1012D01*
X3315Y1011D02*
X3391Y1011D01*
X3615Y1011D02*
X3691Y1011D01*
X3316Y1010D02*
X3391Y1010D01*
X3616Y1010D02*
X3691Y1010D01*
X3316Y1009D02*
X3390Y1009D01*
X3616Y1009D02*
X3690Y1009D01*
X3316Y1008D02*
X3390Y1008D01*
X3616Y1008D02*
X3690Y1008D01*
X3317Y1007D02*
X3390Y1007D01*
X3617Y1007D02*
X3690Y1007D01*
X3317Y1006D02*
X3389Y1006D01*
X3617Y1006D02*
X3689Y1006D01*
X3318Y1005D02*
X3389Y1005D01*
X3618Y1005D02*
X3689Y1005D01*
X3318Y1004D02*
X3388Y1004D01*
X3618Y1004D02*
X3688Y1004D01*
X3319Y1003D02*
X3388Y1003D01*
X3619Y1003D02*
X3688Y1003D01*
X3319Y1002D02*
X3387Y1002D01*
X3619Y1002D02*
X3687Y1002D01*
X3320Y1001D02*
X3386Y1001D01*
X3620Y1001D02*
X3686Y1001D01*
X3321Y1000D02*
X3386Y1000D01*
X3621Y1000D02*
X3686Y1000D01*
X3321Y999D02*
X3385Y999D01*
X3621Y999D02*
X3685Y999D01*
X3322Y998D02*
X3384Y998D01*
X3622Y998D02*
X3684Y998D01*
X3323Y997D02*
X3384Y997D01*
X3623Y997D02*
X3684Y997D01*
X3324Y996D02*
X3383Y996D01*
X3624Y996D02*
X3683Y996D01*
X3325Y995D02*
X3382Y995D01*
X3625Y995D02*
X3682Y995D01*
X3326Y994D02*
X3381Y994D01*
X3625Y994D02*
X3681Y994D01*
X3327Y993D02*
X3380Y993D01*
X3627Y993D02*
X3680Y993D01*
X3328Y992D02*
X3379Y992D01*
X3628Y992D02*
X3679Y992D01*
X3329Y991D02*
X3377Y991D01*
X3629Y991D02*
X3677Y991D01*
X3330Y990D02*
X3376Y990D01*
X3630Y990D02*
X3676Y990D01*
X3332Y989D02*
X3375Y989D01*
X3632Y989D02*
X3675Y989D01*
X3333Y988D02*
X3373Y988D01*
X3633Y988D02*
X3673Y988D01*
X3335Y987D02*
X3371Y987D01*
X3635Y987D02*
X3671Y987D01*
X3337Y986D02*
X3369Y986D01*
X3637Y986D02*
X3669Y986D01*
X3340Y985D02*
X3367Y985D01*
X3640Y985D02*
X3667Y985D01*
X3343Y984D02*
X3364Y984D01*
X3643Y984D02*
X3664Y984D01*
X3347Y983D02*
X3359Y983D01*
X3647Y983D02*
X3659Y983D01*
X3349Y962D02*
X3358Y962D01*
X3649Y962D02*
X3658Y962D01*
X3344Y961D02*
X3363Y961D01*
X3644Y961D02*
X3663Y961D01*
X3340Y960D02*
X3366Y960D01*
X3640Y960D02*
X3666Y960D01*
X3338Y959D02*
X3369Y959D01*
X3638Y959D02*
X3669Y959D01*
X3336Y958D02*
X3371Y958D01*
X3636Y958D02*
X3671Y958D01*
X3334Y957D02*
X3373Y957D01*
X3634Y957D02*
X3673Y957D01*
X3332Y956D02*
X3374Y956D01*
X3632Y956D02*
X3674Y956D01*
X3331Y955D02*
X3376Y955D01*
X3631Y955D02*
X3676Y955D01*
X3329Y954D02*
X3377Y954D01*
X3629Y954D02*
X3677Y954D01*
X3328Y953D02*
X3378Y953D01*
X3628Y953D02*
X3678Y953D01*
X3327Y952D02*
X3379Y952D01*
X3627Y952D02*
X3679Y952D01*
X3326Y951D02*
X3381Y951D01*
X3626Y951D02*
X3681Y951D01*
X3325Y950D02*
X3382Y950D01*
X3625Y950D02*
X3682Y950D01*
X3324Y949D02*
X3382Y949D01*
X3624Y949D02*
X3682Y949D01*
X3323Y948D02*
X3383Y948D01*
X3623Y948D02*
X3683Y948D01*
X3322Y947D02*
X3384Y947D01*
X3622Y947D02*
X3684Y947D01*
X3322Y946D02*
X3385Y946D01*
X3622Y946D02*
X3685Y946D01*
X3321Y945D02*
X3386Y945D01*
X3621Y945D02*
X3686Y945D01*
X3320Y944D02*
X3386Y944D01*
X3620Y944D02*
X3686Y944D01*
X3320Y943D02*
X3387Y943D01*
X3620Y943D02*
X3687Y943D01*
X3319Y942D02*
X3387Y942D01*
X3619Y942D02*
X3687Y942D01*
X3318Y941D02*
X3388Y941D01*
X3618Y941D02*
X3688Y941D01*
X3318Y940D02*
X3389Y940D01*
X3618Y940D02*
X3689Y940D01*
X3317Y939D02*
X3389Y939D01*
X3617Y939D02*
X3689Y939D01*
X3317Y938D02*
X3390Y938D01*
X3617Y938D02*
X3689Y938D01*
X3316Y937D02*
X3390Y937D01*
X3616Y937D02*
X3690Y937D01*
X3316Y936D02*
X3390Y936D01*
X3616Y936D02*
X3690Y936D01*
X3316Y935D02*
X3391Y935D01*
X3616Y935D02*
X3691Y935D01*
X3315Y934D02*
X3391Y934D01*
X3615Y934D02*
X3691Y934D01*
X3315Y933D02*
X3391Y933D01*
X3615Y933D02*
X3691Y933D01*
X3315Y932D02*
X3391Y932D01*
X3615Y932D02*
X3691Y932D01*
X3315Y931D02*
X3392Y931D01*
X3615Y931D02*
X3692Y931D01*
X3315Y930D02*
X3392Y930D01*
X3615Y930D02*
X3692Y930D01*
X3314Y929D02*
X3392Y929D01*
X3614Y929D02*
X3692Y929D01*
X3314Y928D02*
X3392Y928D01*
X3614Y928D02*
X3692Y928D01*
X3314Y927D02*
X3392Y927D01*
X3614Y927D02*
X3692Y927D01*
X3314Y926D02*
X3392Y926D01*
X3614Y926D02*
X3692Y926D01*
X3314Y925D02*
X3393Y925D01*
X3614Y925D02*
X3693Y925D01*
X3314Y924D02*
X3393Y924D01*
X3614Y924D02*
X3693Y924D01*
X3314Y923D02*
X3393Y923D01*
X3614Y923D02*
X3693Y923D01*
X3314Y922D02*
X3393Y922D01*
X3614Y922D02*
X3693Y922D01*
X3314Y921D02*
X3393Y921D01*
X3614Y921D02*
X3693Y921D01*
X3314Y920D02*
X3393Y920D01*
X3614Y920D02*
X3693Y920D01*
X3314Y919D02*
X3392Y919D01*
X3614Y919D02*
X3692Y919D01*
X3314Y918D02*
X3392Y918D01*
X3614Y918D02*
X3692Y918D01*
X3314Y917D02*
X3392Y917D01*
X3614Y917D02*
X3692Y917D01*
X3314Y916D02*
X3392Y916D01*
X3614Y916D02*
X3692Y916D01*
X3314Y915D02*
X3392Y915D01*
X3614Y915D02*
X3692Y915D01*
X3315Y914D02*
X3392Y914D01*
X3615Y914D02*
X3692Y914D01*
X3315Y913D02*
X3391Y913D01*
X3615Y913D02*
X3691Y913D01*
X3315Y912D02*
X3391Y912D01*
X3615Y912D02*
X3691Y912D01*
X3315Y911D02*
X3391Y911D01*
X3615Y911D02*
X3691Y911D01*
X3316Y910D02*
X3391Y910D01*
X3616Y910D02*
X3691Y910D01*
X3316Y909D02*
X3390Y909D01*
X3616Y909D02*
X3690Y909D01*
X3316Y908D02*
X3390Y908D01*
X3616Y908D02*
X3690Y908D01*
X3317Y907D02*
X3390Y907D01*
X3617Y907D02*
X3690Y907D01*
X3317Y906D02*
X3389Y906D01*
X3617Y906D02*
X3689Y906D01*
X3318Y905D02*
X3389Y905D01*
X3618Y905D02*
X3689Y905D01*
X3318Y904D02*
X3388Y904D01*
X3618Y904D02*
X3688Y904D01*
X3319Y903D02*
X3388Y903D01*
X3619Y903D02*
X3688Y903D01*
X3319Y902D02*
X3387Y902D01*
X3619Y902D02*
X3687Y902D01*
X3320Y901D02*
X3386Y901D01*
X3620Y901D02*
X3686Y901D01*
X3321Y900D02*
X3386Y900D01*
X3621Y900D02*
X3686Y900D01*
X3321Y899D02*
X3385Y899D01*
X3621Y899D02*
X3685Y899D01*
X3322Y898D02*
X3384Y898D01*
X3622Y898D02*
X3684Y898D01*
X3323Y897D02*
X3384Y897D01*
X3623Y897D02*
X3684Y897D01*
X3324Y896D02*
X3383Y896D01*
X3624Y896D02*
X3683Y896D01*
X3325Y895D02*
X3382Y895D01*
X3625Y895D02*
X3682Y895D01*
X3326Y894D02*
X3381Y894D01*
X3626Y894D02*
X3681Y894D01*
X3327Y893D02*
X3380Y893D01*
X3627Y893D02*
X3680Y893D01*
X3328Y892D02*
X3379Y892D01*
X3628Y892D02*
X3679Y892D01*
X3329Y891D02*
X3377Y891D01*
X3629Y891D02*
X3677Y891D01*
X3330Y890D02*
X3376Y890D01*
X3630Y890D02*
X3676Y890D01*
X3332Y889D02*
X3375Y889D01*
X3632Y889D02*
X3675Y889D01*
X3333Y888D02*
X3373Y888D01*
X3633Y888D02*
X3673Y888D01*
X3335Y887D02*
X3371Y887D01*
X3635Y887D02*
X3671Y887D01*
X3337Y886D02*
X3369Y886D01*
X3637Y886D02*
X3669Y886D01*
X3340Y885D02*
X3367Y885D01*
X3640Y885D02*
X3667Y885D01*
X3343Y884D02*
X3364Y884D01*
X3643Y884D02*
X3664Y884D01*
X3347Y883D02*
X3359Y883D01*
X3647Y883D02*
X3659Y883D01*
X3349Y862D02*
X3358Y862D01*
X3649Y862D02*
X3658Y862D01*
X3344Y861D02*
X3363Y861D01*
X3644Y861D02*
X3663Y861D01*
X3340Y860D02*
X3366Y860D01*
X3640Y860D02*
X3666Y860D01*
X3338Y859D02*
X3369Y859D01*
X3638Y859D02*
X3669Y859D01*
X3336Y858D02*
X3371Y858D01*
X3636Y858D02*
X3671Y858D01*
X3334Y857D02*
X3373Y857D01*
X3634Y857D02*
X3673Y857D01*
X3332Y856D02*
X3374Y856D01*
X3632Y856D02*
X3674Y856D01*
X3331Y855D02*
X3376Y855D01*
X3631Y855D02*
X3676Y855D01*
X3329Y854D02*
X3377Y854D01*
X3629Y854D02*
X3677Y854D01*
X3328Y853D02*
X3378Y853D01*
X3628Y853D02*
X3678Y853D01*
X3327Y852D02*
X3380Y852D01*
X3627Y852D02*
X3680Y852D01*
X3326Y851D02*
X3381Y851D01*
X3626Y851D02*
X3681Y851D01*
X3325Y850D02*
X3382Y850D01*
X3625Y850D02*
X3682Y850D01*
X3324Y849D02*
X3382Y849D01*
X3624Y849D02*
X3682Y849D01*
X3323Y848D02*
X3383Y848D01*
X3623Y848D02*
X3683Y848D01*
X3322Y847D02*
X3384Y847D01*
X3622Y847D02*
X3684Y847D01*
X3322Y846D02*
X3385Y846D01*
X3621Y846D02*
X3685Y846D01*
X3321Y845D02*
X3386Y845D01*
X3621Y845D02*
X3686Y845D01*
X3320Y844D02*
X3386Y844D01*
X3620Y844D02*
X3686Y844D01*
X3320Y843D02*
X3387Y843D01*
X3619Y843D02*
X3687Y843D01*
X3319Y842D02*
X3387Y842D01*
X3619Y842D02*
X3687Y842D01*
X3318Y841D02*
X3388Y841D01*
X3618Y841D02*
X3688Y841D01*
X3318Y840D02*
X3389Y840D01*
X3618Y840D02*
X3689Y840D01*
X3317Y839D02*
X3389Y839D01*
X3617Y839D02*
X3689Y839D01*
X3317Y838D02*
X3390Y838D01*
X3617Y838D02*
X3690Y838D01*
X3316Y837D02*
X3390Y837D01*
X3616Y837D02*
X3690Y837D01*
X3316Y836D02*
X3390Y836D01*
X3616Y836D02*
X3690Y836D01*
X3316Y835D02*
X3391Y835D01*
X3616Y835D02*
X3691Y835D01*
X3315Y834D02*
X3391Y834D01*
X3615Y834D02*
X3691Y834D01*
X3315Y833D02*
X3391Y833D01*
X3615Y833D02*
X3691Y833D01*
X3315Y832D02*
X3391Y832D01*
X3615Y832D02*
X3691Y832D01*
X3315Y831D02*
X3392Y831D01*
X3615Y831D02*
X3692Y831D01*
X3314Y830D02*
X3392Y830D01*
X3614Y830D02*
X3692Y830D01*
X3314Y829D02*
X3392Y829D01*
X3614Y829D02*
X3692Y829D01*
X3314Y828D02*
X3392Y828D01*
X3614Y828D02*
X3692Y828D01*
X3314Y827D02*
X3392Y827D01*
X3614Y827D02*
X3692Y827D01*
X3314Y826D02*
X3392Y826D01*
X3614Y826D02*
X3692Y826D01*
X3314Y825D02*
X3393Y825D01*
X3614Y825D02*
X3693Y825D01*
X3314Y824D02*
X3393Y824D01*
X3614Y824D02*
X3693Y824D01*
X3314Y823D02*
X3393Y823D01*
X3614Y823D02*
X3693Y823D01*
X3314Y822D02*
X3393Y822D01*
X3614Y822D02*
X3693Y822D01*
X3314Y821D02*
X3393Y821D01*
X3614Y821D02*
X3693Y821D01*
X3314Y820D02*
X3393Y820D01*
X3614Y820D02*
X3693Y820D01*
X3314Y819D02*
X3392Y819D01*
X3614Y819D02*
X3692Y819D01*
X3314Y818D02*
X3392Y818D01*
X3614Y818D02*
X3692Y818D01*
X3314Y817D02*
X3392Y817D01*
X3614Y817D02*
X3692Y817D01*
X3314Y816D02*
X3392Y816D01*
X3614Y816D02*
X3692Y816D01*
X3314Y815D02*
X3392Y815D01*
X3614Y815D02*
X3692Y815D01*
X3315Y814D02*
X3392Y814D01*
X3615Y814D02*
X3692Y814D01*
X3315Y813D02*
X3391Y813D01*
X3615Y813D02*
X3691Y813D01*
X3315Y812D02*
X3391Y812D01*
X3615Y812D02*
X3691Y812D01*
X3315Y811D02*
X3391Y811D01*
X3615Y811D02*
X3691Y811D01*
X3316Y810D02*
X3391Y810D01*
X3616Y810D02*
X3691Y810D01*
X3316Y809D02*
X3390Y809D01*
X3616Y809D02*
X3690Y809D01*
X3316Y808D02*
X3390Y808D01*
X3616Y808D02*
X3690Y808D01*
X3317Y807D02*
X3390Y807D01*
X3617Y807D02*
X3690Y807D01*
X3317Y806D02*
X3389Y806D01*
X3617Y806D02*
X3689Y806D01*
X3318Y805D02*
X3389Y805D01*
X3618Y805D02*
X3689Y805D01*
X3318Y804D02*
X3388Y804D01*
X3618Y804D02*
X3688Y804D01*
X3319Y803D02*
X3388Y803D01*
X3619Y803D02*
X3688Y803D01*
X3319Y802D02*
X3387Y802D01*
X3619Y802D02*
X3687Y802D01*
X3320Y801D02*
X3386Y801D01*
X3620Y801D02*
X3686Y801D01*
X3321Y800D02*
X3386Y800D01*
X3621Y800D02*
X3686Y800D01*
X3321Y799D02*
X3385Y799D01*
X3621Y799D02*
X3685Y799D01*
X3322Y798D02*
X3384Y798D01*
X3622Y798D02*
X3684Y798D01*
X3323Y797D02*
X3384Y797D01*
X3623Y797D02*
X3683Y797D01*
X3324Y796D02*
X3383Y796D01*
X3624Y796D02*
X3683Y796D01*
X3325Y795D02*
X3382Y795D01*
X3625Y795D02*
X3682Y795D01*
X3326Y794D02*
X3381Y794D01*
X3626Y794D02*
X3681Y794D01*
X3327Y793D02*
X3380Y793D01*
X3627Y793D02*
X3680Y793D01*
X3328Y792D02*
X3379Y792D01*
X3628Y792D02*
X3679Y792D01*
X3329Y791D02*
X3377Y791D01*
X3629Y791D02*
X3677Y791D01*
X3330Y790D02*
X3376Y790D01*
X3630Y790D02*
X3676Y790D01*
X3332Y789D02*
X3374Y789D01*
X3632Y789D02*
X3674Y789D01*
X3334Y788D02*
X3373Y788D01*
X3633Y788D02*
X3673Y788D01*
X3335Y787D02*
X3371Y787D01*
X3635Y787D02*
X3671Y787D01*
X3337Y786D02*
X3369Y786D01*
X3637Y786D02*
X3669Y786D01*
X3340Y785D02*
X3367Y785D01*
X3640Y785D02*
X3667Y785D01*
X3343Y784D02*
X3363Y784D01*
X3643Y784D02*
X3663Y784D01*
X3348Y783D02*
X3359Y783D01*
X3648Y783D02*
X3659Y783D01*
X3348Y762D02*
X3358Y762D01*
X3648Y762D02*
X3658Y762D01*
X3343Y761D02*
X3363Y761D01*
X3643Y761D02*
X3663Y761D01*
X3340Y760D02*
X3366Y760D01*
X3640Y760D02*
X3666Y760D01*
X3338Y759D02*
X3369Y759D01*
X3638Y759D02*
X3669Y759D01*
X3336Y758D02*
X3371Y758D01*
X3635Y758D02*
X3671Y758D01*
X3334Y757D02*
X3373Y757D01*
X3634Y757D02*
X3673Y757D01*
X3332Y756D02*
X3374Y756D01*
X3632Y756D02*
X3674Y756D01*
X3331Y755D02*
X3376Y755D01*
X3631Y755D02*
X3676Y755D01*
X3329Y754D02*
X3377Y754D01*
X3629Y754D02*
X3677Y754D01*
X3328Y753D02*
X3378Y753D01*
X3628Y753D02*
X3678Y753D01*
X3327Y752D02*
X3380Y752D01*
X3627Y752D02*
X3680Y752D01*
X3326Y751D02*
X3381Y751D01*
X3626Y751D02*
X3681Y751D01*
X3325Y750D02*
X3382Y750D01*
X3625Y750D02*
X3682Y750D01*
X3324Y749D02*
X3383Y749D01*
X3624Y749D02*
X3683Y749D01*
X3323Y748D02*
X3383Y748D01*
X3623Y748D02*
X3683Y748D01*
X3322Y747D02*
X3384Y747D01*
X3622Y747D02*
X3684Y747D01*
X3321Y746D02*
X3385Y746D01*
X3621Y746D02*
X3685Y746D01*
X3321Y745D02*
X3386Y745D01*
X3621Y745D02*
X3686Y745D01*
X3320Y744D02*
X3386Y744D01*
X3620Y744D02*
X3686Y744D01*
X3319Y743D02*
X3387Y743D01*
X3619Y743D02*
X3687Y743D01*
X3319Y742D02*
X3388Y742D01*
X3619Y742D02*
X3687Y742D01*
X3318Y741D02*
X3388Y741D01*
X3618Y741D02*
X3688Y741D01*
X3318Y740D02*
X3389Y740D01*
X3618Y740D02*
X3689Y740D01*
X3317Y739D02*
X3389Y739D01*
X3617Y739D02*
X3689Y739D01*
X3317Y738D02*
X3390Y738D01*
X3617Y738D02*
X3690Y738D01*
X3316Y737D02*
X3390Y737D01*
X3616Y737D02*
X3690Y737D01*
X3316Y736D02*
X3390Y736D01*
X3616Y736D02*
X3690Y736D01*
X3316Y735D02*
X3391Y735D01*
X3616Y735D02*
X3691Y735D01*
X3315Y734D02*
X3391Y734D01*
X3615Y734D02*
X3691Y734D01*
X3315Y733D02*
X3391Y733D01*
X3615Y733D02*
X3691Y733D01*
X3315Y732D02*
X3391Y732D01*
X3615Y732D02*
X3691Y732D01*
X3315Y731D02*
X3392Y731D01*
X3615Y731D02*
X3692Y731D01*
X3314Y730D02*
X3392Y730D01*
X3614Y730D02*
X3692Y730D01*
X3314Y729D02*
X3392Y729D01*
X3614Y729D02*
X3692Y729D01*
X3314Y728D02*
X3392Y728D01*
X3614Y728D02*
X3692Y728D01*
X3314Y727D02*
X3392Y727D01*
X3614Y727D02*
X3692Y727D01*
X3314Y726D02*
X3392Y726D01*
X3614Y726D02*
X3692Y726D01*
X3314Y725D02*
X3393Y725D01*
X3614Y725D02*
X3693Y725D01*
X3314Y724D02*
X3393Y724D01*
X3614Y724D02*
X3693Y724D01*
X3314Y723D02*
X3393Y723D01*
X3614Y723D02*
X3693Y723D01*
X3314Y722D02*
X3393Y722D01*
X3614Y722D02*
X3693Y722D01*
X3314Y721D02*
X3393Y721D01*
X3614Y721D02*
X3693Y721D01*
X3314Y720D02*
X3393Y720D01*
X3614Y720D02*
X3693Y720D01*
X3314Y719D02*
X3392Y719D01*
X3614Y719D02*
X3692Y719D01*
X3314Y718D02*
X3392Y718D01*
X3614Y718D02*
X3692Y718D01*
X3314Y717D02*
X3392Y717D01*
X3614Y717D02*
X3692Y717D01*
X3314Y716D02*
X3392Y716D01*
X3614Y716D02*
X3692Y716D01*
X3314Y715D02*
X3392Y715D01*
X3614Y715D02*
X3692Y715D01*
X3315Y714D02*
X3392Y714D01*
X3615Y714D02*
X3692Y714D01*
X3315Y713D02*
X3391Y713D01*
X3615Y713D02*
X3691Y713D01*
X3315Y712D02*
X3391Y712D01*
X3615Y712D02*
X3691Y712D01*
X3315Y711D02*
X3391Y711D01*
X3615Y711D02*
X3691Y711D01*
X3316Y710D02*
X3391Y710D01*
X3616Y710D02*
X3691Y710D01*
X3316Y709D02*
X3390Y709D01*
X3616Y709D02*
X3690Y709D01*
X3316Y708D02*
X3390Y708D01*
X3616Y708D02*
X3690Y708D01*
X3317Y707D02*
X3390Y707D01*
X3617Y707D02*
X3690Y707D01*
X3317Y706D02*
X3389Y706D01*
X3617Y706D02*
X3689Y706D01*
X3318Y705D02*
X3389Y705D01*
X3618Y705D02*
X3689Y705D01*
X3318Y704D02*
X3388Y704D01*
X3618Y704D02*
X3688Y704D01*
X3319Y703D02*
X3388Y703D01*
X3619Y703D02*
X3688Y703D01*
X3319Y702D02*
X3387Y702D01*
X3619Y702D02*
X3687Y702D01*
X3320Y701D02*
X3386Y701D01*
X3620Y701D02*
X3686Y701D01*
X3321Y700D02*
X3386Y700D01*
X3621Y700D02*
X3686Y700D01*
X3321Y699D02*
X3385Y699D01*
X3621Y699D02*
X3685Y699D01*
X3322Y698D02*
X3384Y698D01*
X3622Y698D02*
X3684Y698D01*
X3323Y697D02*
X3383Y697D01*
X3623Y697D02*
X3683Y697D01*
X3324Y696D02*
X3383Y696D01*
X3624Y696D02*
X3683Y696D01*
X3325Y695D02*
X3382Y695D01*
X3625Y695D02*
X3682Y695D01*
X3326Y694D02*
X3381Y694D01*
X3626Y694D02*
X3681Y694D01*
X3327Y693D02*
X3380Y693D01*
X3627Y693D02*
X3680Y693D01*
X3328Y692D02*
X3379Y692D01*
X3628Y692D02*
X3679Y692D01*
X3329Y691D02*
X3377Y691D01*
X3629Y691D02*
X3677Y691D01*
X3330Y690D02*
X3376Y690D01*
X3630Y690D02*
X3676Y690D01*
X3332Y689D02*
X3374Y689D01*
X3632Y689D02*
X3674Y689D01*
X3334Y688D02*
X3373Y688D01*
X3634Y688D02*
X3673Y688D01*
X3335Y687D02*
X3371Y687D01*
X3635Y687D02*
X3671Y687D01*
X3337Y686D02*
X3369Y686D01*
X3637Y686D02*
X3669Y686D01*
X3340Y685D02*
X3367Y685D01*
X3640Y685D02*
X3667Y685D01*
X3343Y684D02*
X3363Y684D01*
X3643Y684D02*
X3663Y684D01*
X3348Y683D02*
X3359Y683D01*
X3648Y683D02*
X3659Y683D01*
X3348Y662D02*
X3358Y662D01*
X3648Y662D02*
X3658Y662D01*
X3343Y661D02*
X3363Y661D01*
X3643Y661D02*
X3663Y661D01*
X3340Y660D02*
X3366Y660D01*
X3640Y660D02*
X3666Y660D01*
X3337Y659D02*
X3369Y659D01*
X3637Y659D02*
X3669Y659D01*
X3335Y658D02*
X3371Y658D01*
X3635Y658D02*
X3671Y658D01*
X3334Y657D02*
X3373Y657D01*
X3634Y657D02*
X3673Y657D01*
X3332Y656D02*
X3374Y656D01*
X3632Y656D02*
X3674Y656D01*
X3331Y655D02*
X3376Y655D01*
X3631Y655D02*
X3676Y655D01*
X3329Y654D02*
X3377Y654D01*
X3629Y654D02*
X3677Y654D01*
X3328Y653D02*
X3378Y653D01*
X3628Y653D02*
X3678Y653D01*
X3327Y652D02*
X3380Y652D01*
X3627Y652D02*
X3680Y652D01*
X3326Y651D02*
X3381Y651D01*
X3626Y651D02*
X3681Y651D01*
X3325Y650D02*
X3382Y650D01*
X3625Y650D02*
X3682Y650D01*
X3324Y649D02*
X3383Y649D01*
X3624Y649D02*
X3683Y649D01*
X3323Y648D02*
X3383Y648D01*
X3623Y648D02*
X3683Y648D01*
X3322Y647D02*
X3384Y647D01*
X3622Y647D02*
X3684Y647D01*
X3321Y646D02*
X3385Y646D01*
X3621Y646D02*
X3685Y646D01*
X3321Y645D02*
X3386Y645D01*
X3621Y645D02*
X3686Y645D01*
X3320Y644D02*
X3386Y644D01*
X3620Y644D02*
X3686Y644D01*
X3319Y643D02*
X3387Y643D01*
X3619Y643D02*
X3687Y643D01*
X3319Y642D02*
X3388Y642D01*
X3619Y642D02*
X3688Y642D01*
X3318Y641D02*
X3388Y641D01*
X3618Y641D02*
X3688Y641D01*
X3318Y640D02*
X3389Y640D01*
X3618Y640D02*
X3689Y640D01*
X3317Y639D02*
X3389Y639D01*
X3617Y639D02*
X3689Y639D01*
X3317Y638D02*
X3390Y638D01*
X3617Y638D02*
X3690Y638D01*
X3316Y637D02*
X3390Y637D01*
X3616Y637D02*
X3690Y637D01*
X3316Y636D02*
X3390Y636D01*
X3616Y636D02*
X3690Y636D01*
X3316Y635D02*
X3391Y635D01*
X3616Y635D02*
X3691Y635D01*
X3315Y634D02*
X3391Y634D01*
X3615Y634D02*
X3691Y634D01*
X3315Y633D02*
X3391Y633D01*
X3615Y633D02*
X3691Y633D01*
X3315Y632D02*
X3391Y632D01*
X3615Y632D02*
X3691Y632D01*
X3315Y631D02*
X3392Y631D01*
X3615Y631D02*
X3692Y631D01*
X3314Y630D02*
X3392Y630D01*
X3614Y630D02*
X3692Y630D01*
X3314Y629D02*
X3392Y629D01*
X3614Y629D02*
X3692Y629D01*
X3314Y628D02*
X3392Y628D01*
X3614Y628D02*
X3692Y628D01*
X3314Y627D02*
X3392Y627D01*
X3614Y627D02*
X3692Y627D01*
X3314Y626D02*
X3392Y626D01*
X3614Y626D02*
X3692Y626D01*
X3314Y625D02*
X3393Y625D01*
X3614Y625D02*
X3693Y625D01*
X3314Y624D02*
X3393Y624D01*
X3614Y624D02*
X3693Y624D01*
X3314Y623D02*
X3393Y623D01*
X3614Y623D02*
X3693Y623D01*
X3314Y622D02*
X3393Y622D01*
X3614Y622D02*
X3693Y622D01*
X3314Y621D02*
X3393Y621D01*
X3614Y621D02*
X3693Y621D01*
X3314Y620D02*
X3393Y620D01*
X3614Y620D02*
X3693Y620D01*
X3314Y619D02*
X3392Y619D01*
X3614Y619D02*
X3692Y619D01*
X3314Y618D02*
X3392Y618D01*
X3614Y618D02*
X3692Y618D01*
X3314Y617D02*
X3392Y617D01*
X3614Y617D02*
X3692Y617D01*
X3314Y616D02*
X3392Y616D01*
X3614Y616D02*
X3692Y616D01*
X3314Y615D02*
X3392Y615D01*
X3614Y615D02*
X3692Y615D01*
X3315Y614D02*
X3392Y614D01*
X3615Y614D02*
X3692Y614D01*
X3315Y613D02*
X3391Y613D01*
X3615Y613D02*
X3691Y613D01*
X3315Y612D02*
X3391Y612D01*
X3615Y612D02*
X3691Y612D01*
X3315Y611D02*
X3391Y611D01*
X3615Y611D02*
X3691Y611D01*
X3316Y610D02*
X3391Y610D01*
X3616Y610D02*
X3691Y610D01*
X3316Y609D02*
X3390Y609D01*
X3616Y609D02*
X3690Y609D01*
X3316Y608D02*
X3390Y608D01*
X3616Y608D02*
X3690Y608D01*
X3317Y607D02*
X3390Y607D01*
X3617Y607D02*
X3690Y607D01*
X3317Y606D02*
X3389Y606D01*
X3617Y606D02*
X3689Y606D01*
X3318Y605D02*
X3389Y605D01*
X3618Y605D02*
X3689Y605D01*
X3318Y604D02*
X3388Y604D01*
X3618Y604D02*
X3688Y604D01*
X3319Y603D02*
X3388Y603D01*
X3619Y603D02*
X3688Y603D01*
X3319Y602D02*
X3387Y602D01*
X3619Y602D02*
X3687Y602D01*
X3320Y601D02*
X3386Y601D01*
X3620Y601D02*
X3686Y601D01*
X3321Y600D02*
X3386Y600D01*
X3621Y600D02*
X3686Y600D01*
X3321Y599D02*
X3385Y599D01*
X3621Y599D02*
X3685Y599D01*
X3322Y598D02*
X3384Y598D01*
X3622Y598D02*
X3684Y598D01*
X3323Y597D02*
X3383Y597D01*
X3623Y597D02*
X3683Y597D01*
X3324Y596D02*
X3383Y596D01*
X3624Y596D02*
X3683Y596D01*
X3325Y595D02*
X3382Y595D01*
X3625Y595D02*
X3682Y595D01*
X3326Y594D02*
X3381Y594D01*
X3626Y594D02*
X3681Y594D01*
X3327Y593D02*
X3380Y593D01*
X3627Y593D02*
X3680Y593D01*
X3328Y592D02*
X3379Y592D01*
X3628Y592D02*
X3679Y592D01*
X3329Y591D02*
X3377Y591D01*
X3629Y591D02*
X3677Y591D01*
X3331Y590D02*
X3376Y590D01*
X3630Y590D02*
X3676Y590D01*
X3332Y589D02*
X3374Y589D01*
X3632Y589D02*
X3674Y589D01*
X3334Y588D02*
X3373Y588D01*
X3634Y588D02*
X3673Y588D01*
X3335Y587D02*
X3371Y587D01*
X3635Y587D02*
X3671Y587D01*
X3337Y586D02*
X3369Y586D01*
X3637Y586D02*
X3669Y586D01*
X3340Y585D02*
X3366Y585D01*
X3640Y585D02*
X3666Y585D01*
X3343Y584D02*
X3363Y584D01*
X3643Y584D02*
X3663Y584D01*
X3348Y583D02*
X3358Y583D01*
X3648Y583D02*
X3658Y583D01*
X3348Y562D02*
X3358Y562D01*
X3648Y562D02*
X3658Y562D01*
X3343Y561D02*
X3363Y561D01*
X3643Y561D02*
X3663Y561D01*
X3340Y560D02*
X3366Y560D01*
X3640Y560D02*
X3666Y560D01*
X3337Y559D02*
X3369Y559D01*
X3637Y559D02*
X3669Y559D01*
X3335Y558D02*
X3371Y558D01*
X3635Y558D02*
X3671Y558D01*
X3334Y557D02*
X3373Y557D01*
X3634Y557D02*
X3673Y557D01*
X3332Y556D02*
X3374Y556D01*
X3632Y556D02*
X3674Y556D01*
X3331Y555D02*
X3376Y555D01*
X3631Y555D02*
X3676Y555D01*
X3329Y554D02*
X3377Y554D01*
X3629Y554D02*
X3677Y554D01*
X3328Y553D02*
X3378Y553D01*
X3628Y553D02*
X3678Y553D01*
X3327Y552D02*
X3380Y552D01*
X3627Y552D02*
X3680Y552D01*
X3326Y551D02*
X3381Y551D01*
X3626Y551D02*
X3681Y551D01*
X3325Y550D02*
X3382Y550D01*
X3625Y550D02*
X3682Y550D01*
X3324Y549D02*
X3383Y549D01*
X3624Y549D02*
X3683Y549D01*
X3323Y548D02*
X3383Y548D01*
X3623Y548D02*
X3683Y548D01*
X3322Y547D02*
X3384Y547D01*
X3622Y547D02*
X3684Y547D01*
X3321Y546D02*
X3385Y546D01*
X3621Y546D02*
X3685Y546D01*
X3321Y545D02*
X3386Y545D01*
X3621Y545D02*
X3686Y545D01*
X3320Y544D02*
X3386Y544D01*
X3620Y544D02*
X3686Y544D01*
X3319Y543D02*
X3387Y543D01*
X3619Y543D02*
X3687Y543D01*
X3319Y542D02*
X3388Y542D01*
X3619Y542D02*
X3688Y542D01*
X3318Y541D02*
X3388Y541D01*
X3618Y541D02*
X3688Y541D01*
X3318Y540D02*
X3389Y540D01*
X3618Y540D02*
X3689Y540D01*
X3317Y539D02*
X3389Y539D01*
X3617Y539D02*
X3689Y539D01*
X3317Y538D02*
X3390Y538D01*
X3617Y538D02*
X3690Y538D01*
X3316Y537D02*
X3390Y537D01*
X3616Y537D02*
X3690Y537D01*
X3316Y536D02*
X3390Y536D01*
X3616Y536D02*
X3690Y536D01*
X3316Y535D02*
X3391Y535D01*
X3616Y535D02*
X3691Y535D01*
X3315Y534D02*
X3391Y534D01*
X3615Y534D02*
X3691Y534D01*
X3315Y533D02*
X3391Y533D01*
X3615Y533D02*
X3691Y533D01*
X3315Y532D02*
X3391Y532D01*
X3615Y532D02*
X3691Y532D01*
X3315Y531D02*
X3392Y531D01*
X3615Y531D02*
X3692Y531D01*
X3314Y530D02*
X3392Y530D01*
X3614Y530D02*
X3692Y530D01*
X3314Y529D02*
X3392Y529D01*
X3614Y529D02*
X3692Y529D01*
X3314Y528D02*
X3392Y528D01*
X3614Y528D02*
X3692Y528D01*
X3314Y527D02*
X3392Y527D01*
X3614Y527D02*
X3692Y527D01*
X3314Y526D02*
X3392Y526D01*
X3614Y526D02*
X3692Y526D01*
X3314Y525D02*
X3393Y525D01*
X3614Y525D02*
X3693Y525D01*
X3314Y524D02*
X3393Y524D01*
X3614Y524D02*
X3693Y524D01*
X3314Y523D02*
X3393Y523D01*
X3614Y523D02*
X3693Y523D01*
X3314Y522D02*
X3393Y522D01*
X3614Y522D02*
X3693Y522D01*
X3314Y521D02*
X3393Y521D01*
X3614Y521D02*
X3693Y521D01*
X3314Y520D02*
X3393Y520D01*
X3614Y520D02*
X3693Y520D01*
X3314Y519D02*
X3392Y519D01*
X3614Y519D02*
X3692Y519D01*
X3314Y518D02*
X3392Y518D01*
X3614Y518D02*
X3692Y518D01*
X3314Y517D02*
X3392Y517D01*
X3614Y517D02*
X3692Y517D01*
X3314Y516D02*
X3392Y516D01*
X3614Y516D02*
X3692Y516D01*
X3314Y515D02*
X3392Y515D01*
X3614Y515D02*
X3692Y515D01*
X3315Y514D02*
X3392Y514D01*
X3615Y514D02*
X3692Y514D01*
X3315Y513D02*
X3391Y513D01*
X3615Y513D02*
X3691Y513D01*
X3315Y512D02*
X3391Y512D01*
X3615Y512D02*
X3691Y512D01*
X3315Y511D02*
X3391Y511D01*
X3615Y511D02*
X3691Y511D01*
X3316Y510D02*
X3391Y510D01*
X3616Y510D02*
X3691Y510D01*
X3316Y509D02*
X3390Y509D01*
X3616Y509D02*
X3690Y509D01*
X3316Y508D02*
X3390Y508D01*
X3616Y508D02*
X3690Y508D01*
X3317Y507D02*
X3390Y507D01*
X3617Y507D02*
X3690Y507D01*
X3317Y506D02*
X3389Y506D01*
X3617Y506D02*
X3689Y506D01*
X3318Y505D02*
X3389Y505D01*
X3618Y505D02*
X3689Y505D01*
X3318Y504D02*
X3388Y504D01*
X3618Y504D02*
X3688Y504D01*
X3319Y503D02*
X3388Y503D01*
X3619Y503D02*
X3688Y503D01*
X3319Y502D02*
X3387Y502D01*
X3619Y502D02*
X3687Y502D01*
X3320Y501D02*
X3386Y501D01*
X3620Y501D02*
X3686Y501D01*
X3321Y500D02*
X3386Y500D01*
X3621Y500D02*
X3686Y500D01*
X3321Y499D02*
X3385Y499D01*
X3621Y499D02*
X3685Y499D01*
X3322Y498D02*
X3384Y498D01*
X3622Y498D02*
X3684Y498D01*
X3323Y497D02*
X3383Y497D01*
X3623Y497D02*
X3683Y497D01*
X3324Y496D02*
X3383Y496D01*
X3624Y496D02*
X3683Y496D01*
X3325Y495D02*
X3382Y495D01*
X3625Y495D02*
X3682Y495D01*
X3326Y494D02*
X3381Y494D01*
X3626Y494D02*
X3681Y494D01*
X3327Y493D02*
X3380Y493D01*
X3627Y493D02*
X3680Y493D01*
X3328Y492D02*
X3378Y492D01*
X3628Y492D02*
X3678Y492D01*
X3329Y491D02*
X3377Y491D01*
X3629Y491D02*
X3677Y491D01*
X3331Y490D02*
X3376Y490D01*
X3631Y490D02*
X3676Y490D01*
X3332Y489D02*
X3374Y489D01*
X3632Y489D02*
X3674Y489D01*
X3334Y488D02*
X3373Y488D01*
X3634Y488D02*
X3673Y488D01*
X3335Y487D02*
X3371Y487D01*
X3635Y487D02*
X3671Y487D01*
X3337Y486D02*
X3369Y486D01*
X3637Y486D02*
X3669Y486D01*
X3340Y485D02*
X3366Y485D01*
X3640Y485D02*
X3666Y485D01*
X3343Y484D02*
X3363Y484D01*
X3643Y484D02*
X3663Y484D01*
X3348Y483D02*
X3358Y483D01*
X3648Y483D02*
X3658Y483D01*
X3348Y462D02*
X3358Y462D01*
X3648Y462D02*
X3658Y462D01*
X3343Y461D02*
X3363Y461D01*
X3643Y461D02*
X3663Y461D01*
X3340Y460D02*
X3367Y460D01*
X3640Y460D02*
X3666Y460D01*
X3337Y459D02*
X3369Y459D01*
X3637Y459D02*
X3669Y459D01*
X3335Y458D02*
X3371Y458D01*
X3635Y458D02*
X3671Y458D01*
X3334Y457D02*
X3373Y457D01*
X3634Y457D02*
X3673Y457D01*
X3332Y456D02*
X3374Y456D01*
X3632Y456D02*
X3674Y456D01*
X3331Y455D02*
X3376Y455D01*
X3630Y455D02*
X3676Y455D01*
X3329Y454D02*
X3377Y454D01*
X3629Y454D02*
X3677Y454D01*
X3328Y453D02*
X3379Y453D01*
X3628Y453D02*
X3679Y453D01*
X3327Y452D02*
X3380Y452D01*
X3627Y452D02*
X3680Y452D01*
X3326Y451D02*
X3381Y451D01*
X3626Y451D02*
X3681Y451D01*
X3325Y450D02*
X3382Y450D01*
X3625Y450D02*
X3682Y450D01*
X3324Y449D02*
X3383Y449D01*
X3624Y449D02*
X3683Y449D01*
X3323Y448D02*
X3383Y448D01*
X3623Y448D02*
X3683Y448D01*
X3322Y447D02*
X3384Y447D01*
X3622Y447D02*
X3684Y447D01*
X3321Y446D02*
X3385Y446D01*
X3621Y446D02*
X3685Y446D01*
X3321Y445D02*
X3386Y445D01*
X3621Y445D02*
X3686Y445D01*
X3320Y444D02*
X3386Y444D01*
X3620Y444D02*
X3686Y444D01*
X3319Y443D02*
X3387Y443D01*
X3619Y443D02*
X3687Y443D01*
X3319Y442D02*
X3388Y442D01*
X3619Y442D02*
X3688Y442D01*
X3318Y441D02*
X3388Y441D01*
X3618Y441D02*
X3688Y441D01*
X3318Y440D02*
X3389Y440D01*
X3618Y440D02*
X3689Y440D01*
X3317Y439D02*
X3389Y439D01*
X3617Y439D02*
X3689Y439D01*
X3317Y438D02*
X3390Y438D01*
X3617Y438D02*
X3690Y438D01*
X3316Y437D02*
X3390Y437D01*
X3616Y437D02*
X3690Y437D01*
X3316Y436D02*
X3390Y436D01*
X3616Y436D02*
X3690Y436D01*
X3316Y435D02*
X3391Y435D01*
X3616Y435D02*
X3691Y435D01*
X3315Y434D02*
X3391Y434D01*
X3615Y434D02*
X3691Y434D01*
X3315Y433D02*
X3391Y433D01*
X3615Y433D02*
X3691Y433D01*
X3315Y432D02*
X3391Y432D01*
X3615Y432D02*
X3691Y432D01*
X3315Y431D02*
X3392Y431D01*
X3615Y431D02*
X3692Y431D01*
X3314Y430D02*
X3392Y430D01*
X3614Y430D02*
X3692Y430D01*
X3314Y429D02*
X3392Y429D01*
X3614Y429D02*
X3692Y429D01*
X3314Y428D02*
X3392Y428D01*
X3614Y428D02*
X3692Y428D01*
X3314Y427D02*
X3392Y427D01*
X3614Y427D02*
X3692Y427D01*
X3314Y426D02*
X3392Y426D01*
X3614Y426D02*
X3692Y426D01*
X3314Y425D02*
X3393Y425D01*
X3614Y425D02*
X3693Y425D01*
X3314Y424D02*
X3393Y424D01*
X3614Y424D02*
X3693Y424D01*
X3314Y423D02*
X3393Y423D01*
X3614Y423D02*
X3693Y423D01*
X3314Y422D02*
X3393Y422D01*
X3614Y422D02*
X3693Y422D01*
X3314Y421D02*
X3393Y421D01*
X3614Y421D02*
X3693Y421D01*
X3314Y420D02*
X3393Y420D01*
X3614Y420D02*
X3693Y420D01*
X3314Y419D02*
X3392Y419D01*
X3614Y419D02*
X3692Y419D01*
X3314Y418D02*
X3392Y418D01*
X3614Y418D02*
X3692Y418D01*
X3314Y417D02*
X3392Y417D01*
X3614Y417D02*
X3692Y417D01*
X3314Y416D02*
X3392Y416D01*
X3614Y416D02*
X3692Y416D01*
X3314Y415D02*
X3392Y415D01*
X3614Y415D02*
X3692Y415D01*
X3315Y414D02*
X3392Y414D01*
X3615Y414D02*
X3692Y414D01*
X3315Y413D02*
X3391Y413D01*
X3615Y413D02*
X3691Y413D01*
X3315Y412D02*
X3391Y412D01*
X3615Y412D02*
X3691Y412D01*
X3315Y411D02*
X3391Y411D01*
X3615Y411D02*
X3691Y411D01*
X3316Y410D02*
X3391Y410D01*
X3616Y410D02*
X3691Y410D01*
X3316Y409D02*
X3390Y409D01*
X3616Y409D02*
X3690Y409D01*
X3316Y408D02*
X3390Y408D01*
X3616Y408D02*
X3690Y408D01*
X3317Y407D02*
X3390Y407D01*
X3617Y407D02*
X3690Y407D01*
X3317Y406D02*
X3389Y406D01*
X3617Y406D02*
X3689Y406D01*
X3318Y405D02*
X3389Y405D01*
X3618Y405D02*
X3689Y405D01*
X3318Y404D02*
X3388Y404D01*
X3618Y404D02*
X3688Y404D01*
X3319Y403D02*
X3388Y403D01*
X3619Y403D02*
X3688Y403D01*
X3319Y402D02*
X3387Y402D01*
X3619Y402D02*
X3687Y402D01*
X3320Y401D02*
X3386Y401D01*
X3620Y401D02*
X3686Y401D01*
X3321Y400D02*
X3386Y400D01*
X3621Y400D02*
X3686Y400D01*
X3321Y399D02*
X3385Y399D01*
X3621Y399D02*
X3685Y399D01*
X3322Y398D02*
X3384Y398D01*
X3622Y398D02*
X3684Y398D01*
X3323Y397D02*
X3383Y397D01*
X3623Y397D02*
X3683Y397D01*
X3324Y396D02*
X3383Y396D01*
X3624Y396D02*
X3683Y396D01*
X3325Y395D02*
X3382Y395D01*
X3625Y395D02*
X3682Y395D01*
X3326Y394D02*
X3381Y394D01*
X3626Y394D02*
X3681Y394D01*
X3327Y393D02*
X3380Y393D01*
X3627Y393D02*
X3680Y393D01*
X3328Y392D02*
X3378Y392D01*
X3628Y392D02*
X3678Y392D01*
X3329Y391D02*
X3377Y391D01*
X3629Y391D02*
X3677Y391D01*
X3331Y390D02*
X3376Y390D01*
X3631Y390D02*
X3676Y390D01*
X3332Y389D02*
X3374Y389D01*
X3632Y389D02*
X3674Y389D01*
X3334Y388D02*
X3373Y388D01*
X3634Y388D02*
X3673Y388D01*
X3335Y387D02*
X3371Y387D01*
X3635Y387D02*
X3671Y387D01*
X3337Y386D02*
X3369Y386D01*
X3637Y386D02*
X3669Y386D01*
X3340Y385D02*
X3366Y385D01*
X3640Y385D02*
X3666Y385D01*
X3343Y384D02*
X3363Y384D01*
X3643Y384D02*
X3663Y384D01*
X3348Y383D02*
X3358Y383D01*
X3648Y383D02*
X3658Y383D01*
X3348Y362D02*
X3359Y362D01*
X3648Y362D02*
X3659Y362D01*
X3343Y361D02*
X3363Y361D01*
X3643Y361D02*
X3663Y361D01*
X3340Y360D02*
X3367Y360D01*
X3640Y360D02*
X3667Y360D01*
X3337Y359D02*
X3369Y359D01*
X3637Y359D02*
X3669Y359D01*
X3335Y358D02*
X3371Y358D01*
X3635Y358D02*
X3671Y358D01*
X3334Y357D02*
X3373Y357D01*
X3634Y357D02*
X3673Y357D01*
X3332Y356D02*
X3374Y356D01*
X3632Y356D02*
X3674Y356D01*
X3330Y355D02*
X3376Y355D01*
X3630Y355D02*
X3676Y355D01*
X3329Y354D02*
X3377Y354D01*
X3629Y354D02*
X3677Y354D01*
X3328Y353D02*
X3379Y353D01*
X3628Y353D02*
X3679Y353D01*
X3327Y352D02*
X3380Y352D01*
X3627Y352D02*
X3680Y352D01*
X3326Y351D02*
X3381Y351D01*
X3626Y351D02*
X3681Y351D01*
X3325Y350D02*
X3382Y350D01*
X3625Y350D02*
X3682Y350D01*
X3324Y349D02*
X3383Y349D01*
X3624Y349D02*
X3683Y349D01*
X3323Y348D02*
X3383Y348D01*
X3623Y348D02*
X3683Y348D01*
X3322Y347D02*
X3384Y347D01*
X3622Y347D02*
X3684Y347D01*
X3321Y346D02*
X3385Y346D01*
X3621Y346D02*
X3685Y346D01*
X3321Y345D02*
X3386Y345D01*
X3621Y345D02*
X3686Y345D01*
X3320Y344D02*
X3386Y344D01*
X3620Y344D02*
X3686Y344D01*
X3319Y343D02*
X3387Y343D01*
X3619Y343D02*
X3687Y343D01*
X3319Y342D02*
X3388Y342D01*
X3619Y342D02*
X3688Y342D01*
X3318Y341D02*
X3388Y341D01*
X3618Y341D02*
X3688Y341D01*
X3318Y340D02*
X3389Y340D01*
X3618Y340D02*
X3689Y340D01*
X3317Y339D02*
X3389Y339D01*
X3617Y339D02*
X3689Y339D01*
X3317Y338D02*
X3390Y338D01*
X3617Y338D02*
X3690Y338D01*
X3316Y337D02*
X3390Y337D01*
X3616Y337D02*
X3690Y337D01*
X3316Y336D02*
X3390Y336D01*
X3616Y336D02*
X3690Y336D01*
X3316Y335D02*
X3391Y335D01*
X3616Y335D02*
X3691Y335D01*
X3315Y334D02*
X3391Y334D01*
X3615Y334D02*
X3691Y334D01*
X3315Y333D02*
X3391Y333D01*
X3615Y333D02*
X3691Y333D01*
X3315Y332D02*
X3391Y332D01*
X3615Y332D02*
X3691Y332D01*
X3315Y331D02*
X3392Y331D01*
X3615Y331D02*
X3692Y331D01*
X3314Y330D02*
X3392Y330D01*
X3614Y330D02*
X3692Y330D01*
X3314Y329D02*
X3392Y329D01*
X3614Y329D02*
X3692Y329D01*
X3314Y328D02*
X3392Y328D01*
X3614Y328D02*
X3692Y328D01*
X3314Y327D02*
X3392Y327D01*
X3614Y327D02*
X3692Y327D01*
X3314Y326D02*
X3392Y326D01*
X3614Y326D02*
X3692Y326D01*
X3314Y325D02*
X3393Y325D01*
X3614Y325D02*
X3693Y325D01*
X3314Y324D02*
X3393Y324D01*
X3614Y324D02*
X3693Y324D01*
X3314Y323D02*
X3393Y323D01*
X3614Y323D02*
X3693Y323D01*
X3314Y322D02*
X3393Y322D01*
X3614Y322D02*
X3693Y322D01*
X3314Y321D02*
X3393Y321D01*
X3614Y321D02*
X3693Y321D01*
X3314Y320D02*
X3393Y320D01*
X3614Y320D02*
X3693Y320D01*
X3314Y319D02*
X3392Y319D01*
X3614Y319D02*
X3692Y319D01*
X3314Y318D02*
X3392Y318D01*
X3614Y318D02*
X3692Y318D01*
X3314Y317D02*
X3392Y317D01*
X3614Y317D02*
X3692Y317D01*
X3314Y316D02*
X3392Y316D01*
X3614Y316D02*
X3692Y316D01*
X3314Y315D02*
X3392Y315D01*
X3614Y315D02*
X3692Y315D01*
X3315Y314D02*
X3392Y314D01*
X3615Y314D02*
X3692Y314D01*
X3315Y313D02*
X3391Y313D01*
X3615Y313D02*
X3691Y313D01*
X3315Y312D02*
X3391Y312D01*
X3615Y312D02*
X3691Y312D01*
X3315Y311D02*
X3391Y311D01*
X3615Y311D02*
X3691Y311D01*
X3316Y310D02*
X3391Y310D01*
X3616Y310D02*
X3691Y310D01*
X3316Y309D02*
X3390Y309D01*
X3616Y309D02*
X3690Y309D01*
X3316Y308D02*
X3390Y308D01*
X3616Y308D02*
X3690Y308D01*
X3317Y307D02*
X3390Y307D01*
X3617Y307D02*
X3690Y307D01*
X3317Y306D02*
X3389Y306D01*
X3617Y306D02*
X3689Y306D01*
X3318Y305D02*
X3389Y305D01*
X3618Y305D02*
X3689Y305D01*
X3318Y304D02*
X3388Y304D01*
X3618Y304D02*
X3688Y304D01*
X3319Y303D02*
X3388Y303D01*
X3619Y303D02*
X3687Y303D01*
X3319Y302D02*
X3387Y302D01*
X3619Y302D02*
X3687Y302D01*
X3320Y301D02*
X3386Y301D01*
X3620Y301D02*
X3686Y301D01*
X3321Y300D02*
X3386Y300D01*
X3621Y300D02*
X3686Y300D01*
X3321Y299D02*
X3385Y299D01*
X3621Y299D02*
X3685Y299D01*
X3322Y298D02*
X3384Y298D01*
X3622Y298D02*
X3684Y298D01*
X3323Y297D02*
X3383Y297D01*
X3623Y297D02*
X3683Y297D01*
X3324Y296D02*
X3383Y296D01*
X3624Y296D02*
X3683Y296D01*
X3325Y295D02*
X3382Y295D01*
X3625Y295D02*
X3682Y295D01*
X3326Y294D02*
X3381Y294D01*
X3626Y294D02*
X3681Y294D01*
X3327Y293D02*
X3380Y293D01*
X3627Y293D02*
X3680Y293D01*
X3328Y292D02*
X3378Y292D01*
X3628Y292D02*
X3678Y292D01*
X3329Y291D02*
X3377Y291D01*
X3629Y291D02*
X3677Y291D01*
X3331Y290D02*
X3376Y290D01*
X3631Y290D02*
X3676Y290D01*
X3332Y289D02*
X3374Y289D01*
X3632Y289D02*
X3674Y289D01*
X3334Y288D02*
X3373Y288D01*
X3634Y288D02*
X3673Y288D01*
X3336Y287D02*
X3371Y287D01*
X3635Y287D02*
X3671Y287D01*
X3338Y286D02*
X3369Y286D01*
X3638Y286D02*
X3669Y286D01*
X3340Y285D02*
X3366Y285D01*
X3640Y285D02*
X3666Y285D01*
X3343Y284D02*
X3363Y284D01*
X3643Y284D02*
X3663Y284D01*
X3349Y283D02*
X3358Y283D01*
X3649Y283D02*
X3658Y283D01*
X3348Y262D02*
X3359Y262D01*
X3648Y262D02*
X3659Y262D01*
X3343Y261D02*
X3363Y261D01*
X3643Y261D02*
X3663Y261D01*
X3340Y260D02*
X3367Y260D01*
X3640Y260D02*
X3667Y260D01*
X3337Y259D02*
X3369Y259D01*
X3637Y259D02*
X3669Y259D01*
X3335Y258D02*
X3371Y258D01*
X3635Y258D02*
X3671Y258D01*
X3334Y257D02*
X3373Y257D01*
X3633Y257D02*
X3673Y257D01*
X3332Y256D02*
X3375Y256D01*
X3632Y256D02*
X3674Y256D01*
X3330Y255D02*
X3376Y255D01*
X3630Y255D02*
X3676Y255D01*
X3329Y254D02*
X3377Y254D01*
X3629Y254D02*
X3677Y254D01*
X3328Y253D02*
X3379Y253D01*
X3628Y253D02*
X3679Y253D01*
X3327Y252D02*
X3380Y252D01*
X3627Y252D02*
X3680Y252D01*
X3326Y251D02*
X3381Y251D01*
X3626Y251D02*
X3681Y251D01*
X3325Y250D02*
X3382Y250D01*
X3625Y250D02*
X3682Y250D01*
X3324Y249D02*
X3383Y249D01*
X3624Y249D02*
X3683Y249D01*
X3323Y248D02*
X3384Y248D01*
X3623Y248D02*
X3683Y248D01*
X3322Y247D02*
X3384Y247D01*
X3622Y247D02*
X3684Y247D01*
X3321Y246D02*
X3385Y246D01*
X3621Y246D02*
X3685Y246D01*
X3321Y245D02*
X3386Y245D01*
X3621Y245D02*
X3686Y245D01*
X3320Y244D02*
X3386Y244D01*
X3620Y244D02*
X3686Y244D01*
X3319Y243D02*
X3387Y243D01*
X3619Y243D02*
X3687Y243D01*
X3319Y242D02*
X3388Y242D01*
X3619Y242D02*
X3688Y242D01*
X3318Y241D02*
X3388Y241D01*
X3618Y241D02*
X3688Y241D01*
X3318Y240D02*
X3389Y240D01*
X3618Y240D02*
X3689Y240D01*
X3317Y239D02*
X3389Y239D01*
X3617Y239D02*
X3689Y239D01*
X3317Y238D02*
X3390Y238D01*
X3617Y238D02*
X3690Y238D01*
X3316Y237D02*
X3390Y237D01*
X3616Y237D02*
X3690Y237D01*
X3316Y236D02*
X3390Y236D01*
X3616Y236D02*
X3690Y236D01*
X3316Y235D02*
X3391Y235D01*
X3616Y235D02*
X3691Y235D01*
X3315Y234D02*
X3391Y234D01*
X3615Y234D02*
X3691Y234D01*
X3315Y233D02*
X3391Y233D01*
X3615Y233D02*
X3691Y233D01*
X3315Y232D02*
X3391Y232D01*
X3615Y232D02*
X3691Y232D01*
X3315Y231D02*
X3392Y231D01*
X3615Y231D02*
X3692Y231D01*
X3314Y230D02*
X3392Y230D01*
X3614Y230D02*
X3692Y230D01*
X3314Y229D02*
X3392Y229D01*
X3614Y229D02*
X3692Y229D01*
X3314Y228D02*
X3392Y228D01*
X3614Y228D02*
X3692Y228D01*
X3314Y227D02*
X3392Y227D01*
X3614Y227D02*
X3692Y227D01*
X3314Y226D02*
X3392Y226D01*
X3614Y226D02*
X3692Y226D01*
X3314Y225D02*
X3393Y225D01*
X3614Y225D02*
X3693Y225D01*
X3314Y224D02*
X3393Y224D01*
X3614Y224D02*
X3693Y224D01*
X3314Y223D02*
X3393Y223D01*
X3614Y223D02*
X3693Y223D01*
X3314Y222D02*
X3393Y222D01*
X3614Y222D02*
X3693Y222D01*
X3314Y221D02*
X3393Y221D01*
X3614Y221D02*
X3693Y221D01*
X3314Y220D02*
X3393Y220D01*
X3614Y220D02*
X3693Y220D01*
X3314Y219D02*
X3392Y219D01*
X3614Y219D02*
X3692Y219D01*
X3314Y218D02*
X3392Y218D01*
X3614Y218D02*
X3692Y218D01*
X3314Y217D02*
X3392Y217D01*
X3614Y217D02*
X3692Y217D01*
X3314Y216D02*
X3392Y216D01*
X3614Y216D02*
X3692Y216D01*
X3314Y215D02*
X3392Y215D01*
X3614Y215D02*
X3692Y215D01*
X3315Y214D02*
X3392Y214D01*
X3615Y214D02*
X3692Y214D01*
X3315Y213D02*
X3391Y213D01*
X3615Y213D02*
X3691Y213D01*
X3315Y212D02*
X3391Y212D01*
X3615Y212D02*
X3691Y212D01*
X3315Y211D02*
X3391Y211D01*
X3615Y211D02*
X3691Y211D01*
X3316Y210D02*
X3391Y210D01*
X3616Y210D02*
X3691Y210D01*
X3316Y209D02*
X3390Y209D01*
X3616Y209D02*
X3690Y209D01*
X3316Y208D02*
X3390Y208D01*
X3616Y208D02*
X3690Y208D01*
X3317Y207D02*
X3390Y207D01*
X3617Y207D02*
X3690Y207D01*
X3317Y206D02*
X3389Y206D01*
X3617Y206D02*
X3689Y206D01*
X3318Y205D02*
X3389Y205D01*
X3618Y205D02*
X3689Y205D01*
X3318Y204D02*
X3388Y204D01*
X3618Y204D02*
X3688Y204D01*
X3319Y203D02*
X3387Y203D01*
X3619Y203D02*
X3687Y203D01*
X3320Y202D02*
X3387Y202D01*
X3619Y202D02*
X3687Y202D01*
X3320Y201D02*
X3386Y201D01*
X3620Y201D02*
X3686Y201D01*
X3321Y200D02*
X3386Y200D01*
X3621Y200D02*
X3686Y200D01*
X3322Y199D02*
X3385Y199D01*
X3621Y199D02*
X3685Y199D01*
X3322Y198D02*
X3384Y198D01*
X3622Y198D02*
X3684Y198D01*
X3323Y197D02*
X3383Y197D01*
X3623Y197D02*
X3683Y197D01*
X3324Y196D02*
X3382Y196D01*
X3624Y196D02*
X3682Y196D01*
X3325Y195D02*
X3382Y195D01*
X3625Y195D02*
X3682Y195D01*
X3326Y194D02*
X3381Y194D01*
X3626Y194D02*
X3681Y194D01*
X3327Y193D02*
X3379Y193D01*
X3627Y193D02*
X3679Y193D01*
X3328Y192D02*
X3378Y192D01*
X3628Y192D02*
X3678Y192D01*
X3329Y191D02*
X3377Y191D01*
X3629Y191D02*
X3677Y191D01*
X3331Y190D02*
X3376Y190D01*
X3631Y190D02*
X3676Y190D01*
X3332Y189D02*
X3374Y189D01*
X3632Y189D02*
X3674Y189D01*
X3334Y188D02*
X3373Y188D01*
X3634Y188D02*
X3673Y188D01*
X3336Y187D02*
X3371Y187D01*
X3636Y187D02*
X3671Y187D01*
X3338Y186D02*
X3369Y186D01*
X3638Y186D02*
X3669Y186D01*
X3340Y185D02*
X3366Y185D01*
X3640Y185D02*
X3666Y185D01*
X3344Y184D02*
X3363Y184D01*
X3644Y184D02*
X3663Y184D01*
X3349Y183D02*
X3358Y183D01*
X3649Y183D02*
X3658Y183D01*
D02*
G04 End of Mask1*
M02*