G04 MADE WITH FRITZING*
G04 WWW.FRITZING.ORG*
G04 DOUBLE SIDED*
G04 HOLES PLATED*
G04 CONTOUR ON CENTER OF CONTOUR VECTOR*
%ASAXBY*%
%FSLAX23Y23*%
%MOIN*%
%OFA0B0*%
%SFA1.0B1.0*%
%ADD10C,0.089370*%
%ADD11C,0.085000*%
%ADD12C,0.088000*%
%ADD13C,0.096614*%
%ADD14R,0.001000X0.001000*%
%LNMASK1*%
G90*
G70*
G54D10*
X752Y1490D03*
X752Y1390D03*
X752Y1290D03*
X752Y1190D03*
X752Y1090D03*
X752Y990D03*
X752Y890D03*
X752Y790D03*
X752Y690D03*
X752Y590D03*
X752Y490D03*
X752Y390D03*
X752Y290D03*
X752Y190D03*
X1452Y1490D03*
X1452Y1390D03*
X1452Y1290D03*
X1452Y1190D03*
X1452Y1090D03*
X1452Y990D03*
X1452Y890D03*
X1452Y790D03*
X1452Y690D03*
X1452Y590D03*
X1452Y490D03*
X1452Y390D03*
X1452Y290D03*
X1452Y190D03*
G54D11*
X1552Y790D03*
X1952Y790D03*
X1552Y890D03*
X1952Y890D03*
X1552Y990D03*
X1952Y990D03*
X1552Y1090D03*
X1952Y1090D03*
X1552Y1190D03*
X1952Y1190D03*
X1552Y1290D03*
X1952Y1290D03*
X1552Y1390D03*
X1952Y1390D03*
X1552Y1490D03*
X1952Y1490D03*
X252Y790D03*
X652Y790D03*
X252Y890D03*
X652Y890D03*
X252Y990D03*
X652Y990D03*
X252Y1090D03*
X652Y1090D03*
X252Y1190D03*
X652Y1190D03*
X252Y1290D03*
X652Y1290D03*
X252Y1390D03*
X652Y1390D03*
X252Y1490D03*
X652Y1490D03*
G54D12*
X1652Y190D03*
X1652Y290D03*
X1652Y390D03*
X1852Y390D03*
X1852Y290D03*
X1852Y190D03*
X1852Y1690D03*
X1752Y1690D03*
G54D13*
X98Y90D03*
X2066Y1804D03*
X97Y1805D03*
X2066Y90D03*
G54D14*
X945Y1530D02*
X957Y1530D01*
X1245Y1530D02*
X1257Y1530D01*
X940Y1529D02*
X962Y1529D01*
X1240Y1529D02*
X1261Y1529D01*
X937Y1528D02*
X965Y1528D01*
X1237Y1528D02*
X1265Y1528D01*
X935Y1527D02*
X967Y1527D01*
X1235Y1527D02*
X1267Y1527D01*
X933Y1526D02*
X969Y1526D01*
X1233Y1526D02*
X1269Y1526D01*
X931Y1525D02*
X971Y1525D01*
X1231Y1525D02*
X1271Y1525D01*
X930Y1524D02*
X972Y1524D01*
X1230Y1524D02*
X1272Y1524D01*
X928Y1523D02*
X974Y1523D01*
X1228Y1523D02*
X1274Y1523D01*
X927Y1522D02*
X975Y1522D01*
X1227Y1522D02*
X1275Y1522D01*
X926Y1521D02*
X976Y1521D01*
X1225Y1521D02*
X1276Y1521D01*
X924Y1520D02*
X978Y1520D01*
X1224Y1520D02*
X1278Y1520D01*
X923Y1519D02*
X979Y1519D01*
X1223Y1519D02*
X1279Y1519D01*
X922Y1518D02*
X980Y1518D01*
X1222Y1518D02*
X1280Y1518D01*
X921Y1517D02*
X981Y1517D01*
X1221Y1517D02*
X1280Y1517D01*
X921Y1516D02*
X981Y1516D01*
X1221Y1516D02*
X1281Y1516D01*
X920Y1515D02*
X982Y1515D01*
X1220Y1515D02*
X1282Y1515D01*
X919Y1514D02*
X983Y1514D01*
X1219Y1514D02*
X1283Y1514D01*
X918Y1513D02*
X984Y1513D01*
X1218Y1513D02*
X1284Y1513D01*
X918Y1512D02*
X984Y1512D01*
X1218Y1512D02*
X1284Y1512D01*
X917Y1511D02*
X985Y1511D01*
X1217Y1511D02*
X1285Y1511D01*
X917Y1510D02*
X985Y1510D01*
X1217Y1510D02*
X1285Y1510D01*
X916Y1509D02*
X986Y1509D01*
X1216Y1509D02*
X1286Y1509D01*
X916Y1508D02*
X986Y1508D01*
X1215Y1508D02*
X1286Y1508D01*
X915Y1507D02*
X987Y1507D01*
X1215Y1507D02*
X1287Y1507D01*
X915Y1506D02*
X987Y1506D01*
X1215Y1506D02*
X1287Y1506D01*
X914Y1505D02*
X988Y1505D01*
X1214Y1505D02*
X1288Y1505D01*
X914Y1504D02*
X988Y1504D01*
X1214Y1504D02*
X1288Y1504D01*
X913Y1503D02*
X988Y1503D01*
X1213Y1503D02*
X1288Y1503D01*
X913Y1502D02*
X989Y1502D01*
X1213Y1502D02*
X1289Y1502D01*
X913Y1501D02*
X989Y1501D01*
X1213Y1501D02*
X1289Y1501D01*
X913Y1500D02*
X989Y1500D01*
X1213Y1500D02*
X1289Y1500D01*
X912Y1499D02*
X990Y1499D01*
X1212Y1499D02*
X1289Y1499D01*
X912Y1498D02*
X990Y1498D01*
X1212Y1498D02*
X1290Y1498D01*
X912Y1497D02*
X990Y1497D01*
X1212Y1497D02*
X1290Y1497D01*
X912Y1496D02*
X990Y1496D01*
X1212Y1496D02*
X1290Y1496D01*
X912Y1495D02*
X990Y1495D01*
X1212Y1495D02*
X1290Y1495D01*
X912Y1494D02*
X990Y1494D01*
X1212Y1494D02*
X1290Y1494D01*
X912Y1493D02*
X990Y1493D01*
X1212Y1493D02*
X1290Y1493D01*
X912Y1492D02*
X990Y1492D01*
X1212Y1492D02*
X1290Y1492D01*
X912Y1491D02*
X990Y1491D01*
X1211Y1491D02*
X1290Y1491D01*
X912Y1490D02*
X990Y1490D01*
X1211Y1490D02*
X1290Y1490D01*
X912Y1489D02*
X990Y1489D01*
X1212Y1489D02*
X1290Y1489D01*
X912Y1488D02*
X990Y1488D01*
X1212Y1488D02*
X1290Y1488D01*
X912Y1487D02*
X990Y1487D01*
X1212Y1487D02*
X1290Y1487D01*
X912Y1486D02*
X990Y1486D01*
X1212Y1486D02*
X1290Y1486D01*
X912Y1485D02*
X990Y1485D01*
X1212Y1485D02*
X1290Y1485D01*
X912Y1484D02*
X990Y1484D01*
X1212Y1484D02*
X1290Y1484D01*
X912Y1483D02*
X990Y1483D01*
X1212Y1483D02*
X1290Y1483D01*
X913Y1482D02*
X989Y1482D01*
X1212Y1482D02*
X1289Y1482D01*
X913Y1481D02*
X989Y1481D01*
X1213Y1481D02*
X1289Y1481D01*
X913Y1480D02*
X989Y1480D01*
X1213Y1480D02*
X1289Y1480D01*
X913Y1479D02*
X989Y1479D01*
X1213Y1479D02*
X1289Y1479D01*
X914Y1478D02*
X988Y1478D01*
X1214Y1478D02*
X1288Y1478D01*
X914Y1477D02*
X988Y1477D01*
X1214Y1477D02*
X1288Y1477D01*
X914Y1476D02*
X988Y1476D01*
X1214Y1476D02*
X1288Y1476D01*
X915Y1475D02*
X987Y1475D01*
X1215Y1475D02*
X1287Y1475D01*
X915Y1474D02*
X987Y1474D01*
X1215Y1474D02*
X1287Y1474D01*
X916Y1473D02*
X986Y1473D01*
X1216Y1473D02*
X1286Y1473D01*
X916Y1472D02*
X986Y1472D01*
X1216Y1472D02*
X1286Y1472D01*
X917Y1471D02*
X985Y1471D01*
X1217Y1471D02*
X1285Y1471D01*
X917Y1470D02*
X985Y1470D01*
X1217Y1470D02*
X1285Y1470D01*
X918Y1469D02*
X984Y1469D01*
X1218Y1469D02*
X1284Y1469D01*
X919Y1468D02*
X983Y1468D01*
X1219Y1468D02*
X1283Y1468D01*
X919Y1467D02*
X983Y1467D01*
X1219Y1467D02*
X1283Y1467D01*
X920Y1466D02*
X982Y1466D01*
X1220Y1466D02*
X1282Y1466D01*
X921Y1465D02*
X981Y1465D01*
X1221Y1465D02*
X1281Y1465D01*
X922Y1464D02*
X980Y1464D01*
X1222Y1464D02*
X1280Y1464D01*
X923Y1463D02*
X979Y1463D01*
X1223Y1463D02*
X1279Y1463D01*
X924Y1462D02*
X978Y1462D01*
X1224Y1462D02*
X1278Y1462D01*
X925Y1461D02*
X977Y1461D01*
X1225Y1461D02*
X1277Y1461D01*
X926Y1460D02*
X976Y1460D01*
X1226Y1460D02*
X1276Y1460D01*
X927Y1459D02*
X975Y1459D01*
X1227Y1459D02*
X1275Y1459D01*
X929Y1458D02*
X973Y1458D01*
X1229Y1458D02*
X1273Y1458D01*
X930Y1457D02*
X972Y1457D01*
X1230Y1457D02*
X1272Y1457D01*
X932Y1456D02*
X970Y1456D01*
X1232Y1456D02*
X1270Y1456D01*
X934Y1455D02*
X968Y1455D01*
X1233Y1455D02*
X1268Y1455D01*
X936Y1454D02*
X966Y1454D01*
X1236Y1454D02*
X1266Y1454D01*
X938Y1453D02*
X964Y1453D01*
X1238Y1453D02*
X1264Y1453D01*
X942Y1452D02*
X960Y1452D01*
X1242Y1452D02*
X1260Y1452D01*
X947Y1451D02*
X955Y1451D01*
X1247Y1451D02*
X1255Y1451D01*
X945Y1430D02*
X957Y1430D01*
X1245Y1430D02*
X1257Y1430D01*
X940Y1429D02*
X962Y1429D01*
X1240Y1429D02*
X1262Y1429D01*
X937Y1428D02*
X965Y1428D01*
X1237Y1428D02*
X1265Y1428D01*
X935Y1427D02*
X967Y1427D01*
X1235Y1427D02*
X1267Y1427D01*
X933Y1426D02*
X969Y1426D01*
X1233Y1426D02*
X1269Y1426D01*
X931Y1425D02*
X971Y1425D01*
X1231Y1425D02*
X1271Y1425D01*
X930Y1424D02*
X972Y1424D01*
X1229Y1424D02*
X1272Y1424D01*
X928Y1423D02*
X974Y1423D01*
X1228Y1423D02*
X1274Y1423D01*
X927Y1422D02*
X975Y1422D01*
X1227Y1422D02*
X1275Y1422D01*
X925Y1421D02*
X977Y1421D01*
X1225Y1421D02*
X1276Y1421D01*
X924Y1420D02*
X978Y1420D01*
X1224Y1420D02*
X1278Y1420D01*
X923Y1419D02*
X979Y1419D01*
X1223Y1419D02*
X1279Y1419D01*
X922Y1418D02*
X980Y1418D01*
X1222Y1418D02*
X1280Y1418D01*
X921Y1417D02*
X981Y1417D01*
X1221Y1417D02*
X1280Y1417D01*
X921Y1416D02*
X981Y1416D01*
X1221Y1416D02*
X1281Y1416D01*
X920Y1415D02*
X982Y1415D01*
X1220Y1415D02*
X1282Y1415D01*
X919Y1414D02*
X983Y1414D01*
X1219Y1414D02*
X1283Y1414D01*
X918Y1413D02*
X984Y1413D01*
X1218Y1413D02*
X1284Y1413D01*
X918Y1412D02*
X984Y1412D01*
X1218Y1412D02*
X1284Y1412D01*
X917Y1411D02*
X985Y1411D01*
X1217Y1411D02*
X1285Y1411D01*
X917Y1410D02*
X985Y1410D01*
X1216Y1410D02*
X1285Y1410D01*
X916Y1409D02*
X986Y1409D01*
X1216Y1409D02*
X1286Y1409D01*
X916Y1408D02*
X986Y1408D01*
X1215Y1408D02*
X1286Y1408D01*
X915Y1407D02*
X987Y1407D01*
X1215Y1407D02*
X1287Y1407D01*
X915Y1406D02*
X987Y1406D01*
X1215Y1406D02*
X1287Y1406D01*
X914Y1405D02*
X988Y1405D01*
X1214Y1405D02*
X1288Y1405D01*
X914Y1404D02*
X988Y1404D01*
X1214Y1404D02*
X1288Y1404D01*
X913Y1403D02*
X989Y1403D01*
X1213Y1403D02*
X1288Y1403D01*
X913Y1402D02*
X989Y1402D01*
X1213Y1402D02*
X1289Y1402D01*
X913Y1401D02*
X989Y1401D01*
X1213Y1401D02*
X1289Y1401D01*
X913Y1400D02*
X989Y1400D01*
X1213Y1400D02*
X1289Y1400D01*
X912Y1399D02*
X990Y1399D01*
X1212Y1399D02*
X1289Y1399D01*
X912Y1398D02*
X990Y1398D01*
X1212Y1398D02*
X1290Y1398D01*
X912Y1397D02*
X990Y1397D01*
X1212Y1397D02*
X1290Y1397D01*
X912Y1396D02*
X990Y1396D01*
X1212Y1396D02*
X1290Y1396D01*
X912Y1395D02*
X990Y1395D01*
X1212Y1395D02*
X1290Y1395D01*
X912Y1394D02*
X990Y1394D01*
X1212Y1394D02*
X1290Y1394D01*
X912Y1393D02*
X990Y1393D01*
X1212Y1393D02*
X1290Y1393D01*
X912Y1392D02*
X990Y1392D01*
X1212Y1392D02*
X1290Y1392D01*
X912Y1391D02*
X990Y1391D01*
X1211Y1391D02*
X1290Y1391D01*
X912Y1390D02*
X990Y1390D01*
X1211Y1390D02*
X1290Y1390D01*
X912Y1389D02*
X990Y1389D01*
X1212Y1389D02*
X1290Y1389D01*
X912Y1388D02*
X990Y1388D01*
X1212Y1388D02*
X1290Y1388D01*
X912Y1387D02*
X990Y1387D01*
X1212Y1387D02*
X1290Y1387D01*
X912Y1386D02*
X990Y1386D01*
X1212Y1386D02*
X1290Y1386D01*
X912Y1385D02*
X990Y1385D01*
X1212Y1385D02*
X1290Y1385D01*
X912Y1384D02*
X990Y1384D01*
X1212Y1384D02*
X1290Y1384D01*
X912Y1383D02*
X990Y1383D01*
X1212Y1383D02*
X1290Y1383D01*
X913Y1382D02*
X989Y1382D01*
X1213Y1382D02*
X1289Y1382D01*
X913Y1381D02*
X989Y1381D01*
X1213Y1381D02*
X1289Y1381D01*
X913Y1380D02*
X989Y1380D01*
X1213Y1380D02*
X1289Y1380D01*
X913Y1379D02*
X989Y1379D01*
X1213Y1379D02*
X1289Y1379D01*
X914Y1378D02*
X988Y1378D01*
X1214Y1378D02*
X1288Y1378D01*
X914Y1377D02*
X988Y1377D01*
X1214Y1377D02*
X1288Y1377D01*
X914Y1376D02*
X988Y1376D01*
X1214Y1376D02*
X1288Y1376D01*
X915Y1375D02*
X987Y1375D01*
X1215Y1375D02*
X1287Y1375D01*
X915Y1374D02*
X987Y1374D01*
X1215Y1374D02*
X1287Y1374D01*
X916Y1373D02*
X986Y1373D01*
X1216Y1373D02*
X1286Y1373D01*
X916Y1372D02*
X986Y1372D01*
X1216Y1372D02*
X1286Y1372D01*
X917Y1371D02*
X985Y1371D01*
X1217Y1371D02*
X1285Y1371D01*
X917Y1370D02*
X985Y1370D01*
X1217Y1370D02*
X1285Y1370D01*
X918Y1369D02*
X984Y1369D01*
X1218Y1369D02*
X1284Y1369D01*
X919Y1368D02*
X983Y1368D01*
X1219Y1368D02*
X1283Y1368D01*
X919Y1367D02*
X983Y1367D01*
X1219Y1367D02*
X1283Y1367D01*
X920Y1366D02*
X982Y1366D01*
X1220Y1366D02*
X1282Y1366D01*
X921Y1365D02*
X981Y1365D01*
X1221Y1365D02*
X1281Y1365D01*
X922Y1364D02*
X980Y1364D01*
X1222Y1364D02*
X1280Y1364D01*
X923Y1363D02*
X979Y1363D01*
X1223Y1363D02*
X1279Y1363D01*
X924Y1362D02*
X978Y1362D01*
X1224Y1362D02*
X1278Y1362D01*
X925Y1361D02*
X977Y1361D01*
X1225Y1361D02*
X1277Y1361D01*
X926Y1360D02*
X976Y1360D01*
X1226Y1360D02*
X1276Y1360D01*
X927Y1359D02*
X975Y1359D01*
X1227Y1359D02*
X1275Y1359D01*
X929Y1358D02*
X973Y1358D01*
X1229Y1358D02*
X1273Y1358D01*
X930Y1357D02*
X972Y1357D01*
X1230Y1357D02*
X1272Y1357D01*
X932Y1356D02*
X970Y1356D01*
X1232Y1356D02*
X1270Y1356D01*
X934Y1355D02*
X968Y1355D01*
X1234Y1355D02*
X1268Y1355D01*
X936Y1354D02*
X966Y1354D01*
X1236Y1354D02*
X1266Y1354D01*
X938Y1353D02*
X964Y1353D01*
X1238Y1353D02*
X1264Y1353D01*
X942Y1352D02*
X960Y1352D01*
X1242Y1352D02*
X1260Y1352D01*
X947Y1351D02*
X955Y1351D01*
X1247Y1351D02*
X1255Y1351D01*
X944Y1330D02*
X958Y1330D01*
X1244Y1330D02*
X1257Y1330D01*
X940Y1329D02*
X962Y1329D01*
X1240Y1329D02*
X1262Y1329D01*
X937Y1328D02*
X965Y1328D01*
X1237Y1328D02*
X1265Y1328D01*
X935Y1327D02*
X967Y1327D01*
X1235Y1327D02*
X1267Y1327D01*
X933Y1326D02*
X969Y1326D01*
X1233Y1326D02*
X1269Y1326D01*
X931Y1325D02*
X971Y1325D01*
X1231Y1325D02*
X1271Y1325D01*
X929Y1324D02*
X973Y1324D01*
X1229Y1324D02*
X1273Y1324D01*
X928Y1323D02*
X974Y1323D01*
X1228Y1323D02*
X1274Y1323D01*
X927Y1322D02*
X975Y1322D01*
X1227Y1322D02*
X1275Y1322D01*
X925Y1321D02*
X977Y1321D01*
X1225Y1321D02*
X1277Y1321D01*
X924Y1320D02*
X978Y1320D01*
X1224Y1320D02*
X1278Y1320D01*
X923Y1319D02*
X979Y1319D01*
X1223Y1319D02*
X1279Y1319D01*
X922Y1318D02*
X980Y1318D01*
X1222Y1318D02*
X1280Y1318D01*
X921Y1317D02*
X981Y1317D01*
X1221Y1317D02*
X1281Y1317D01*
X921Y1316D02*
X981Y1316D01*
X1221Y1316D02*
X1281Y1316D01*
X920Y1315D02*
X982Y1315D01*
X1220Y1315D02*
X1282Y1315D01*
X919Y1314D02*
X983Y1314D01*
X1219Y1314D02*
X1283Y1314D01*
X918Y1313D02*
X984Y1313D01*
X1218Y1313D02*
X1284Y1313D01*
X918Y1312D02*
X984Y1312D01*
X1218Y1312D02*
X1284Y1312D01*
X917Y1311D02*
X985Y1311D01*
X1217Y1311D02*
X1285Y1311D01*
X917Y1310D02*
X985Y1310D01*
X1216Y1310D02*
X1285Y1310D01*
X916Y1309D02*
X986Y1309D01*
X1216Y1309D02*
X1286Y1309D01*
X915Y1308D02*
X987Y1308D01*
X1215Y1308D02*
X1286Y1308D01*
X915Y1307D02*
X987Y1307D01*
X1215Y1307D02*
X1287Y1307D01*
X915Y1306D02*
X987Y1306D01*
X1214Y1306D02*
X1287Y1306D01*
X914Y1305D02*
X988Y1305D01*
X1214Y1305D02*
X1288Y1305D01*
X914Y1304D02*
X988Y1304D01*
X1214Y1304D02*
X1288Y1304D01*
X913Y1303D02*
X989Y1303D01*
X1213Y1303D02*
X1288Y1303D01*
X913Y1302D02*
X989Y1302D01*
X1213Y1302D02*
X1289Y1302D01*
X913Y1301D02*
X989Y1301D01*
X1213Y1301D02*
X1289Y1301D01*
X913Y1300D02*
X989Y1300D01*
X1213Y1300D02*
X1289Y1300D01*
X912Y1299D02*
X990Y1299D01*
X1212Y1299D02*
X1289Y1299D01*
X912Y1298D02*
X990Y1298D01*
X1212Y1298D02*
X1290Y1298D01*
X912Y1297D02*
X990Y1297D01*
X1212Y1297D02*
X1290Y1297D01*
X912Y1296D02*
X990Y1296D01*
X1212Y1296D02*
X1290Y1296D01*
X912Y1295D02*
X990Y1295D01*
X1212Y1295D02*
X1290Y1295D01*
X912Y1294D02*
X990Y1294D01*
X1212Y1294D02*
X1290Y1294D01*
X912Y1293D02*
X990Y1293D01*
X1212Y1293D02*
X1290Y1293D01*
X912Y1292D02*
X990Y1292D01*
X1212Y1292D02*
X1290Y1292D01*
X912Y1291D02*
X990Y1291D01*
X1211Y1291D02*
X1290Y1291D01*
X912Y1290D02*
X990Y1290D01*
X1211Y1290D02*
X1290Y1290D01*
X912Y1289D02*
X990Y1289D01*
X1212Y1289D02*
X1290Y1289D01*
X912Y1288D02*
X990Y1288D01*
X1212Y1288D02*
X1290Y1288D01*
X912Y1287D02*
X990Y1287D01*
X1212Y1287D02*
X1290Y1287D01*
X912Y1286D02*
X990Y1286D01*
X1212Y1286D02*
X1290Y1286D01*
X912Y1285D02*
X990Y1285D01*
X1212Y1285D02*
X1290Y1285D01*
X912Y1284D02*
X990Y1284D01*
X1212Y1284D02*
X1290Y1284D01*
X912Y1283D02*
X990Y1283D01*
X1212Y1283D02*
X1290Y1283D01*
X913Y1282D02*
X989Y1282D01*
X1213Y1282D02*
X1289Y1282D01*
X913Y1281D02*
X989Y1281D01*
X1213Y1281D02*
X1289Y1281D01*
X913Y1280D02*
X989Y1280D01*
X1213Y1280D02*
X1289Y1280D01*
X913Y1279D02*
X989Y1279D01*
X1213Y1279D02*
X1289Y1279D01*
X914Y1278D02*
X988Y1278D01*
X1214Y1278D02*
X1288Y1278D01*
X914Y1277D02*
X988Y1277D01*
X1214Y1277D02*
X1288Y1277D01*
X914Y1276D02*
X988Y1276D01*
X1214Y1276D02*
X1288Y1276D01*
X915Y1275D02*
X987Y1275D01*
X1215Y1275D02*
X1287Y1275D01*
X915Y1274D02*
X987Y1274D01*
X1215Y1274D02*
X1287Y1274D01*
X916Y1273D02*
X986Y1273D01*
X1216Y1273D02*
X1286Y1273D01*
X916Y1272D02*
X986Y1272D01*
X1216Y1272D02*
X1286Y1272D01*
X917Y1271D02*
X985Y1271D01*
X1217Y1271D02*
X1285Y1271D01*
X917Y1270D02*
X985Y1270D01*
X1217Y1270D02*
X1285Y1270D01*
X918Y1269D02*
X984Y1269D01*
X1218Y1269D02*
X1284Y1269D01*
X919Y1268D02*
X983Y1268D01*
X1219Y1268D02*
X1283Y1268D01*
X919Y1267D02*
X983Y1267D01*
X1219Y1267D02*
X1283Y1267D01*
X920Y1266D02*
X982Y1266D01*
X1220Y1266D02*
X1282Y1266D01*
X921Y1265D02*
X981Y1265D01*
X1221Y1265D02*
X1281Y1265D01*
X922Y1264D02*
X980Y1264D01*
X1222Y1264D02*
X1280Y1264D01*
X923Y1263D02*
X979Y1263D01*
X1223Y1263D02*
X1279Y1263D01*
X924Y1262D02*
X978Y1262D01*
X1224Y1262D02*
X1278Y1262D01*
X925Y1261D02*
X977Y1261D01*
X1225Y1261D02*
X1277Y1261D01*
X926Y1260D02*
X976Y1260D01*
X1226Y1260D02*
X1276Y1260D01*
X927Y1259D02*
X975Y1259D01*
X1227Y1259D02*
X1275Y1259D01*
X929Y1258D02*
X973Y1258D01*
X1229Y1258D02*
X1273Y1258D01*
X930Y1257D02*
X972Y1257D01*
X1230Y1257D02*
X1272Y1257D01*
X932Y1256D02*
X970Y1256D01*
X1232Y1256D02*
X1270Y1256D01*
X934Y1255D02*
X968Y1255D01*
X1234Y1255D02*
X1268Y1255D01*
X936Y1254D02*
X966Y1254D01*
X1236Y1254D02*
X1266Y1254D01*
X938Y1253D02*
X964Y1253D01*
X1238Y1253D02*
X1263Y1253D01*
X942Y1252D02*
X960Y1252D01*
X1242Y1252D02*
X1260Y1252D01*
X948Y1251D02*
X954Y1251D01*
X1248Y1251D02*
X1254Y1251D01*
X944Y1230D02*
X958Y1230D01*
X1244Y1230D02*
X1258Y1230D01*
X940Y1229D02*
X962Y1229D01*
X1240Y1229D02*
X1262Y1229D01*
X937Y1228D02*
X965Y1228D01*
X1237Y1228D02*
X1265Y1228D01*
X935Y1227D02*
X967Y1227D01*
X1235Y1227D02*
X1267Y1227D01*
X933Y1226D02*
X969Y1226D01*
X1233Y1226D02*
X1269Y1226D01*
X931Y1225D02*
X971Y1225D01*
X1231Y1225D02*
X1271Y1225D01*
X929Y1224D02*
X973Y1224D01*
X1229Y1224D02*
X1273Y1224D01*
X928Y1223D02*
X974Y1223D01*
X1228Y1223D02*
X1274Y1223D01*
X927Y1222D02*
X975Y1222D01*
X1227Y1222D02*
X1275Y1222D01*
X925Y1221D02*
X977Y1221D01*
X1225Y1221D02*
X1277Y1221D01*
X924Y1220D02*
X978Y1220D01*
X1224Y1220D02*
X1278Y1220D01*
X923Y1219D02*
X979Y1219D01*
X1223Y1219D02*
X1279Y1219D01*
X922Y1218D02*
X980Y1218D01*
X1222Y1218D02*
X1280Y1218D01*
X921Y1217D02*
X981Y1217D01*
X1221Y1217D02*
X1281Y1217D01*
X921Y1216D02*
X981Y1216D01*
X1220Y1216D02*
X1281Y1216D01*
X920Y1215D02*
X982Y1215D01*
X1220Y1215D02*
X1282Y1215D01*
X919Y1214D02*
X983Y1214D01*
X1219Y1214D02*
X1283Y1214D01*
X918Y1213D02*
X984Y1213D01*
X1218Y1213D02*
X1284Y1213D01*
X918Y1212D02*
X984Y1212D01*
X1218Y1212D02*
X1284Y1212D01*
X917Y1211D02*
X985Y1211D01*
X1217Y1211D02*
X1285Y1211D01*
X916Y1210D02*
X986Y1210D01*
X1216Y1210D02*
X1285Y1210D01*
X916Y1209D02*
X986Y1209D01*
X1216Y1209D02*
X1286Y1209D01*
X915Y1208D02*
X987Y1208D01*
X1215Y1208D02*
X1286Y1208D01*
X915Y1207D02*
X987Y1207D01*
X1215Y1207D02*
X1287Y1207D01*
X915Y1206D02*
X987Y1206D01*
X1214Y1206D02*
X1287Y1206D01*
X914Y1205D02*
X988Y1205D01*
X1214Y1205D02*
X1288Y1205D01*
X914Y1204D02*
X988Y1204D01*
X1214Y1204D02*
X1288Y1204D01*
X913Y1203D02*
X989Y1203D01*
X1213Y1203D02*
X1288Y1203D01*
X913Y1202D02*
X989Y1202D01*
X1213Y1202D02*
X1289Y1202D01*
X913Y1201D02*
X989Y1201D01*
X1213Y1201D02*
X1289Y1201D01*
X913Y1200D02*
X989Y1200D01*
X1213Y1200D02*
X1289Y1200D01*
X912Y1199D02*
X990Y1199D01*
X1212Y1199D02*
X1290Y1199D01*
X912Y1198D02*
X990Y1198D01*
X1212Y1198D02*
X1290Y1198D01*
X912Y1197D02*
X990Y1197D01*
X1212Y1197D02*
X1290Y1197D01*
X912Y1196D02*
X990Y1196D01*
X1212Y1196D02*
X1290Y1196D01*
X912Y1195D02*
X990Y1195D01*
X1212Y1195D02*
X1290Y1195D01*
X912Y1194D02*
X990Y1194D01*
X1212Y1194D02*
X1290Y1194D01*
X912Y1193D02*
X990Y1193D01*
X1212Y1193D02*
X1290Y1193D01*
X912Y1192D02*
X990Y1192D01*
X1212Y1192D02*
X1290Y1192D01*
X912Y1191D02*
X990Y1191D01*
X1211Y1191D02*
X1290Y1191D01*
X912Y1190D02*
X990Y1190D01*
X1211Y1190D02*
X1290Y1190D01*
X912Y1189D02*
X990Y1189D01*
X1212Y1189D02*
X1290Y1189D01*
X912Y1188D02*
X990Y1188D01*
X1212Y1188D02*
X1290Y1188D01*
X912Y1187D02*
X990Y1187D01*
X1212Y1187D02*
X1290Y1187D01*
X912Y1186D02*
X990Y1186D01*
X1212Y1186D02*
X1290Y1186D01*
X912Y1185D02*
X990Y1185D01*
X1212Y1185D02*
X1290Y1185D01*
X912Y1184D02*
X990Y1184D01*
X1212Y1184D02*
X1290Y1184D01*
X912Y1183D02*
X990Y1183D01*
X1212Y1183D02*
X1290Y1183D01*
X913Y1182D02*
X989Y1182D01*
X1213Y1182D02*
X1289Y1182D01*
X913Y1181D02*
X989Y1181D01*
X1213Y1181D02*
X1289Y1181D01*
X913Y1180D02*
X989Y1180D01*
X1213Y1180D02*
X1289Y1180D01*
X913Y1179D02*
X989Y1179D01*
X1213Y1179D02*
X1289Y1179D01*
X914Y1178D02*
X988Y1178D01*
X1214Y1178D02*
X1288Y1178D01*
X914Y1177D02*
X988Y1177D01*
X1214Y1177D02*
X1288Y1177D01*
X914Y1176D02*
X988Y1176D01*
X1214Y1176D02*
X1288Y1176D01*
X915Y1175D02*
X987Y1175D01*
X1215Y1175D02*
X1287Y1175D01*
X915Y1174D02*
X987Y1174D01*
X1215Y1174D02*
X1287Y1174D01*
X916Y1173D02*
X986Y1173D01*
X1216Y1173D02*
X1286Y1173D01*
X916Y1172D02*
X986Y1172D01*
X1216Y1172D02*
X1286Y1172D01*
X917Y1171D02*
X985Y1171D01*
X1217Y1171D02*
X1285Y1171D01*
X917Y1170D02*
X985Y1170D01*
X1217Y1170D02*
X1285Y1170D01*
X918Y1169D02*
X984Y1169D01*
X1218Y1169D02*
X1284Y1169D01*
X919Y1168D02*
X983Y1168D01*
X1219Y1168D02*
X1283Y1168D01*
X919Y1167D02*
X983Y1167D01*
X1219Y1167D02*
X1282Y1167D01*
X920Y1166D02*
X982Y1166D01*
X1220Y1166D02*
X1282Y1166D01*
X921Y1165D02*
X981Y1165D01*
X1221Y1165D02*
X1281Y1165D01*
X922Y1164D02*
X980Y1164D01*
X1222Y1164D02*
X1280Y1164D01*
X923Y1163D02*
X979Y1163D01*
X1223Y1163D02*
X1279Y1163D01*
X924Y1162D02*
X978Y1162D01*
X1224Y1162D02*
X1278Y1162D01*
X925Y1161D02*
X977Y1161D01*
X1225Y1161D02*
X1277Y1161D01*
X926Y1160D02*
X976Y1160D01*
X1226Y1160D02*
X1276Y1160D01*
X927Y1159D02*
X975Y1159D01*
X1227Y1159D02*
X1275Y1159D01*
X929Y1158D02*
X973Y1158D01*
X1229Y1158D02*
X1273Y1158D01*
X930Y1157D02*
X972Y1157D01*
X1230Y1157D02*
X1272Y1157D01*
X932Y1156D02*
X970Y1156D01*
X1232Y1156D02*
X1270Y1156D01*
X934Y1155D02*
X968Y1155D01*
X1234Y1155D02*
X1268Y1155D01*
X936Y1154D02*
X966Y1154D01*
X1236Y1154D02*
X1266Y1154D01*
X939Y1153D02*
X963Y1153D01*
X1239Y1153D02*
X1263Y1153D01*
X942Y1152D02*
X960Y1152D01*
X1242Y1152D02*
X1260Y1152D01*
X948Y1151D02*
X954Y1151D01*
X1248Y1151D02*
X1254Y1151D01*
X944Y1130D02*
X958Y1130D01*
X1244Y1130D02*
X1258Y1130D01*
X940Y1129D02*
X962Y1129D01*
X1240Y1129D02*
X1262Y1129D01*
X937Y1128D02*
X965Y1128D01*
X1237Y1128D02*
X1265Y1128D01*
X935Y1127D02*
X967Y1127D01*
X1235Y1127D02*
X1267Y1127D01*
X933Y1126D02*
X969Y1126D01*
X1233Y1126D02*
X1269Y1126D01*
X931Y1125D02*
X971Y1125D01*
X1231Y1125D02*
X1271Y1125D01*
X929Y1124D02*
X973Y1124D01*
X1229Y1124D02*
X1273Y1124D01*
X928Y1123D02*
X974Y1123D01*
X1228Y1123D02*
X1274Y1123D01*
X927Y1122D02*
X975Y1122D01*
X1227Y1122D02*
X1275Y1122D01*
X925Y1121D02*
X977Y1121D01*
X1225Y1121D02*
X1277Y1121D01*
X924Y1120D02*
X978Y1120D01*
X1224Y1120D02*
X1278Y1120D01*
X923Y1119D02*
X979Y1119D01*
X1223Y1119D02*
X1279Y1119D01*
X922Y1118D02*
X980Y1118D01*
X1222Y1118D02*
X1280Y1118D01*
X921Y1117D02*
X981Y1117D01*
X1221Y1117D02*
X1281Y1117D01*
X921Y1116D02*
X981Y1116D01*
X1220Y1116D02*
X1281Y1116D01*
X920Y1115D02*
X982Y1115D01*
X1220Y1115D02*
X1282Y1115D01*
X919Y1114D02*
X983Y1114D01*
X1219Y1114D02*
X1283Y1114D01*
X918Y1113D02*
X984Y1113D01*
X1218Y1113D02*
X1284Y1113D01*
X918Y1112D02*
X984Y1112D01*
X1218Y1112D02*
X1284Y1112D01*
X917Y1111D02*
X985Y1111D01*
X1217Y1111D02*
X1285Y1111D01*
X916Y1110D02*
X986Y1110D01*
X1216Y1110D02*
X1285Y1110D01*
X916Y1109D02*
X986Y1109D01*
X1216Y1109D02*
X1286Y1109D01*
X915Y1108D02*
X987Y1108D01*
X1215Y1108D02*
X1287Y1108D01*
X915Y1107D02*
X987Y1107D01*
X1215Y1107D02*
X1287Y1107D01*
X915Y1106D02*
X987Y1106D01*
X1214Y1106D02*
X1287Y1106D01*
X914Y1105D02*
X988Y1105D01*
X1214Y1105D02*
X1288Y1105D01*
X914Y1104D02*
X988Y1104D01*
X1214Y1104D02*
X1288Y1104D01*
X913Y1103D02*
X989Y1103D01*
X1213Y1103D02*
X1288Y1103D01*
X913Y1102D02*
X989Y1102D01*
X1213Y1102D02*
X1289Y1102D01*
X913Y1101D02*
X989Y1101D01*
X1213Y1101D02*
X1289Y1101D01*
X913Y1100D02*
X989Y1100D01*
X1213Y1100D02*
X1289Y1100D01*
X912Y1099D02*
X990Y1099D01*
X1212Y1099D02*
X1290Y1099D01*
X912Y1098D02*
X990Y1098D01*
X1212Y1098D02*
X1290Y1098D01*
X912Y1097D02*
X990Y1097D01*
X1212Y1097D02*
X1290Y1097D01*
X912Y1096D02*
X990Y1096D01*
X1212Y1096D02*
X1290Y1096D01*
X912Y1095D02*
X990Y1095D01*
X1212Y1095D02*
X1290Y1095D01*
X912Y1094D02*
X990Y1094D01*
X1212Y1094D02*
X1290Y1094D01*
X912Y1093D02*
X990Y1093D01*
X1212Y1093D02*
X1290Y1093D01*
X912Y1092D02*
X990Y1092D01*
X1212Y1092D02*
X1290Y1092D01*
X912Y1091D02*
X990Y1091D01*
X1211Y1091D02*
X1290Y1091D01*
X912Y1090D02*
X990Y1090D01*
X1211Y1090D02*
X1290Y1090D01*
X912Y1089D02*
X990Y1089D01*
X1212Y1089D02*
X1290Y1089D01*
X912Y1088D02*
X990Y1088D01*
X1212Y1088D02*
X1290Y1088D01*
X912Y1087D02*
X990Y1087D01*
X1212Y1087D02*
X1290Y1087D01*
X912Y1086D02*
X990Y1086D01*
X1212Y1086D02*
X1290Y1086D01*
X912Y1085D02*
X990Y1085D01*
X1212Y1085D02*
X1290Y1085D01*
X912Y1084D02*
X990Y1084D01*
X1212Y1084D02*
X1290Y1084D01*
X912Y1083D02*
X990Y1083D01*
X1212Y1083D02*
X1290Y1083D01*
X913Y1082D02*
X989Y1082D01*
X1213Y1082D02*
X1289Y1082D01*
X913Y1081D02*
X989Y1081D01*
X1213Y1081D02*
X1289Y1081D01*
X913Y1080D02*
X989Y1080D01*
X1213Y1080D02*
X1289Y1080D01*
X913Y1079D02*
X989Y1079D01*
X1213Y1079D02*
X1289Y1079D01*
X914Y1078D02*
X988Y1078D01*
X1214Y1078D02*
X1288Y1078D01*
X914Y1077D02*
X988Y1077D01*
X1214Y1077D02*
X1288Y1077D01*
X914Y1076D02*
X988Y1076D01*
X1214Y1076D02*
X1288Y1076D01*
X915Y1075D02*
X987Y1075D01*
X1215Y1075D02*
X1287Y1075D01*
X915Y1074D02*
X987Y1074D01*
X1215Y1074D02*
X1287Y1074D01*
X916Y1073D02*
X986Y1073D01*
X1216Y1073D02*
X1286Y1073D01*
X916Y1072D02*
X986Y1072D01*
X1216Y1072D02*
X1286Y1072D01*
X917Y1071D02*
X985Y1071D01*
X1217Y1071D02*
X1285Y1071D01*
X917Y1070D02*
X985Y1070D01*
X1217Y1070D02*
X1284Y1070D01*
X918Y1069D02*
X984Y1069D01*
X1218Y1069D02*
X1284Y1069D01*
X919Y1068D02*
X983Y1068D01*
X1219Y1068D02*
X1283Y1068D01*
X920Y1067D02*
X982Y1067D01*
X1219Y1067D02*
X1282Y1067D01*
X920Y1066D02*
X982Y1066D01*
X1220Y1066D02*
X1282Y1066D01*
X921Y1065D02*
X981Y1065D01*
X1221Y1065D02*
X1281Y1065D01*
X922Y1064D02*
X980Y1064D01*
X1222Y1064D02*
X1280Y1064D01*
X923Y1063D02*
X979Y1063D01*
X1223Y1063D02*
X1279Y1063D01*
X924Y1062D02*
X978Y1062D01*
X1224Y1062D02*
X1278Y1062D01*
X925Y1061D02*
X977Y1061D01*
X1225Y1061D02*
X1277Y1061D01*
X926Y1060D02*
X976Y1060D01*
X1226Y1060D02*
X1276Y1060D01*
X927Y1059D02*
X975Y1059D01*
X1227Y1059D02*
X1275Y1059D01*
X929Y1058D02*
X973Y1058D01*
X1229Y1058D02*
X1273Y1058D01*
X930Y1057D02*
X972Y1057D01*
X1230Y1057D02*
X1272Y1057D01*
X932Y1056D02*
X970Y1056D01*
X1232Y1056D02*
X1270Y1056D01*
X934Y1055D02*
X968Y1055D01*
X1234Y1055D02*
X1268Y1055D01*
X936Y1054D02*
X966Y1054D01*
X1236Y1054D02*
X1266Y1054D01*
X939Y1053D02*
X963Y1053D01*
X1239Y1053D02*
X1263Y1053D01*
X942Y1052D02*
X960Y1052D01*
X1242Y1052D02*
X1260Y1052D01*
X949Y1051D02*
X953Y1051D01*
X1249Y1051D02*
X1253Y1051D01*
X944Y1030D02*
X958Y1030D01*
X1244Y1030D02*
X1258Y1030D01*
X940Y1029D02*
X962Y1029D01*
X1240Y1029D02*
X1262Y1029D01*
X937Y1028D02*
X965Y1028D01*
X1237Y1028D02*
X1265Y1028D01*
X934Y1027D02*
X968Y1027D01*
X1234Y1027D02*
X1267Y1027D01*
X932Y1026D02*
X969Y1026D01*
X1232Y1026D02*
X1269Y1026D01*
X931Y1025D02*
X971Y1025D01*
X1231Y1025D02*
X1271Y1025D01*
X929Y1024D02*
X973Y1024D01*
X1229Y1024D02*
X1273Y1024D01*
X928Y1023D02*
X974Y1023D01*
X1228Y1023D02*
X1274Y1023D01*
X927Y1022D02*
X975Y1022D01*
X1226Y1022D02*
X1275Y1022D01*
X925Y1021D02*
X977Y1021D01*
X1225Y1021D02*
X1277Y1021D01*
X924Y1020D02*
X978Y1020D01*
X1224Y1020D02*
X1278Y1020D01*
X923Y1019D02*
X979Y1019D01*
X1223Y1019D02*
X1279Y1019D01*
X922Y1018D02*
X980Y1018D01*
X1222Y1018D02*
X1280Y1018D01*
X921Y1017D02*
X981Y1017D01*
X1221Y1017D02*
X1281Y1017D01*
X920Y1016D02*
X982Y1016D01*
X1220Y1016D02*
X1281Y1016D01*
X920Y1015D02*
X982Y1015D01*
X1220Y1015D02*
X1282Y1015D01*
X919Y1014D02*
X983Y1014D01*
X1219Y1014D02*
X1283Y1014D01*
X918Y1013D02*
X984Y1013D01*
X1218Y1013D02*
X1284Y1013D01*
X918Y1012D02*
X984Y1012D01*
X1218Y1012D02*
X1284Y1012D01*
X917Y1011D02*
X985Y1011D01*
X1217Y1011D02*
X1285Y1011D01*
X916Y1010D02*
X986Y1010D01*
X1216Y1010D02*
X1286Y1010D01*
X916Y1009D02*
X986Y1009D01*
X1216Y1009D02*
X1286Y1009D01*
X915Y1008D02*
X987Y1008D01*
X1215Y1008D02*
X1287Y1008D01*
X915Y1007D02*
X987Y1007D01*
X1215Y1007D02*
X1287Y1007D01*
X914Y1006D02*
X988Y1006D01*
X1214Y1006D02*
X1287Y1006D01*
X914Y1005D02*
X988Y1005D01*
X1214Y1005D02*
X1288Y1005D01*
X914Y1004D02*
X988Y1004D01*
X1214Y1004D02*
X1288Y1004D01*
X913Y1003D02*
X989Y1003D01*
X1213Y1003D02*
X1289Y1003D01*
X913Y1002D02*
X989Y1002D01*
X1213Y1002D02*
X1289Y1002D01*
X913Y1001D02*
X989Y1001D01*
X1213Y1001D02*
X1289Y1001D01*
X913Y1000D02*
X989Y1000D01*
X1213Y1000D02*
X1289Y1000D01*
X912Y999D02*
X990Y999D01*
X1212Y999D02*
X1290Y999D01*
X912Y998D02*
X990Y998D01*
X1212Y998D02*
X1290Y998D01*
X912Y997D02*
X990Y997D01*
X1212Y997D02*
X1290Y997D01*
X912Y996D02*
X990Y996D01*
X1212Y996D02*
X1290Y996D01*
X912Y995D02*
X990Y995D01*
X1212Y995D02*
X1290Y995D01*
X912Y994D02*
X990Y994D01*
X1212Y994D02*
X1290Y994D01*
X912Y993D02*
X990Y993D01*
X1212Y993D02*
X1290Y993D01*
X912Y992D02*
X990Y992D01*
X1212Y992D02*
X1290Y992D01*
X912Y991D02*
X990Y991D01*
X1211Y991D02*
X1290Y991D01*
X912Y990D02*
X990Y990D01*
X1211Y990D02*
X1290Y990D01*
X912Y989D02*
X990Y989D01*
X1212Y989D02*
X1290Y989D01*
X912Y988D02*
X990Y988D01*
X1212Y988D02*
X1290Y988D01*
X912Y987D02*
X990Y987D01*
X1212Y987D02*
X1290Y987D01*
X912Y986D02*
X990Y986D01*
X1212Y986D02*
X1290Y986D01*
X912Y985D02*
X990Y985D01*
X1212Y985D02*
X1290Y985D01*
X912Y984D02*
X990Y984D01*
X1212Y984D02*
X1290Y984D01*
X912Y983D02*
X990Y983D01*
X1212Y983D02*
X1290Y983D01*
X913Y982D02*
X989Y982D01*
X1213Y982D02*
X1289Y982D01*
X913Y981D02*
X989Y981D01*
X1213Y981D02*
X1289Y981D01*
X913Y980D02*
X989Y980D01*
X1213Y980D02*
X1289Y980D01*
X913Y979D02*
X989Y979D01*
X1213Y979D02*
X1289Y979D01*
X914Y978D02*
X988Y978D01*
X1214Y978D02*
X1288Y978D01*
X914Y977D02*
X988Y977D01*
X1214Y977D02*
X1288Y977D01*
X914Y976D02*
X988Y976D01*
X1214Y976D02*
X1288Y976D01*
X915Y975D02*
X987Y975D01*
X1215Y975D02*
X1287Y975D01*
X915Y974D02*
X987Y974D01*
X1215Y974D02*
X1287Y974D01*
X916Y973D02*
X986Y973D01*
X1216Y973D02*
X1286Y973D01*
X916Y972D02*
X986Y972D01*
X1216Y972D02*
X1286Y972D01*
X917Y971D02*
X985Y971D01*
X1217Y971D02*
X1285Y971D01*
X917Y970D02*
X984Y970D01*
X1217Y970D02*
X1284Y970D01*
X918Y969D02*
X984Y969D01*
X1218Y969D02*
X1284Y969D01*
X919Y968D02*
X983Y968D01*
X1219Y968D02*
X1283Y968D01*
X920Y967D02*
X982Y967D01*
X1219Y967D02*
X1282Y967D01*
X920Y966D02*
X982Y966D01*
X1220Y966D02*
X1282Y966D01*
X921Y965D02*
X981Y965D01*
X1221Y965D02*
X1281Y965D01*
X922Y964D02*
X980Y964D01*
X1222Y964D02*
X1280Y964D01*
X923Y963D02*
X979Y963D01*
X1223Y963D02*
X1279Y963D01*
X924Y962D02*
X978Y962D01*
X1224Y962D02*
X1278Y962D01*
X925Y961D02*
X977Y961D01*
X1225Y961D02*
X1277Y961D01*
X926Y960D02*
X976Y960D01*
X1226Y960D02*
X1276Y960D01*
X928Y959D02*
X974Y959D01*
X1227Y959D02*
X1274Y959D01*
X929Y958D02*
X973Y958D01*
X1229Y958D02*
X1273Y958D01*
X930Y957D02*
X972Y957D01*
X1230Y957D02*
X1272Y957D01*
X932Y956D02*
X970Y956D01*
X1232Y956D02*
X1270Y956D01*
X934Y955D02*
X968Y955D01*
X1234Y955D02*
X1268Y955D01*
X936Y954D02*
X966Y954D01*
X1236Y954D02*
X1266Y954D01*
X939Y953D02*
X963Y953D01*
X1239Y953D02*
X1263Y953D01*
X943Y952D02*
X959Y952D01*
X1242Y952D02*
X1259Y952D01*
X949Y951D02*
X953Y951D01*
X1249Y951D02*
X1253Y951D01*
X943Y930D02*
X959Y930D01*
X1243Y930D02*
X1258Y930D01*
X939Y929D02*
X963Y929D01*
X1239Y929D02*
X1262Y929D01*
X937Y928D02*
X965Y928D01*
X1237Y928D02*
X1265Y928D01*
X934Y927D02*
X968Y927D01*
X1234Y927D02*
X1268Y927D01*
X932Y926D02*
X970Y926D01*
X1232Y926D02*
X1270Y926D01*
X931Y925D02*
X971Y925D01*
X1231Y925D02*
X1271Y925D01*
X929Y924D02*
X973Y924D01*
X1229Y924D02*
X1273Y924D01*
X928Y923D02*
X974Y923D01*
X1228Y923D02*
X1274Y923D01*
X926Y922D02*
X976Y922D01*
X1226Y922D02*
X1275Y922D01*
X925Y921D02*
X977Y921D01*
X1225Y921D02*
X1277Y921D01*
X924Y920D02*
X978Y920D01*
X1224Y920D02*
X1278Y920D01*
X923Y919D02*
X979Y919D01*
X1223Y919D02*
X1279Y919D01*
X922Y918D02*
X980Y918D01*
X1222Y918D02*
X1280Y918D01*
X921Y917D02*
X981Y917D01*
X1221Y917D02*
X1281Y917D01*
X920Y916D02*
X982Y916D01*
X1220Y916D02*
X1282Y916D01*
X920Y915D02*
X982Y915D01*
X1220Y915D02*
X1282Y915D01*
X919Y914D02*
X983Y914D01*
X1219Y914D02*
X1283Y914D01*
X918Y913D02*
X984Y913D01*
X1218Y913D02*
X1284Y913D01*
X918Y912D02*
X984Y912D01*
X1218Y912D02*
X1284Y912D01*
X917Y911D02*
X985Y911D01*
X1217Y911D02*
X1285Y911D01*
X916Y910D02*
X986Y910D01*
X1216Y910D02*
X1286Y910D01*
X916Y909D02*
X986Y909D01*
X1216Y909D02*
X1286Y909D01*
X915Y908D02*
X987Y908D01*
X1215Y908D02*
X1287Y908D01*
X915Y907D02*
X987Y907D01*
X1215Y907D02*
X1287Y907D01*
X914Y906D02*
X988Y906D01*
X1214Y906D02*
X1287Y906D01*
X914Y905D02*
X988Y905D01*
X1214Y905D02*
X1288Y905D01*
X914Y904D02*
X988Y904D01*
X1214Y904D02*
X1288Y904D01*
X913Y903D02*
X989Y903D01*
X1213Y903D02*
X1289Y903D01*
X913Y902D02*
X989Y902D01*
X1213Y902D02*
X1289Y902D01*
X913Y901D02*
X989Y901D01*
X1213Y901D02*
X1289Y901D01*
X913Y900D02*
X989Y900D01*
X1213Y900D02*
X1289Y900D01*
X912Y899D02*
X990Y899D01*
X1212Y899D02*
X1290Y899D01*
X912Y898D02*
X990Y898D01*
X1212Y898D02*
X1290Y898D01*
X912Y897D02*
X990Y897D01*
X1212Y897D02*
X1290Y897D01*
X912Y896D02*
X990Y896D01*
X1212Y896D02*
X1290Y896D01*
X912Y895D02*
X990Y895D01*
X1212Y895D02*
X1290Y895D01*
X912Y894D02*
X990Y894D01*
X1212Y894D02*
X1290Y894D01*
X912Y893D02*
X990Y893D01*
X1212Y893D02*
X1290Y893D01*
X912Y892D02*
X990Y892D01*
X1212Y892D02*
X1290Y892D01*
X912Y891D02*
X990Y891D01*
X1211Y891D02*
X1290Y891D01*
X912Y890D02*
X990Y890D01*
X1212Y890D02*
X1290Y890D01*
X912Y889D02*
X990Y889D01*
X1212Y889D02*
X1290Y889D01*
X912Y888D02*
X990Y888D01*
X1212Y888D02*
X1290Y888D01*
X912Y887D02*
X990Y887D01*
X1212Y887D02*
X1290Y887D01*
X912Y886D02*
X990Y886D01*
X1212Y886D02*
X1290Y886D01*
X912Y885D02*
X990Y885D01*
X1212Y885D02*
X1290Y885D01*
X912Y884D02*
X990Y884D01*
X1212Y884D02*
X1290Y884D01*
X912Y883D02*
X990Y883D01*
X1212Y883D02*
X1290Y883D01*
X913Y882D02*
X989Y882D01*
X1213Y882D02*
X1289Y882D01*
X913Y881D02*
X989Y881D01*
X1213Y881D02*
X1289Y881D01*
X913Y880D02*
X989Y880D01*
X1213Y880D02*
X1289Y880D01*
X913Y879D02*
X989Y879D01*
X1213Y879D02*
X1289Y879D01*
X914Y878D02*
X988Y878D01*
X1214Y878D02*
X1288Y878D01*
X914Y877D02*
X988Y877D01*
X1214Y877D02*
X1288Y877D01*
X914Y876D02*
X988Y876D01*
X1214Y876D02*
X1288Y876D01*
X915Y875D02*
X987Y875D01*
X1215Y875D02*
X1287Y875D01*
X915Y874D02*
X987Y874D01*
X1215Y874D02*
X1287Y874D01*
X916Y873D02*
X986Y873D01*
X1216Y873D02*
X1286Y873D01*
X916Y872D02*
X986Y872D01*
X1216Y872D02*
X1286Y872D01*
X917Y871D02*
X985Y871D01*
X1217Y871D02*
X1285Y871D01*
X918Y870D02*
X984Y870D01*
X1217Y870D02*
X1284Y870D01*
X918Y869D02*
X984Y869D01*
X1218Y869D02*
X1284Y869D01*
X919Y868D02*
X983Y868D01*
X1219Y868D02*
X1283Y868D01*
X920Y867D02*
X982Y867D01*
X1220Y867D02*
X1282Y867D01*
X920Y866D02*
X982Y866D01*
X1220Y866D02*
X1282Y866D01*
X921Y865D02*
X981Y865D01*
X1221Y865D02*
X1281Y865D01*
X922Y864D02*
X980Y864D01*
X1222Y864D02*
X1280Y864D01*
X923Y863D02*
X979Y863D01*
X1223Y863D02*
X1279Y863D01*
X924Y862D02*
X978Y862D01*
X1224Y862D02*
X1278Y862D01*
X925Y861D02*
X977Y861D01*
X1225Y861D02*
X1277Y861D01*
X926Y860D02*
X976Y860D01*
X1226Y860D02*
X1276Y860D01*
X928Y859D02*
X974Y859D01*
X1228Y859D02*
X1274Y859D01*
X929Y858D02*
X973Y858D01*
X1229Y858D02*
X1273Y858D01*
X930Y857D02*
X972Y857D01*
X1230Y857D02*
X1271Y857D01*
X932Y856D02*
X970Y856D01*
X1232Y856D02*
X1270Y856D01*
X934Y855D02*
X968Y855D01*
X1234Y855D02*
X1268Y855D01*
X936Y854D02*
X966Y854D01*
X1236Y854D02*
X1266Y854D01*
X939Y853D02*
X963Y853D01*
X1239Y853D02*
X1263Y853D01*
X943Y852D02*
X959Y852D01*
X1243Y852D02*
X1259Y852D01*
X950Y851D02*
X952Y851D01*
X1250Y851D02*
X1252Y851D01*
X943Y830D02*
X959Y830D01*
X1243Y830D02*
X1259Y830D01*
X939Y829D02*
X963Y829D01*
X1239Y829D02*
X1263Y829D01*
X937Y828D02*
X965Y828D01*
X1236Y828D02*
X1265Y828D01*
X934Y827D02*
X968Y827D01*
X1234Y827D02*
X1268Y827D01*
X932Y826D02*
X970Y826D01*
X1232Y826D02*
X1270Y826D01*
X931Y825D02*
X971Y825D01*
X1231Y825D02*
X1271Y825D01*
X929Y824D02*
X973Y824D01*
X1229Y824D02*
X1273Y824D01*
X928Y823D02*
X974Y823D01*
X1228Y823D02*
X1274Y823D01*
X926Y822D02*
X976Y822D01*
X1226Y822D02*
X1276Y822D01*
X925Y821D02*
X977Y821D01*
X1225Y821D02*
X1277Y821D01*
X924Y820D02*
X978Y820D01*
X1224Y820D02*
X1278Y820D01*
X923Y819D02*
X979Y819D01*
X1223Y819D02*
X1279Y819D01*
X922Y818D02*
X980Y818D01*
X1222Y818D02*
X1280Y818D01*
X921Y817D02*
X981Y817D01*
X1221Y817D02*
X1281Y817D01*
X920Y816D02*
X982Y816D01*
X1220Y816D02*
X1282Y816D01*
X920Y815D02*
X982Y815D01*
X1220Y815D02*
X1282Y815D01*
X919Y814D02*
X983Y814D01*
X1219Y814D02*
X1283Y814D01*
X918Y813D02*
X984Y813D01*
X1218Y813D02*
X1284Y813D01*
X918Y812D02*
X984Y812D01*
X1218Y812D02*
X1284Y812D01*
X917Y811D02*
X985Y811D01*
X1217Y811D02*
X1285Y811D01*
X916Y810D02*
X986Y810D01*
X1216Y810D02*
X1286Y810D01*
X916Y809D02*
X986Y809D01*
X1216Y809D02*
X1286Y809D01*
X915Y808D02*
X987Y808D01*
X1215Y808D02*
X1287Y808D01*
X915Y807D02*
X987Y807D01*
X1215Y807D02*
X1287Y807D01*
X914Y806D02*
X988Y806D01*
X1214Y806D02*
X1287Y806D01*
X914Y805D02*
X988Y805D01*
X1214Y805D02*
X1288Y805D01*
X914Y804D02*
X988Y804D01*
X1214Y804D02*
X1288Y804D01*
X913Y803D02*
X989Y803D01*
X1213Y803D02*
X1289Y803D01*
X913Y802D02*
X989Y802D01*
X1213Y802D02*
X1289Y802D01*
X913Y801D02*
X989Y801D01*
X1213Y801D02*
X1289Y801D01*
X913Y800D02*
X989Y800D01*
X1213Y800D02*
X1289Y800D01*
X912Y799D02*
X990Y799D01*
X1212Y799D02*
X1290Y799D01*
X912Y798D02*
X990Y798D01*
X1212Y798D02*
X1290Y798D01*
X912Y797D02*
X990Y797D01*
X1212Y797D02*
X1290Y797D01*
X912Y796D02*
X990Y796D01*
X1212Y796D02*
X1290Y796D01*
X912Y795D02*
X990Y795D01*
X1212Y795D02*
X1290Y795D01*
X912Y794D02*
X990Y794D01*
X1212Y794D02*
X1290Y794D01*
X912Y793D02*
X990Y793D01*
X1212Y793D02*
X1290Y793D01*
X912Y792D02*
X990Y792D01*
X1212Y792D02*
X1290Y792D01*
X912Y791D02*
X990Y791D01*
X1211Y791D02*
X1290Y791D01*
X912Y790D02*
X990Y790D01*
X1212Y790D02*
X1290Y790D01*
X912Y789D02*
X990Y789D01*
X1212Y789D02*
X1290Y789D01*
X912Y788D02*
X990Y788D01*
X1212Y788D02*
X1290Y788D01*
X912Y787D02*
X990Y787D01*
X1212Y787D02*
X1290Y787D01*
X912Y786D02*
X990Y786D01*
X1212Y786D02*
X1290Y786D01*
X912Y785D02*
X990Y785D01*
X1212Y785D02*
X1290Y785D01*
X912Y784D02*
X990Y784D01*
X1212Y784D02*
X1290Y784D01*
X912Y783D02*
X990Y783D01*
X1212Y783D02*
X1290Y783D01*
X913Y782D02*
X989Y782D01*
X1213Y782D02*
X1289Y782D01*
X913Y781D02*
X989Y781D01*
X1213Y781D02*
X1289Y781D01*
X913Y780D02*
X989Y780D01*
X1213Y780D02*
X1289Y780D01*
X913Y779D02*
X989Y779D01*
X1213Y779D02*
X1289Y779D01*
X914Y778D02*
X988Y778D01*
X1214Y778D02*
X1288Y778D01*
X914Y777D02*
X988Y777D01*
X1214Y777D02*
X1288Y777D01*
X914Y776D02*
X988Y776D01*
X1214Y776D02*
X1288Y776D01*
X915Y775D02*
X987Y775D01*
X1215Y775D02*
X1287Y775D01*
X915Y774D02*
X987Y774D01*
X1215Y774D02*
X1287Y774D01*
X916Y773D02*
X986Y773D01*
X1216Y773D02*
X1286Y773D01*
X916Y772D02*
X986Y772D01*
X1216Y772D02*
X1286Y772D01*
X917Y771D02*
X985Y771D01*
X1217Y771D02*
X1285Y771D01*
X918Y770D02*
X984Y770D01*
X1217Y770D02*
X1284Y770D01*
X918Y769D02*
X984Y769D01*
X1218Y769D02*
X1284Y769D01*
X919Y768D02*
X983Y768D01*
X1219Y768D02*
X1283Y768D01*
X920Y767D02*
X982Y767D01*
X1220Y767D02*
X1282Y767D01*
X920Y766D02*
X982Y766D01*
X1220Y766D02*
X1282Y766D01*
X921Y765D02*
X981Y765D01*
X1221Y765D02*
X1281Y765D01*
X922Y764D02*
X980Y764D01*
X1222Y764D02*
X1280Y764D01*
X923Y763D02*
X979Y763D01*
X1223Y763D02*
X1279Y763D01*
X924Y762D02*
X978Y762D01*
X1224Y762D02*
X1278Y762D01*
X925Y761D02*
X977Y761D01*
X1225Y761D02*
X1277Y761D01*
X926Y760D02*
X976Y760D01*
X1226Y760D02*
X1276Y760D01*
X928Y759D02*
X974Y759D01*
X1228Y759D02*
X1274Y759D01*
X929Y758D02*
X973Y758D01*
X1229Y758D02*
X1273Y758D01*
X931Y757D02*
X971Y757D01*
X1231Y757D02*
X1271Y757D01*
X932Y756D02*
X970Y756D01*
X1232Y756D02*
X1270Y756D01*
X934Y755D02*
X968Y755D01*
X1234Y755D02*
X1268Y755D01*
X936Y754D02*
X966Y754D01*
X1236Y754D02*
X1266Y754D01*
X939Y753D02*
X963Y753D01*
X1239Y753D02*
X1263Y753D01*
X943Y752D02*
X959Y752D01*
X1243Y752D02*
X1259Y752D01*
X951Y751D02*
X951Y751D01*
X1251Y751D02*
X1251Y751D01*
X943Y730D02*
X959Y730D01*
X1243Y730D02*
X1259Y730D01*
X939Y729D02*
X963Y729D01*
X1239Y729D02*
X1263Y729D01*
X936Y728D02*
X966Y728D01*
X1236Y728D02*
X1266Y728D01*
X934Y727D02*
X968Y727D01*
X1234Y727D02*
X1268Y727D01*
X932Y726D02*
X970Y726D01*
X1232Y726D02*
X1270Y726D01*
X931Y725D02*
X971Y725D01*
X1231Y725D02*
X1271Y725D01*
X929Y724D02*
X973Y724D01*
X1229Y724D02*
X1273Y724D01*
X928Y723D02*
X974Y723D01*
X1228Y723D02*
X1274Y723D01*
X926Y722D02*
X976Y722D01*
X1226Y722D02*
X1276Y722D01*
X925Y721D02*
X977Y721D01*
X1225Y721D02*
X1277Y721D01*
X924Y720D02*
X978Y720D01*
X1224Y720D02*
X1278Y720D01*
X923Y719D02*
X979Y719D01*
X1223Y719D02*
X1279Y719D01*
X922Y718D02*
X980Y718D01*
X1222Y718D02*
X1280Y718D01*
X921Y717D02*
X981Y717D01*
X1221Y717D02*
X1281Y717D01*
X920Y716D02*
X982Y716D01*
X1220Y716D02*
X1282Y716D01*
X920Y715D02*
X982Y715D01*
X1220Y715D02*
X1282Y715D01*
X919Y714D02*
X983Y714D01*
X1219Y714D02*
X1283Y714D01*
X918Y713D02*
X984Y713D01*
X1218Y713D02*
X1284Y713D01*
X918Y712D02*
X984Y712D01*
X1218Y712D02*
X1284Y712D01*
X917Y711D02*
X985Y711D01*
X1217Y711D02*
X1285Y711D01*
X916Y710D02*
X986Y710D01*
X1216Y710D02*
X1286Y710D01*
X916Y709D02*
X986Y709D01*
X1216Y709D02*
X1286Y709D01*
X915Y708D02*
X987Y708D01*
X1215Y708D02*
X1287Y708D01*
X915Y707D02*
X987Y707D01*
X1215Y707D02*
X1287Y707D01*
X914Y706D02*
X988Y706D01*
X1214Y706D02*
X1287Y706D01*
X914Y705D02*
X988Y705D01*
X1214Y705D02*
X1288Y705D01*
X914Y704D02*
X988Y704D01*
X1214Y704D02*
X1288Y704D01*
X913Y703D02*
X989Y703D01*
X1213Y703D02*
X1289Y703D01*
X913Y702D02*
X989Y702D01*
X1213Y702D02*
X1289Y702D01*
X913Y701D02*
X989Y701D01*
X1213Y701D02*
X1289Y701D01*
X913Y700D02*
X989Y700D01*
X1213Y700D02*
X1289Y700D01*
X912Y699D02*
X990Y699D01*
X1212Y699D02*
X1290Y699D01*
X912Y698D02*
X990Y698D01*
X1212Y698D02*
X1290Y698D01*
X912Y697D02*
X990Y697D01*
X1212Y697D02*
X1290Y697D01*
X912Y696D02*
X990Y696D01*
X1212Y696D02*
X1290Y696D01*
X912Y695D02*
X990Y695D01*
X1212Y695D02*
X1290Y695D01*
X912Y694D02*
X990Y694D01*
X1212Y694D02*
X1290Y694D01*
X912Y693D02*
X990Y693D01*
X1212Y693D02*
X1290Y693D01*
X912Y692D02*
X990Y692D01*
X1212Y692D02*
X1290Y692D01*
X912Y691D02*
X990Y691D01*
X1211Y691D02*
X1290Y691D01*
X912Y690D02*
X990Y690D01*
X1212Y690D02*
X1290Y690D01*
X912Y689D02*
X990Y689D01*
X1212Y689D02*
X1290Y689D01*
X912Y688D02*
X990Y688D01*
X1212Y688D02*
X1290Y688D01*
X912Y687D02*
X990Y687D01*
X1212Y687D02*
X1290Y687D01*
X912Y686D02*
X990Y686D01*
X1212Y686D02*
X1290Y686D01*
X912Y685D02*
X990Y685D01*
X1212Y685D02*
X1290Y685D01*
X912Y684D02*
X990Y684D01*
X1212Y684D02*
X1290Y684D01*
X912Y683D02*
X990Y683D01*
X1212Y683D02*
X1290Y683D01*
X913Y682D02*
X989Y682D01*
X1213Y682D02*
X1289Y682D01*
X913Y681D02*
X989Y681D01*
X1213Y681D02*
X1289Y681D01*
X913Y680D02*
X989Y680D01*
X1213Y680D02*
X1289Y680D01*
X913Y679D02*
X989Y679D01*
X1213Y679D02*
X1289Y679D01*
X914Y678D02*
X988Y678D01*
X1214Y678D02*
X1288Y678D01*
X914Y677D02*
X988Y677D01*
X1214Y677D02*
X1288Y677D01*
X914Y676D02*
X988Y676D01*
X1214Y676D02*
X1288Y676D01*
X915Y675D02*
X987Y675D01*
X1215Y675D02*
X1287Y675D01*
X915Y674D02*
X987Y674D01*
X1215Y674D02*
X1287Y674D01*
X916Y673D02*
X986Y673D01*
X1216Y673D02*
X1286Y673D01*
X916Y672D02*
X986Y672D01*
X1216Y672D02*
X1286Y672D01*
X917Y671D02*
X985Y671D01*
X1217Y671D02*
X1285Y671D01*
X918Y670D02*
X984Y670D01*
X1218Y670D02*
X1284Y670D01*
X918Y669D02*
X984Y669D01*
X1218Y669D02*
X1284Y669D01*
X919Y668D02*
X983Y668D01*
X1219Y668D02*
X1283Y668D01*
X920Y667D02*
X982Y667D01*
X1220Y667D02*
X1282Y667D01*
X920Y666D02*
X982Y666D01*
X1220Y666D02*
X1282Y666D01*
X921Y665D02*
X981Y665D01*
X1221Y665D02*
X1281Y665D01*
X922Y664D02*
X980Y664D01*
X1222Y664D02*
X1280Y664D01*
X923Y663D02*
X979Y663D01*
X1223Y663D02*
X1279Y663D01*
X924Y662D02*
X978Y662D01*
X1224Y662D02*
X1278Y662D01*
X925Y661D02*
X977Y661D01*
X1225Y661D02*
X1277Y661D01*
X926Y660D02*
X976Y660D01*
X1226Y660D02*
X1276Y660D01*
X928Y659D02*
X974Y659D01*
X1228Y659D02*
X1274Y659D01*
X929Y658D02*
X973Y658D01*
X1229Y658D02*
X1273Y658D01*
X931Y657D02*
X971Y657D01*
X1231Y657D02*
X1271Y657D01*
X932Y656D02*
X970Y656D01*
X1232Y656D02*
X1270Y656D01*
X934Y655D02*
X968Y655D01*
X1234Y655D02*
X1268Y655D01*
X936Y654D02*
X966Y654D01*
X1236Y654D02*
X1266Y654D01*
X939Y653D02*
X963Y653D01*
X1239Y653D02*
X1263Y653D01*
X943Y652D02*
X959Y652D01*
X1243Y652D02*
X1259Y652D01*
X943Y630D02*
X959Y630D01*
X1243Y630D02*
X1259Y630D01*
X939Y629D02*
X963Y629D01*
X1239Y629D02*
X1263Y629D01*
X936Y628D02*
X966Y628D01*
X1236Y628D02*
X1266Y628D01*
X934Y627D02*
X968Y627D01*
X1234Y627D02*
X1268Y627D01*
X932Y626D02*
X970Y626D01*
X1232Y626D02*
X1270Y626D01*
X931Y625D02*
X971Y625D01*
X1231Y625D02*
X1271Y625D01*
X929Y624D02*
X973Y624D01*
X1229Y624D02*
X1273Y624D01*
X928Y623D02*
X974Y623D01*
X1228Y623D02*
X1274Y623D01*
X926Y622D02*
X976Y622D01*
X1226Y622D02*
X1276Y622D01*
X925Y621D02*
X977Y621D01*
X1225Y621D02*
X1277Y621D01*
X924Y620D02*
X978Y620D01*
X1224Y620D02*
X1278Y620D01*
X923Y619D02*
X979Y619D01*
X1223Y619D02*
X1279Y619D01*
X922Y618D02*
X980Y618D01*
X1222Y618D02*
X1280Y618D01*
X921Y617D02*
X981Y617D01*
X1221Y617D02*
X1281Y617D01*
X920Y616D02*
X982Y616D01*
X1220Y616D02*
X1282Y616D01*
X920Y615D02*
X982Y615D01*
X1220Y615D02*
X1282Y615D01*
X919Y614D02*
X983Y614D01*
X1219Y614D02*
X1283Y614D01*
X918Y613D02*
X984Y613D01*
X1218Y613D02*
X1284Y613D01*
X918Y612D02*
X984Y612D01*
X1218Y612D02*
X1284Y612D01*
X917Y611D02*
X985Y611D01*
X1217Y611D02*
X1285Y611D01*
X916Y610D02*
X986Y610D01*
X1216Y610D02*
X1286Y610D01*
X916Y609D02*
X986Y609D01*
X1216Y609D02*
X1286Y609D01*
X915Y608D02*
X987Y608D01*
X1215Y608D02*
X1287Y608D01*
X915Y607D02*
X987Y607D01*
X1215Y607D02*
X1287Y607D01*
X914Y606D02*
X988Y606D01*
X1214Y606D02*
X1288Y606D01*
X914Y605D02*
X988Y605D01*
X1214Y605D02*
X1288Y605D01*
X914Y604D02*
X988Y604D01*
X1214Y604D02*
X1288Y604D01*
X913Y603D02*
X989Y603D01*
X1213Y603D02*
X1289Y603D01*
X913Y602D02*
X989Y602D01*
X1213Y602D02*
X1289Y602D01*
X913Y601D02*
X989Y601D01*
X1213Y601D02*
X1289Y601D01*
X913Y600D02*
X989Y600D01*
X1213Y600D02*
X1289Y600D01*
X912Y599D02*
X990Y599D01*
X1212Y599D02*
X1290Y599D01*
X912Y598D02*
X990Y598D01*
X1212Y598D02*
X1290Y598D01*
X912Y597D02*
X990Y597D01*
X1212Y597D02*
X1290Y597D01*
X912Y596D02*
X990Y596D01*
X1212Y596D02*
X1290Y596D01*
X912Y595D02*
X990Y595D01*
X1212Y595D02*
X1290Y595D01*
X912Y594D02*
X990Y594D01*
X1212Y594D02*
X1290Y594D01*
X912Y593D02*
X990Y593D01*
X1212Y593D02*
X1290Y593D01*
X912Y592D02*
X990Y592D01*
X1212Y592D02*
X1290Y592D01*
X912Y591D02*
X990Y591D01*
X1211Y591D02*
X1290Y591D01*
X912Y590D02*
X990Y590D01*
X1212Y590D02*
X1290Y590D01*
X912Y589D02*
X990Y589D01*
X1212Y589D02*
X1290Y589D01*
X912Y588D02*
X990Y588D01*
X1212Y588D02*
X1290Y588D01*
X912Y587D02*
X990Y587D01*
X1212Y587D02*
X1290Y587D01*
X912Y586D02*
X990Y586D01*
X1212Y586D02*
X1290Y586D01*
X912Y585D02*
X990Y585D01*
X1212Y585D02*
X1290Y585D01*
X912Y584D02*
X990Y584D01*
X1212Y584D02*
X1290Y584D01*
X912Y583D02*
X990Y583D01*
X1212Y583D02*
X1290Y583D01*
X913Y582D02*
X989Y582D01*
X1213Y582D02*
X1289Y582D01*
X913Y581D02*
X989Y581D01*
X1213Y581D02*
X1289Y581D01*
X913Y580D02*
X989Y580D01*
X1213Y580D02*
X1289Y580D01*
X913Y579D02*
X989Y579D01*
X1213Y579D02*
X1289Y579D01*
X914Y578D02*
X988Y578D01*
X1214Y578D02*
X1288Y578D01*
X914Y577D02*
X988Y577D01*
X1214Y577D02*
X1288Y577D01*
X914Y576D02*
X988Y576D01*
X1214Y576D02*
X1287Y576D01*
X915Y575D02*
X987Y575D01*
X1215Y575D02*
X1287Y575D01*
X915Y574D02*
X987Y574D01*
X1215Y574D02*
X1287Y574D01*
X916Y573D02*
X986Y573D01*
X1216Y573D02*
X1286Y573D01*
X916Y572D02*
X986Y572D01*
X1216Y572D02*
X1286Y572D01*
X917Y571D02*
X985Y571D01*
X1217Y571D02*
X1285Y571D01*
X918Y570D02*
X984Y570D01*
X1218Y570D02*
X1284Y570D01*
X918Y569D02*
X984Y569D01*
X1218Y569D02*
X1284Y569D01*
X919Y568D02*
X983Y568D01*
X1219Y568D02*
X1283Y568D01*
X920Y567D02*
X982Y567D01*
X1220Y567D02*
X1282Y567D01*
X920Y566D02*
X982Y566D01*
X1220Y566D02*
X1282Y566D01*
X921Y565D02*
X981Y565D01*
X1221Y565D02*
X1281Y565D01*
X922Y564D02*
X980Y564D01*
X1222Y564D02*
X1280Y564D01*
X923Y563D02*
X979Y563D01*
X1223Y563D02*
X1279Y563D01*
X924Y562D02*
X978Y562D01*
X1224Y562D02*
X1278Y562D01*
X925Y561D02*
X977Y561D01*
X1225Y561D02*
X1277Y561D01*
X926Y560D02*
X976Y560D01*
X1226Y560D02*
X1276Y560D01*
X928Y559D02*
X974Y559D01*
X1228Y559D02*
X1274Y559D01*
X929Y558D02*
X973Y558D01*
X1229Y558D02*
X1273Y558D01*
X931Y557D02*
X971Y557D01*
X1231Y557D02*
X1271Y557D01*
X932Y556D02*
X970Y556D01*
X1232Y556D02*
X1270Y556D01*
X934Y555D02*
X968Y555D01*
X1234Y555D02*
X1268Y555D01*
X936Y554D02*
X966Y554D01*
X1236Y554D02*
X1265Y554D01*
X939Y553D02*
X963Y553D01*
X1239Y553D02*
X1263Y553D01*
X943Y552D02*
X959Y552D01*
X1243Y552D02*
X1259Y552D01*
X951Y531D02*
X951Y531D01*
X1251Y531D02*
X1251Y531D01*
X943Y530D02*
X959Y530D01*
X1243Y530D02*
X1259Y530D01*
X939Y529D02*
X963Y529D01*
X1239Y529D02*
X1263Y529D01*
X936Y528D02*
X966Y528D01*
X1236Y528D02*
X1266Y528D01*
X934Y527D02*
X968Y527D01*
X1234Y527D02*
X1268Y527D01*
X932Y526D02*
X970Y526D01*
X1232Y526D02*
X1270Y526D01*
X931Y525D02*
X971Y525D01*
X1230Y525D02*
X1271Y525D01*
X929Y524D02*
X973Y524D01*
X1229Y524D02*
X1273Y524D01*
X928Y523D02*
X974Y523D01*
X1228Y523D02*
X1274Y523D01*
X926Y522D02*
X976Y522D01*
X1226Y522D02*
X1276Y522D01*
X925Y521D02*
X977Y521D01*
X1225Y521D02*
X1277Y521D01*
X924Y520D02*
X978Y520D01*
X1224Y520D02*
X1278Y520D01*
X923Y519D02*
X979Y519D01*
X1223Y519D02*
X1279Y519D01*
X922Y518D02*
X980Y518D01*
X1222Y518D02*
X1280Y518D01*
X921Y517D02*
X981Y517D01*
X1221Y517D02*
X1281Y517D01*
X920Y516D02*
X982Y516D01*
X1220Y516D02*
X1282Y516D01*
X920Y515D02*
X982Y515D01*
X1220Y515D02*
X1282Y515D01*
X919Y514D02*
X983Y514D01*
X1219Y514D02*
X1283Y514D01*
X918Y513D02*
X984Y513D01*
X1218Y513D02*
X1284Y513D01*
X918Y512D02*
X984Y512D01*
X1217Y512D02*
X1284Y512D01*
X917Y511D02*
X985Y511D01*
X1217Y511D02*
X1285Y511D01*
X916Y510D02*
X986Y510D01*
X1216Y510D02*
X1286Y510D01*
X916Y509D02*
X986Y509D01*
X1216Y509D02*
X1286Y509D01*
X915Y508D02*
X987Y508D01*
X1215Y508D02*
X1287Y508D01*
X915Y507D02*
X987Y507D01*
X1215Y507D02*
X1287Y507D01*
X914Y506D02*
X988Y506D01*
X1214Y506D02*
X1288Y506D01*
X914Y505D02*
X988Y505D01*
X1214Y505D02*
X1288Y505D01*
X914Y504D02*
X988Y504D01*
X1214Y504D02*
X1288Y504D01*
X913Y503D02*
X989Y503D01*
X1213Y503D02*
X1289Y503D01*
X913Y502D02*
X989Y502D01*
X1213Y502D02*
X1289Y502D01*
X913Y501D02*
X989Y501D01*
X1213Y501D02*
X1289Y501D01*
X913Y500D02*
X989Y500D01*
X1213Y500D02*
X1289Y500D01*
X912Y499D02*
X990Y499D01*
X1212Y499D02*
X1290Y499D01*
X912Y498D02*
X990Y498D01*
X1212Y498D02*
X1290Y498D01*
X912Y497D02*
X990Y497D01*
X1212Y497D02*
X1290Y497D01*
X912Y496D02*
X990Y496D01*
X1212Y496D02*
X1290Y496D01*
X912Y495D02*
X990Y495D01*
X1212Y495D02*
X1290Y495D01*
X912Y494D02*
X990Y494D01*
X1212Y494D02*
X1290Y494D01*
X912Y493D02*
X990Y493D01*
X1212Y493D02*
X1290Y493D01*
X912Y492D02*
X990Y492D01*
X1212Y492D02*
X1290Y492D01*
X912Y491D02*
X990Y491D01*
X1211Y491D02*
X1290Y491D01*
X912Y490D02*
X990Y490D01*
X1212Y490D02*
X1290Y490D01*
X912Y489D02*
X990Y489D01*
X1212Y489D02*
X1290Y489D01*
X912Y488D02*
X990Y488D01*
X1212Y488D02*
X1290Y488D01*
X912Y487D02*
X990Y487D01*
X1212Y487D02*
X1290Y487D01*
X912Y486D02*
X990Y486D01*
X1212Y486D02*
X1290Y486D01*
X912Y485D02*
X990Y485D01*
X1212Y485D02*
X1290Y485D01*
X912Y484D02*
X990Y484D01*
X1212Y484D02*
X1290Y484D01*
X912Y483D02*
X990Y483D01*
X1212Y483D02*
X1290Y483D01*
X913Y482D02*
X989Y482D01*
X1213Y482D02*
X1289Y482D01*
X913Y481D02*
X989Y481D01*
X1213Y481D02*
X1289Y481D01*
X913Y480D02*
X989Y480D01*
X1213Y480D02*
X1289Y480D01*
X913Y479D02*
X989Y479D01*
X1213Y479D02*
X1289Y479D01*
X914Y478D02*
X988Y478D01*
X1214Y478D02*
X1288Y478D01*
X914Y477D02*
X988Y477D01*
X1214Y477D02*
X1288Y477D01*
X914Y476D02*
X988Y476D01*
X1214Y476D02*
X1287Y476D01*
X915Y475D02*
X987Y475D01*
X1215Y475D02*
X1287Y475D01*
X915Y474D02*
X987Y474D01*
X1215Y474D02*
X1287Y474D01*
X916Y473D02*
X986Y473D01*
X1216Y473D02*
X1286Y473D01*
X916Y472D02*
X986Y472D01*
X1216Y472D02*
X1286Y472D01*
X917Y471D02*
X985Y471D01*
X1217Y471D02*
X1285Y471D01*
X918Y470D02*
X984Y470D01*
X1218Y470D02*
X1284Y470D01*
X918Y469D02*
X984Y469D01*
X1218Y469D02*
X1284Y469D01*
X919Y468D02*
X983Y468D01*
X1219Y468D02*
X1283Y468D01*
X920Y467D02*
X982Y467D01*
X1220Y467D02*
X1282Y467D01*
X920Y466D02*
X982Y466D01*
X1220Y466D02*
X1282Y466D01*
X921Y465D02*
X981Y465D01*
X1221Y465D02*
X1281Y465D01*
X922Y464D02*
X980Y464D01*
X1222Y464D02*
X1280Y464D01*
X923Y463D02*
X979Y463D01*
X1223Y463D02*
X1279Y463D01*
X924Y462D02*
X978Y462D01*
X1224Y462D02*
X1278Y462D01*
X925Y461D02*
X977Y461D01*
X1225Y461D02*
X1277Y461D01*
X926Y460D02*
X976Y460D01*
X1226Y460D02*
X1276Y460D01*
X928Y459D02*
X974Y459D01*
X1228Y459D02*
X1274Y459D01*
X929Y458D02*
X973Y458D01*
X1229Y458D02*
X1273Y458D01*
X931Y457D02*
X971Y457D01*
X1231Y457D02*
X1271Y457D01*
X932Y456D02*
X970Y456D01*
X1232Y456D02*
X1270Y456D01*
X934Y455D02*
X968Y455D01*
X1234Y455D02*
X1268Y455D01*
X937Y454D02*
X965Y454D01*
X1237Y454D02*
X1265Y454D01*
X939Y453D02*
X963Y453D01*
X1239Y453D02*
X1263Y453D01*
X943Y452D02*
X959Y452D01*
X1243Y452D02*
X1259Y452D01*
X950Y431D02*
X952Y431D01*
X1250Y431D02*
X1252Y431D01*
X943Y430D02*
X959Y430D01*
X1243Y430D02*
X1259Y430D01*
X939Y429D02*
X963Y429D01*
X1239Y429D02*
X1263Y429D01*
X936Y428D02*
X966Y428D01*
X1236Y428D02*
X1266Y428D01*
X934Y427D02*
X968Y427D01*
X1234Y427D02*
X1268Y427D01*
X932Y426D02*
X970Y426D01*
X1232Y426D02*
X1270Y426D01*
X930Y425D02*
X972Y425D01*
X1230Y425D02*
X1271Y425D01*
X929Y424D02*
X973Y424D01*
X1229Y424D02*
X1273Y424D01*
X928Y423D02*
X974Y423D01*
X1227Y423D02*
X1274Y423D01*
X926Y422D02*
X976Y422D01*
X1226Y422D02*
X1276Y422D01*
X925Y421D02*
X977Y421D01*
X1225Y421D02*
X1277Y421D01*
X924Y420D02*
X978Y420D01*
X1224Y420D02*
X1278Y420D01*
X923Y419D02*
X979Y419D01*
X1223Y419D02*
X1279Y419D01*
X922Y418D02*
X980Y418D01*
X1222Y418D02*
X1280Y418D01*
X921Y417D02*
X981Y417D01*
X1221Y417D02*
X1281Y417D01*
X920Y416D02*
X982Y416D01*
X1220Y416D02*
X1282Y416D01*
X920Y415D02*
X982Y415D01*
X1220Y415D02*
X1282Y415D01*
X919Y414D02*
X983Y414D01*
X1219Y414D02*
X1283Y414D01*
X918Y413D02*
X984Y413D01*
X1218Y413D02*
X1284Y413D01*
X918Y412D02*
X984Y412D01*
X1217Y412D02*
X1284Y412D01*
X917Y411D02*
X985Y411D01*
X1217Y411D02*
X1285Y411D01*
X916Y410D02*
X986Y410D01*
X1216Y410D02*
X1286Y410D01*
X916Y409D02*
X986Y409D01*
X1216Y409D02*
X1286Y409D01*
X915Y408D02*
X987Y408D01*
X1215Y408D02*
X1287Y408D01*
X915Y407D02*
X987Y407D01*
X1215Y407D02*
X1287Y407D01*
X914Y406D02*
X988Y406D01*
X1214Y406D02*
X1288Y406D01*
X914Y405D02*
X988Y405D01*
X1214Y405D02*
X1288Y405D01*
X914Y404D02*
X988Y404D01*
X1214Y404D02*
X1288Y404D01*
X913Y403D02*
X989Y403D01*
X1213Y403D02*
X1289Y403D01*
X913Y402D02*
X989Y402D01*
X1213Y402D02*
X1289Y402D01*
X913Y401D02*
X989Y401D01*
X1213Y401D02*
X1289Y401D01*
X913Y400D02*
X989Y400D01*
X1213Y400D02*
X1289Y400D01*
X912Y399D02*
X990Y399D01*
X1212Y399D02*
X1290Y399D01*
X912Y398D02*
X990Y398D01*
X1212Y398D02*
X1290Y398D01*
X912Y397D02*
X990Y397D01*
X1212Y397D02*
X1290Y397D01*
X912Y396D02*
X990Y396D01*
X1212Y396D02*
X1290Y396D01*
X912Y395D02*
X990Y395D01*
X1212Y395D02*
X1290Y395D01*
X912Y394D02*
X990Y394D01*
X1212Y394D02*
X1290Y394D01*
X912Y393D02*
X990Y393D01*
X1212Y393D02*
X1290Y393D01*
X912Y392D02*
X990Y392D01*
X1212Y392D02*
X1290Y392D01*
X912Y391D02*
X990Y391D01*
X1211Y391D02*
X1290Y391D01*
X912Y390D02*
X990Y390D01*
X1212Y390D02*
X1290Y390D01*
X912Y389D02*
X990Y389D01*
X1212Y389D02*
X1290Y389D01*
X912Y388D02*
X990Y388D01*
X1212Y388D02*
X1290Y388D01*
X912Y387D02*
X990Y387D01*
X1212Y387D02*
X1290Y387D01*
X912Y386D02*
X990Y386D01*
X1212Y386D02*
X1290Y386D01*
X912Y385D02*
X990Y385D01*
X1212Y385D02*
X1290Y385D01*
X912Y384D02*
X990Y384D01*
X1212Y384D02*
X1290Y384D01*
X912Y383D02*
X990Y383D01*
X1212Y383D02*
X1290Y383D01*
X913Y382D02*
X989Y382D01*
X1213Y382D02*
X1289Y382D01*
X913Y381D02*
X989Y381D01*
X1213Y381D02*
X1289Y381D01*
X913Y380D02*
X989Y380D01*
X1213Y380D02*
X1289Y380D01*
X913Y379D02*
X989Y379D01*
X1213Y379D02*
X1289Y379D01*
X914Y378D02*
X988Y378D01*
X1214Y378D02*
X1288Y378D01*
X914Y377D02*
X988Y377D01*
X1214Y377D02*
X1288Y377D01*
X914Y376D02*
X988Y376D01*
X1214Y376D02*
X1287Y376D01*
X915Y375D02*
X987Y375D01*
X1215Y375D02*
X1287Y375D01*
X915Y374D02*
X987Y374D01*
X1215Y374D02*
X1287Y374D01*
X916Y373D02*
X986Y373D01*
X1216Y373D02*
X1286Y373D01*
X916Y372D02*
X986Y372D01*
X1216Y372D02*
X1286Y372D01*
X917Y371D02*
X985Y371D01*
X1217Y371D02*
X1285Y371D01*
X918Y370D02*
X984Y370D01*
X1218Y370D02*
X1284Y370D01*
X918Y369D02*
X984Y369D01*
X1218Y369D02*
X1284Y369D01*
X919Y368D02*
X983Y368D01*
X1219Y368D02*
X1283Y368D01*
X920Y367D02*
X982Y367D01*
X1220Y367D02*
X1282Y367D01*
X920Y366D02*
X982Y366D01*
X1220Y366D02*
X1282Y366D01*
X921Y365D02*
X981Y365D01*
X1221Y365D02*
X1281Y365D01*
X922Y364D02*
X980Y364D01*
X1222Y364D02*
X1280Y364D01*
X923Y363D02*
X979Y363D01*
X1223Y363D02*
X1279Y363D01*
X924Y362D02*
X978Y362D01*
X1224Y362D02*
X1278Y362D01*
X925Y361D02*
X977Y361D01*
X1225Y361D02*
X1277Y361D01*
X926Y360D02*
X976Y360D01*
X1226Y360D02*
X1275Y360D01*
X928Y359D02*
X974Y359D01*
X1228Y359D02*
X1274Y359D01*
X929Y358D02*
X973Y358D01*
X1229Y358D02*
X1273Y358D01*
X931Y357D02*
X971Y357D01*
X1231Y357D02*
X1271Y357D01*
X932Y356D02*
X970Y356D01*
X1232Y356D02*
X1270Y356D01*
X934Y355D02*
X968Y355D01*
X1234Y355D02*
X1268Y355D01*
X937Y354D02*
X965Y354D01*
X1237Y354D02*
X1265Y354D01*
X940Y353D02*
X962Y353D01*
X1239Y353D02*
X1262Y353D01*
X944Y352D02*
X958Y352D01*
X1244Y352D02*
X1258Y352D01*
X949Y331D02*
X953Y331D01*
X1249Y331D02*
X1253Y331D01*
X942Y330D02*
X959Y330D01*
X1242Y330D02*
X1259Y330D01*
X939Y329D02*
X963Y329D01*
X1239Y329D02*
X1263Y329D01*
X936Y328D02*
X966Y328D01*
X1236Y328D02*
X1266Y328D01*
X934Y327D02*
X968Y327D01*
X1234Y327D02*
X1268Y327D01*
X932Y326D02*
X970Y326D01*
X1232Y326D02*
X1270Y326D01*
X930Y325D02*
X972Y325D01*
X1230Y325D02*
X1272Y325D01*
X929Y324D02*
X973Y324D01*
X1229Y324D02*
X1273Y324D01*
X927Y323D02*
X975Y323D01*
X1227Y323D02*
X1274Y323D01*
X926Y322D02*
X976Y322D01*
X1226Y322D02*
X1276Y322D01*
X925Y321D02*
X977Y321D01*
X1225Y321D02*
X1277Y321D01*
X924Y320D02*
X978Y320D01*
X1224Y320D02*
X1278Y320D01*
X923Y319D02*
X979Y319D01*
X1223Y319D02*
X1279Y319D01*
X922Y318D02*
X980Y318D01*
X1222Y318D02*
X1280Y318D01*
X921Y317D02*
X981Y317D01*
X1221Y317D02*
X1281Y317D01*
X920Y316D02*
X982Y316D01*
X1220Y316D02*
X1282Y316D01*
X920Y315D02*
X982Y315D01*
X1219Y315D02*
X1282Y315D01*
X919Y314D02*
X983Y314D01*
X1219Y314D02*
X1283Y314D01*
X918Y313D02*
X984Y313D01*
X1218Y313D02*
X1284Y313D01*
X917Y312D02*
X985Y312D01*
X1217Y312D02*
X1284Y312D01*
X917Y311D02*
X985Y311D01*
X1217Y311D02*
X1285Y311D01*
X916Y310D02*
X986Y310D01*
X1216Y310D02*
X1286Y310D01*
X916Y309D02*
X986Y309D01*
X1216Y309D02*
X1286Y309D01*
X915Y308D02*
X987Y308D01*
X1215Y308D02*
X1287Y308D01*
X915Y307D02*
X987Y307D01*
X1215Y307D02*
X1287Y307D01*
X914Y306D02*
X988Y306D01*
X1214Y306D02*
X1288Y306D01*
X914Y305D02*
X988Y305D01*
X1214Y305D02*
X1288Y305D01*
X914Y304D02*
X988Y304D01*
X1214Y304D02*
X1288Y304D01*
X913Y303D02*
X989Y303D01*
X1213Y303D02*
X1289Y303D01*
X913Y302D02*
X989Y302D01*
X1213Y302D02*
X1289Y302D01*
X913Y301D02*
X989Y301D01*
X1213Y301D02*
X1289Y301D01*
X913Y300D02*
X989Y300D01*
X1213Y300D02*
X1289Y300D01*
X912Y299D02*
X990Y299D01*
X1212Y299D02*
X1290Y299D01*
X912Y298D02*
X990Y298D01*
X1212Y298D02*
X1290Y298D01*
X912Y297D02*
X990Y297D01*
X1212Y297D02*
X1290Y297D01*
X912Y296D02*
X990Y296D01*
X1212Y296D02*
X1290Y296D01*
X912Y295D02*
X990Y295D01*
X1212Y295D02*
X1290Y295D01*
X912Y294D02*
X990Y294D01*
X1212Y294D02*
X1290Y294D01*
X912Y293D02*
X990Y293D01*
X1212Y293D02*
X1290Y293D01*
X912Y292D02*
X990Y292D01*
X1211Y292D02*
X1290Y292D01*
X912Y291D02*
X990Y291D01*
X1211Y291D02*
X1290Y291D01*
X912Y290D02*
X990Y290D01*
X1212Y290D02*
X1290Y290D01*
X912Y289D02*
X990Y289D01*
X1212Y289D02*
X1290Y289D01*
X912Y288D02*
X990Y288D01*
X1212Y288D02*
X1290Y288D01*
X912Y287D02*
X990Y287D01*
X1212Y287D02*
X1290Y287D01*
X912Y286D02*
X990Y286D01*
X1212Y286D02*
X1290Y286D01*
X912Y285D02*
X990Y285D01*
X1212Y285D02*
X1290Y285D01*
X912Y284D02*
X990Y284D01*
X1212Y284D02*
X1290Y284D01*
X912Y283D02*
X990Y283D01*
X1212Y283D02*
X1290Y283D01*
X913Y282D02*
X989Y282D01*
X1213Y282D02*
X1289Y282D01*
X913Y281D02*
X989Y281D01*
X1213Y281D02*
X1289Y281D01*
X913Y280D02*
X989Y280D01*
X1213Y280D02*
X1289Y280D01*
X913Y279D02*
X989Y279D01*
X1213Y279D02*
X1288Y279D01*
X914Y278D02*
X988Y278D01*
X1214Y278D02*
X1288Y278D01*
X914Y277D02*
X988Y277D01*
X1214Y277D02*
X1288Y277D01*
X915Y276D02*
X987Y276D01*
X1214Y276D02*
X1287Y276D01*
X915Y275D02*
X987Y275D01*
X1215Y275D02*
X1287Y275D01*
X915Y274D02*
X987Y274D01*
X1215Y274D02*
X1287Y274D01*
X916Y273D02*
X986Y273D01*
X1216Y273D02*
X1286Y273D01*
X916Y272D02*
X986Y272D01*
X1216Y272D02*
X1286Y272D01*
X917Y271D02*
X985Y271D01*
X1217Y271D02*
X1285Y271D01*
X918Y270D02*
X984Y270D01*
X1218Y270D02*
X1284Y270D01*
X918Y269D02*
X984Y269D01*
X1218Y269D02*
X1284Y269D01*
X919Y268D02*
X983Y268D01*
X1219Y268D02*
X1283Y268D01*
X920Y267D02*
X982Y267D01*
X1220Y267D02*
X1282Y267D01*
X920Y266D02*
X982Y266D01*
X1220Y266D02*
X1281Y266D01*
X921Y265D02*
X981Y265D01*
X1221Y265D02*
X1281Y265D01*
X922Y264D02*
X980Y264D01*
X1222Y264D02*
X1280Y264D01*
X923Y263D02*
X979Y263D01*
X1223Y263D02*
X1279Y263D01*
X924Y262D02*
X978Y262D01*
X1224Y262D02*
X1278Y262D01*
X925Y261D02*
X977Y261D01*
X1225Y261D02*
X1277Y261D01*
X927Y260D02*
X975Y260D01*
X1226Y260D02*
X1275Y260D01*
X928Y259D02*
X974Y259D01*
X1228Y259D02*
X1274Y259D01*
X929Y258D02*
X973Y258D01*
X1229Y258D02*
X1273Y258D01*
X931Y257D02*
X971Y257D01*
X1231Y257D02*
X1271Y257D01*
X933Y256D02*
X969Y256D01*
X1232Y256D02*
X1269Y256D01*
X935Y255D02*
X967Y255D01*
X1234Y255D02*
X1267Y255D01*
X937Y254D02*
X965Y254D01*
X1237Y254D02*
X1265Y254D01*
X940Y253D02*
X962Y253D01*
X1240Y253D02*
X1262Y253D01*
X944Y252D02*
X958Y252D01*
X1244Y252D02*
X1258Y252D01*
X949Y231D02*
X953Y231D01*
X1248Y231D02*
X1253Y231D01*
X942Y230D02*
X960Y230D01*
X1242Y230D02*
X1260Y230D01*
X939Y229D02*
X963Y229D01*
X1239Y229D02*
X1263Y229D01*
X936Y228D02*
X966Y228D01*
X1236Y228D02*
X1266Y228D01*
X934Y227D02*
X968Y227D01*
X1234Y227D02*
X1268Y227D01*
X932Y226D02*
X970Y226D01*
X1232Y226D02*
X1270Y226D01*
X930Y225D02*
X972Y225D01*
X1230Y225D02*
X1272Y225D01*
X929Y224D02*
X973Y224D01*
X1229Y224D02*
X1273Y224D01*
X927Y223D02*
X975Y223D01*
X1227Y223D02*
X1275Y223D01*
X926Y222D02*
X976Y222D01*
X1226Y222D02*
X1276Y222D01*
X925Y221D02*
X977Y221D01*
X1225Y221D02*
X1277Y221D01*
X924Y220D02*
X978Y220D01*
X1224Y220D02*
X1278Y220D01*
X923Y219D02*
X979Y219D01*
X1223Y219D02*
X1279Y219D01*
X922Y218D02*
X980Y218D01*
X1222Y218D02*
X1280Y218D01*
X921Y217D02*
X981Y217D01*
X1221Y217D02*
X1281Y217D01*
X920Y216D02*
X982Y216D01*
X1220Y216D02*
X1282Y216D01*
X920Y215D02*
X982Y215D01*
X1219Y215D02*
X1282Y215D01*
X919Y214D02*
X983Y214D01*
X1219Y214D02*
X1283Y214D01*
X918Y213D02*
X984Y213D01*
X1218Y213D02*
X1284Y213D01*
X917Y212D02*
X985Y212D01*
X1217Y212D02*
X1284Y212D01*
X917Y211D02*
X985Y211D01*
X1217Y211D02*
X1285Y211D01*
X916Y210D02*
X986Y210D01*
X1216Y210D02*
X1286Y210D01*
X916Y209D02*
X986Y209D01*
X1216Y209D02*
X1286Y209D01*
X915Y208D02*
X987Y208D01*
X1215Y208D02*
X1287Y208D01*
X915Y207D02*
X987Y207D01*
X1215Y207D02*
X1287Y207D01*
X914Y206D02*
X988Y206D01*
X1214Y206D02*
X1288Y206D01*
X914Y205D02*
X988Y205D01*
X1214Y205D02*
X1288Y205D01*
X914Y204D02*
X988Y204D01*
X1214Y204D02*
X1288Y204D01*
X913Y203D02*
X989Y203D01*
X1213Y203D02*
X1289Y203D01*
X913Y202D02*
X989Y202D01*
X1213Y202D02*
X1289Y202D01*
X913Y201D02*
X989Y201D01*
X1213Y201D02*
X1289Y201D01*
X913Y200D02*
X989Y200D01*
X1213Y200D02*
X1289Y200D01*
X912Y199D02*
X990Y199D01*
X1212Y199D02*
X1290Y199D01*
X912Y198D02*
X990Y198D01*
X1212Y198D02*
X1290Y198D01*
X912Y197D02*
X990Y197D01*
X1212Y197D02*
X1290Y197D01*
X912Y196D02*
X990Y196D01*
X1212Y196D02*
X1290Y196D01*
X912Y195D02*
X990Y195D01*
X1212Y195D02*
X1290Y195D01*
X912Y194D02*
X990Y194D01*
X1212Y194D02*
X1290Y194D01*
X912Y193D02*
X990Y193D01*
X1212Y193D02*
X1290Y193D01*
X912Y192D02*
X990Y192D01*
X1211Y192D02*
X1290Y192D01*
X912Y191D02*
X990Y191D01*
X1211Y191D02*
X1290Y191D01*
X912Y190D02*
X990Y190D01*
X1212Y190D02*
X1290Y190D01*
X912Y189D02*
X990Y189D01*
X1212Y189D02*
X1290Y189D01*
X912Y188D02*
X990Y188D01*
X1212Y188D02*
X1290Y188D01*
X912Y187D02*
X990Y187D01*
X1212Y187D02*
X1290Y187D01*
X912Y186D02*
X990Y186D01*
X1212Y186D02*
X1290Y186D01*
X912Y185D02*
X990Y185D01*
X1212Y185D02*
X1290Y185D01*
X912Y184D02*
X990Y184D01*
X1212Y184D02*
X1290Y184D01*
X912Y183D02*
X990Y183D01*
X1212Y183D02*
X1290Y183D01*
X913Y182D02*
X989Y182D01*
X1213Y182D02*
X1289Y182D01*
X913Y181D02*
X989Y181D01*
X1213Y181D02*
X1289Y181D01*
X913Y180D02*
X989Y180D01*
X1213Y180D02*
X1289Y180D01*
X913Y179D02*
X989Y179D01*
X1213Y179D02*
X1288Y179D01*
X914Y178D02*
X988Y178D01*
X1214Y178D02*
X1288Y178D01*
X914Y177D02*
X988Y177D01*
X1214Y177D02*
X1288Y177D01*
X915Y176D02*
X987Y176D01*
X1214Y176D02*
X1287Y176D01*
X915Y175D02*
X987Y175D01*
X1215Y175D02*
X1287Y175D01*
X915Y174D02*
X987Y174D01*
X1215Y174D02*
X1287Y174D01*
X916Y173D02*
X986Y173D01*
X1216Y173D02*
X1286Y173D01*
X916Y172D02*
X986Y172D01*
X1216Y172D02*
X1285Y172D01*
X917Y171D02*
X985Y171D01*
X1217Y171D02*
X1285Y171D01*
X918Y170D02*
X984Y170D01*
X1218Y170D02*
X1284Y170D01*
X918Y169D02*
X984Y169D01*
X1218Y169D02*
X1284Y169D01*
X919Y168D02*
X983Y168D01*
X1219Y168D02*
X1283Y168D01*
X920Y167D02*
X982Y167D01*
X1220Y167D02*
X1282Y167D01*
X921Y166D02*
X981Y166D01*
X1220Y166D02*
X1281Y166D01*
X921Y165D02*
X981Y165D01*
X1221Y165D02*
X1281Y165D01*
X922Y164D02*
X980Y164D01*
X1222Y164D02*
X1280Y164D01*
X923Y163D02*
X979Y163D01*
X1223Y163D02*
X1279Y163D01*
X924Y162D02*
X978Y162D01*
X1224Y162D02*
X1278Y162D01*
X925Y161D02*
X977Y161D01*
X1225Y161D02*
X1277Y161D01*
X927Y160D02*
X975Y160D01*
X1227Y160D02*
X1275Y160D01*
X928Y159D02*
X974Y159D01*
X1228Y159D02*
X1274Y159D01*
X929Y158D02*
X973Y158D01*
X1229Y158D02*
X1273Y158D01*
X931Y157D02*
X971Y157D01*
X1231Y157D02*
X1271Y157D01*
X933Y156D02*
X969Y156D01*
X1233Y156D02*
X1269Y156D01*
X935Y155D02*
X967Y155D01*
X1235Y155D02*
X1267Y155D01*
X937Y154D02*
X965Y154D01*
X1237Y154D02*
X1265Y154D01*
X940Y153D02*
X962Y153D01*
X1240Y153D02*
X1262Y153D01*
X944Y152D02*
X958Y152D01*
X1244Y152D02*
X1258Y152D01*
D02*
G04 End of Mask1*
M02*