; NON-PLATED HOLES START AT T1
; THROUGH (PLATED) HOLES START AT T100
M48
INCH
T1C0.086614
T100C0.039370
T101C0.035000
T102C0.030000
T103C0.038000
%
T1
X020660Y018037
X020660Y000897
X000970Y018049
X000978Y000897
T100
X014516Y009897
X007516Y007897
X014516Y012897
X014516Y014897
X014516Y011897
X007516Y004897
X014516Y008897
X007516Y012897
X014516Y006897
X014516Y001897
X014516Y005897
X007516Y005897
X007516Y011897
X007516Y014897
X014516Y010897
X014516Y003897
X007516Y001897
X014516Y002897
X007516Y006897
X014516Y007897
X007516Y013897
X007516Y002897
X014516Y004897
X014516Y013897
X007516Y008897
X007516Y003897
X007516Y009897
X007516Y010897
T101
X019516Y010897
X006516Y009897
X006516Y008897
X006516Y012897
X015516Y009897
X006516Y011897
X006516Y013897
X015516Y013897
X002516Y011897
X019516Y009897
X006516Y014897
X002516Y010897
X019516Y008897
X002516Y014897
X019516Y013897
X015516Y012897
X002516Y009897
X019516Y011897
X015516Y011897
X015516Y010897
X006516Y007897
X006516Y010897
X019516Y014897
X015516Y008897
X002516Y012897
X019516Y007897
X002516Y007897
X015516Y007897
X015516Y014897
X002516Y008897
X019516Y012897
X002516Y013897
T102
X012516Y007897
X009516Y009897
X009516Y011897
X012516Y006897
X012516Y001897
X012516Y002897
X009516Y010897
X012516Y008897
X009516Y014897
X012516Y005897
X009516Y007897
X009516Y008897
X009516Y001897
X012516Y014897
X012516Y004897
X012516Y009897
X009516Y013897
X012516Y003897
X012516Y012897
X009516Y004897
X012516Y010897
X009516Y003897
X012516Y011897
X009516Y005897
X009516Y006897
X012516Y013897
X009516Y002897
X009516Y012897
T103
X016516Y003897
X016516Y002897
X018516Y002897
X018516Y016897
X018516Y001897
X016516Y001897
X017516Y016897
X018516Y003897
T00
M30
