; NON-PLATED HOLES START AT T1
; THROUGH (PLATED) HOLES START AT T100
M48
INCH
T100C0.150000
T101C0.038000
T102C0.035000
T103C0.030000
%
T100
X054538Y023211
X027538Y023211
X056538Y016211
X006538Y009211
X017538Y016211
X048538Y023211
X047538Y009211
X059538Y009211
X024538Y009211
X011538Y016211
X015538Y023211
X053538Y009211
X066538Y023211
X065538Y009211
X009538Y023211
X012538Y009211
X005538Y016211
X018538Y009211
X062538Y016211
X050538Y016211
X023538Y016211
X068538Y016211
X003538Y023211
X060538Y023211
X071538Y009211
X021538Y023211
T101
X045538Y027211
X031538Y002211
X028538Y002211
X030538Y002211
X029538Y002211
X046538Y027211
X044538Y027211
X047538Y027211
T102
X051538Y028211
X067036Y014211
X056538Y006211
X055503Y010075
X054709Y025383
X048538Y015211
X057538Y028211
X021074Y009211
X063538Y028211
X020074Y016211
X045538Y008211
X002074Y009211
X024538Y007211
X015074Y009211
X018538Y007211
X058207Y017039
X015709Y025383
X006538Y028211
X017538Y014211
X014074Y016211
X011538Y014211
X009074Y009211
X018538Y028211
X045074Y017211
X061036Y014211
X008074Y016211
X005538Y007211
X048709Y025383
X069538Y028211
X051967Y017275
X049606Y010113
X024538Y028211
X060709Y025383
X004538Y014211
X012538Y028211
X030538Y028211
X023538Y014211
X061503Y010075
X067503Y010075
X009709Y025383
X003709Y025383
X066709Y025383
X068538Y006211
X021709Y025383
X062538Y006211
X054538Y014211
X001074Y016211
X050641Y006249
X064207Y017039
X042074Y010211
X012538Y007211
X027709Y025383
T103
X041538Y017211
X041538Y014211
X033538Y003211
X041538Y026211
X036538Y010211
X036538Y009211
X033538Y005211
X036538Y015211
X033538Y009211
X041538Y021211
X033538Y007211
X033538Y002211
X033538Y012211
X038538Y027211
X041538Y025211
X033538Y008211
X033538Y015211
X036538Y002211
X041538Y016211
X036538Y006211
X041538Y019211
X036538Y003211
X041538Y024211
X033538Y011211
X038538Y023211
X033538Y013211
X038538Y024211
X036538Y011211
X038538Y014211
X038538Y020211
X041538Y022211
X041538Y015211
X033538Y006211
X036538Y012211
X033538Y010211
X038538Y015211
X036538Y004211
X038538Y022211
X038538Y021211
X038538Y019211
X038538Y017211
X036538Y008211
X038538Y026211
X036538Y005211
X038538Y018211
X038538Y016211
X036538Y014211
X033538Y014211
X041538Y027211
X038538Y025211
X041538Y020211
X041538Y023211
X041538Y018211
X036538Y013211
X036538Y007211
X033538Y004211
T00
M30
